<?xml version="1.0" encoding="utf-8"?>
<!-- Generator: Adobe Illustrator 22.1.0, SVG Export Plug-In . SVG Version: 6.00 Build 0)  -->
<svg version="1.1" id="Capa_1" xmlns="http://www.w3.org/2000/svg" xmlns:xlink="http://www.w3.org/1999/xlink" x="0px" y="0px"
	 viewBox="0 0 573.2 573.2" style="enable-background:new 0 0 573.2 573.2;" xml:space="preserve">
<style type="text/css">
	.st0{fill:#FFFFFF;}
</style>
<g>
	<g>
		<path class="st0" d="M243.7,136.3c0,1.3,0.5,1.8,1.6,1.6c0.9,0,1.8-1,2.7-3c1-2,2.6-3.1,5-3.4c-1.1,0-2.1,0-3.2,0
			C245.7,132.1,243.7,133.7,243.7,136.3z"/>
		<path class="st0" d="M271.5,132.4c2.1-0.6,4-0.2,5.6,1.4s2.8,2.3,3.7,2.1c1.3-0.6,1.6-1.6,1-2.9
			C280,130.3,276.6,130.1,271.5,132.4z"/>
		<path class="st0" d="M516.2,472.1c-0.6-0.4-2.4-1.4-5.3-3c-2.9-1.6-5.2-3-6.9-4.2c-1.7-1.2-3.9-3.2-6.7-6.1
			c-2.8-2.9-5-5.9-6.6-9.1c-1.6-3.2-3.2-7.5-4.6-12.9c-1.5-5.4-2.4-11.5-2.6-18.1c-3,2.6-4.6,7.6-5,15.2c-0.3,7.6,1.3,15.3,4.8,23.2
			c3.5,7.9,8.8,13,15.8,15.4c6.8,2.4,12.3,4.9,16.5,7.5c4.2,2.7,6.8,5.7,8,9.1c1.2,3.4-0.8,7.1-5.9,11c-5.1,3.9-13.3,7.8-24.6,11.7
			c-15.6,5.3-26.6,9.9-33.1,13.6c-6.5,3.7-16,10.8-28.6,21.3c-8.5,7-17.6,10.8-27.2,11.4c-9.6,0.5-17.4-3-23.3-10.6
			c-6-7.6-7.9-18.3-5.8-32.1c4-26.6,3.9-47.4-0.3-62.4c-3.4-11.7-4.2-22.1-2.2-31c1.9-9,4.9-14.2,9-15.7c4-1.5,8.4,1.7,13.1,9.6
			c0.4,1.1,1.4,3.1,2.9,6.2c1.5,3.1,2.7,5.3,3.7,6.6c1,1.3,2.4,2.9,4.3,5c1.9,2,4.3,3.5,7.2,4.3c2.9,0.9,6.2,1.4,10.1,1.6
			c7.2,0.2,13.8-1.3,19.5-4.5c5.8-3.2,10.1-6.8,13-10.7c2.9-3.9,5.8-7.7,8.6-11.4c2.9-3.6,5.4-5.6,7.5-6.1c2.3-0.4,4.5-2.8,6.4-7
			s3.2-10.2,3.8-17.8c0.6-7.6,0.1-16.6-1.6-27c-3.2-18.6-9.5-38.9-19-61.1c-9.5-22.2-20.1-39.5-31.8-52.1
			c-21.1-22.4-35.3-45.6-42.5-69.7c-7.5-25.4-10.7-48.2-9.6-68.5c1.1-14.5-2.1-30.2-9.4-47.2s-17.1-29.9-29.3-38.9
			c-7.7-5.8-17.2-10.2-28.5-13.3C298.6,1.2,287.3-0.2,276,0c-13.9,0-25,2.2-33.3,6.7c-17.1,9.2-28.4,20.3-33.9,33.4
			c-5.5,13.1-8.1,29.3-7.7,48.5c0.9,42.2,2.6,75.3,5.1,99.2c-3,11.1-16.2,31.9-39.7,62.4c-4.3,4.3-8.4,10-12.5,17.3
			c-4.1,7.3-7.3,13.8-9.6,19.5c-2.4,5.8-5.5,14.1-9.4,25c-3.9,10.9-6.8,18.6-8.5,23c-1.5,3.8-3.8,8.3-7,13.4
			c-3.2,5.1-5.8,10.1-7.7,15c-1.9,4.9-3,10.5-3.2,16.6c-0.2,4.7,0,8.7,0.6,12.1c0.9,5.1,2.4,6.7,4.8,4.8c9.6-7.2,21.6-3,36.1,12.8
			c10.2,11.1,28.3,36.9,54.1,77.4c2.1,3.6,4.3,7.5,6.4,11.7c2.1,4.2,4.2,9.7,6.1,16.6c1.9,6.9,2.7,13.2,2.4,18.7
			c-0.3,5.5-2.8,10.7-7.4,15.4c-4.6,4.7-11.5,7.7-20.6,8.9c-4.9,0.6-10.8,0.2-17.8-1.3c-6.9-1.5-15.7-3.9-26.4-7.4
			c-10.7-3.4-18.5-5.8-23.7-7c-7.5-1.7-18.1-3.9-31.8-6.6c-13.8-2.7-22.8-4.6-27-5.9c-7.3-1.9-11.2-4.7-11.8-8.3
			c-0.6-3,0.9-8.1,4.5-15.4c3.6-7.3,5.4-12.5,5.4-15.7c0.2-2.3,0.1-4.7-0.3-7c-0.4-2.4-0.9-4.2-1.4-5.4c-0.5-1.3-1.4-3.2-2.7-5.7
			c-1.3-2.6-2.1-4.5-2.6-5.8c-3.8-9-4.4-15-1.6-18.2c1.9-2.8,6.5-3.9,13.8-3.2c10.9,1.1,19.7-0.5,26.5-4.8
			c11.3-7,14.7-18.3,10.2-33.9c0,7.3-1.3,12.7-3.8,16.3c-2.6,3.6-7,7.3-13.4,11.2c-3.6,2.1-10,3.4-19.2,3.8
			c-9.2,0.4-15.2,1.9-18.2,4.5c-2.1,1.9-3.3,4.8-3.4,8.6c-0.1,3.9,0.4,7.7,1.4,11.7c1.1,3.9,2.1,8.5,3.2,13.6
			c1.1,5.1,1.5,9.4,1.3,12.8c-0.2,2.3-2.1,8.2-5.8,17.4c-3.6,9.3-4.4,16.4-2.2,21.3c1.1,2.4,2.9,4.4,5.4,6.2
			c2.6,1.8,6.1,3.3,10.7,4.6c4.6,1.3,8.8,2.3,12.6,3c3.8,0.7,9.2,1.7,16,2.9c6.8,1.2,12.3,2.2,16.3,3c13.6,2.8,29.2,7.4,46.7,13.7
			c17.5,6.4,29.3,9.7,35.5,9.9c6,0.2,11.7-1,17.1-3.7c5.4-2.7,10.1-5.7,13.9-9.1c3.8-3.4,9.5-6.6,17.1-9.6c7.6-3,16-4.6,25.4-4.8
			c4.3-0.2,10.4-0.5,18.5-0.8s14.2-0.5,18.2-0.5c18.3,0,32.2,0.1,41.6,0.3c6.4,0.2,11.4,1.2,15,3s6,3.9,7,6.2c1.1,2.3,2.8,5,5.3,8.1
			c2.4,3.1,5.6,5.6,9.4,7.5c8.1,3.8,17.6,5.4,28.5,4.6c10.9-0.7,18.1-2.8,21.8-6.2c6-5.8,14-12.6,24.1-20.5
			c10.1-7.9,19.2-13.9,27.4-17.9c1.7-0.9,4.6-2.2,8.6-4.2c4-1.9,7.5-3.6,10.2-5c2.8-1.4,6.1-3.1,10.1-5.3c3.9-2.1,7.1-4.1,9.6-5.9
			c2.4-1.8,5-3.9,7.5-6.2c2.6-2.4,4.2-4.7,5-7c0.7-2.4,1-4.7,0.8-7.2c-0.2-2.4-1.5-5-3.8-7.7C523.8,477.3,520.5,474.7,516.2,472.1z
			 M354.7,170.8c0.6-0.4,1.1-0.6,1.3-0.5c0.2,0.1,0.6,0.5,1.3,1.3c0.6,0.7,1.2,1.4,1.8,2.1c0.5,0.6,1.3,1.5,2.2,2.5
			c1,1.1,2,1.9,3,2.6c1.3,0.9,2.8,1.4,4.6,1.8c1.8,0.3,3.2,0.9,4.2,1.6c1,0.7,1.7,2,2.1,3.7c0.4,2.4,0,4.5-1.1,6.4
			c-1.2,1.9-2.7,2.8-4.6,2.6c-3.8-0.9-8-4.2-12.5-10.1C352.4,178.9,351.7,174.2,354.7,170.8z M315,46.6c1.1-1.4,1.7-2.5,1.9-3.4
			c0.4-1.3,0.5-2.6,0.2-4c-0.3-1.4-0.2-2.8,0.3-4.2c0.5-1.4,1.8-2.2,3.7-2.4c1.9,0,4.5,1.6,7.7,4.8c0.6,0.4,1.7,1.1,3,1.9
			c1.4,0.9,2.3,1.6,2.9,2.2c0.5,0.6,0.8,1.2,0.8,1.6c-0.4,1.1-1.4,1.8-2.9,2.2c-1.5,0.4-3.1,0.6-4.8,0.6c-1.7,0-2.7,0.1-2.9,0.3
			c-1.7,0.6-3.3,1.6-4.8,2.9c-1.5,1.3-2.7,2.2-3.5,2.9c-0.9,0.6-1.7,0.6-2.6,0c-0.9-1.3-1.2-2.2-1-2.7
			C313.3,48.9,313.9,47.9,315,46.6z M160.2,286c1.5-1.7,2.6-3.1,3.2-4.2c0.6-1,1.2-2.5,1.8-4.3c0.5-1.8,1-3.1,1.4-4
			c0.4-0.9,1.1-1.2,1.9-1c0.4,0.2,0.7,0.4,1,0.6c0.2,0.2,0.3,0.5,0.3,0.8c0,0.3,0,0.6,0,1s-0.1,0.7-0.2,1.3c-0.1,0.6-0.3,1-0.5,1.5
			c-0.2,0.4-0.4,1.1-0.6,1.9c-0.2,0.9-0.4,1.6-0.6,2.2c-0.9,2.1-2.2,4.1-4,5.8c-1.8,1.7-3.2,2.5-4,2.2
			C158.6,289.4,158.7,288.1,160.2,286z M367.3,459.8c1.8,11.2,2.5,19,2.1,23.5c-0.4,6.8-1.9,16.4-4.3,28.8
			c-2.5,12.4-4,20.6-4.6,24.6c-4.5-0.2-7-1.9-7.7-5c-0.6-3.1,0-7.1,1.9-12c4.7-14.3,7.1-24.1,7.4-29.4c0.4-9.8-0.6-15.4-3.2-16.6
			c-2.4-1.7-6,1.5-10.9,9.6c-9.4,15.4-28.3,24.6-56.6,27.8c-25.6,3.4-43.3-0.4-53.1-11.5c-2.1-1.5-4.3-1.8-6.4-0.8
			c-2.1,1-3.5,2-4.2,3c-0.2,0.4,0,1.1,0.6,1.9c0.6,0.9,1.7,2.1,3,3.8c1.4,1.7,2.5,3.4,3.4,5.1c8.3,14.5,7.6,24.3-2.2,29.4
			c0-9.8-0.8-17.3-2.2-22.6c-1.5-5.2-4.5-11-9-17.3c-4.5-6.3-7.6-11-9.3-14.2c6.4-0.6,11.2-3.1,14.6-7.3c3.3-4.3,4.8-8.8,4.5-13.8
			c-0.3-4.9-2.2-9-5.6-12.2c-1.9-1.9-11.8-10.1-29.8-24.5c-17.9-14.4-29-24-33.3-28.9c-0.9-0.9-3.4-3-7.7-6.4c-4.3-3.4-6.9-6.4-8-9
			c-9.8-21.5-10.9-39.2-3.2-53.1l1.3-1.6c1.1-0.2,1.2,1.7,0.3,5.8c-1.3,6-1.7,11.9-1.3,17.9c0.9,13.4,4.7,23.5,11.5,30.1
			c4.5,4.5,7.6,4.2,9.3-1c1.3-1.7,1.9-8,1.8-18.9c-0.1-10.9,0-18.2,0.5-22.1c1.7-12.2,6.8-27.2,15.2-45.1
			c8.4-17.9,15.1-27.5,20-28.8c-3.8-6.2-5.1-12.9-3.7-20.2c1.4-7.2,3.6-13.4,6.7-18.6c3.1-5.1,6.2-11,9.4-17.7
			c3.2-6.7,4.8-12.7,4.8-18.1c0-1.5,0.1-2.6,0.3-3.2c0.6-1.9,3.3,0.4,8,7c9,13.2,15.7,21,20.2,23.4c4.7,2.6,9.9,2.5,15.7-0.3
			s12.8-7.4,21.3-13.8c8.4-6.4,15.6-11.1,21.6-14.1c0.6-0.2,1.7-0.7,3-1.4c1.4-0.7,2.4-1.3,3.2-1.6c0.7-0.3,1.7-0.8,2.9-1.4
			c1.2-0.6,2.1-1.2,2.7-1.6c0.6-0.4,1.3-0.9,1.9-1.4s1.1-1.1,1.3-1.6c0.2-0.5,0.3-1,0.3-1.4c-0.4-1.9-1.3-3.1-2.7-3.5
			c-1.4-0.4-3.3-0.2-5.6,0.8c-2.4,1-5,2.2-7.8,3.8c-2.9,1.6-6.1,3.4-9.6,5.4c-3.5,2-7.1,3.9-10.7,5.6c-3.6,1.7-7.5,3.2-11.5,4.5
			c-4.1,1.3-7.9,2-11.5,2.2c-9,0.2-16.1-2.1-21.4-7c-3.4-3.2-5.2-5.2-5.4-6.1c-0.2-0.9,0.7-1,2.9-0.6c11.5,1.5,19.9,1.7,25.3,0.6
			c5.5-0.9,13-3.3,22.4-7.3c1.9-0.9,6.8-2.9,14.6-6.2c7.8-3.3,13.8-5.6,18.1-6.9c2.6-0.6,4.3-1.6,5.3-3c1-1.4,1.3-2.7,1-3.8
			c-0.3-1.2-1-2.1-2.1-2.7c-2.4-1.3-4.5-0.4-6.4,2.6c-1.1,1.9-3.3,3.8-6.7,5.6c-3.4,1.8-6.6,3.2-9.4,4.2c-2.9,0.9-6.6,2.1-11,3.3
			c-4.5,1.3-6.9,2-7.4,2.2c-11.7,3.6-22.6,5.2-32.6,4.8c-4.7-0.2-8.5-0.9-11.4-2.1c-2.9-1.2-4.9-2.6-5.9-4.2
			c-1.1-1.6-2.8-3.6-5.1-6.1c-2.4-2.4-5-4.5-8-6.2c-2.1-1.1-2.9-3-2.4-5.8c0.5-2.8,2.2-5.6,5-8.6c0.2-0.2,2.4-1.5,6.6-4
			c4.2-2.4,7.1-5,8.8-7.5c1.9-3,5.2-6.1,9.9-9.3c0.2-0.9,0.4-3.2,0.5-7c0.1-3.8-0.9-8-3-12.5c-2.1-4.5-5-6.7-8.6-6.7
			c-5.1-0.2-8.7,1.3-10.9,4.5c-2.1,3.2-3.1,7.1-2.9,11.8c0.2,4.1,1.2,7.6,3,10.7c1.8,3.1,3.5,4.6,5,4.6c2.3-0.2,3.1,0.6,2.2,2.6
			c-1.3,2.4-3,3.8-5.1,4.5c-1.5,0.4-3.1-1-5-4.3c-1.8-3.3-3.2-7.3-4.2-12c-1-4.7-1.3-8.6-1.1-11.8c0.4-6.6,2.2-12.9,5.3-19
			c3.1-6.1,7.5-9,13.3-8.8c6,0.2,10.8,3.8,14.4,10.9c3.6,7,5.3,16.6,5.1,28.8c0.6,1.5,2.3,2,5,1.6c2.7-0.4,6.2-0.5,10.6-0.2
			c4.4,0.3,7.5,1.4,9.4,3.4c0.2,0,0.3-1.6,0.3-4.8c-3.8-26.9,5.6-41.2,28.5-42.9c3.4,0.6,6.3,1.4,8.6,2.4c2.3,1,4.8,2.6,7.5,4.8
			c2.7,2.2,4.9,5.5,6.7,9.8c1.8,4.3,3.2,9.6,4.3,16c0,1.1,0,5,0,11.8c0,6.8-1.4,10.7-4.2,11.5c-4.5,1.5-7.7,1.4-9.6-0.2
			c-1.9-1.6-1.7-4.4,0.6-8.5c2.1-5.3,1.7-11.5-1.3-18.6c-3-7-8.4-10.2-16.3-9.6c-5.3,0.2-9.2,3.1-11.5,8.6c-2.4,5.5-3.2,11-2.6,16.3
			c0.6,5.3,1.8,8.1,3.5,8.3c1.3,0.2,5.1,1.9,11.4,5.1c6.3,3.2,11,5.1,14.2,5.8c8.3,1.7,13.1,4.4,14.2,8c1.2,3.6,0.7,8.9-1.4,15.8
			c-2.1,6.9-2.8,12.6-1.9,17.1c0.9,4.7,2.4,9,4.8,12.8c2.3,3.8,4.8,7.4,7.5,10.6c2.7,3.2,5.8,9.2,9.4,17.9
			c3.6,8.7,6.9,19.7,9.9,32.9c0.2,0.2,1,0.9,2.4,2.2c1.4,1.3,2.8,2.9,4.2,4.8c1.4,1.9,3,4.5,5,7.8c1.9,3.3,4,8.2,6.2,14.6
			c2.2,6.4,4.3,13.8,6.2,22.1c2.3,9.8,3.6,21.2,3.7,34.2c0.1,13,1,21.9,2.6,26.7s5.7,6.8,12.3,5.9c8.3-0.4,13.6-4.9,16-13.4
			c7-24.7,1.3-54.4-17.3-88.9c-7-13.4-13.1-22.3-18.2-26.5c7.5,4.3,15.1,12.3,23,24c7.9,11.7,12.9,22.7,15,33
			c0.2,1.1,0.8,3.9,1.8,8.5c1,4.6,1.5,7.3,1.6,8c0.1,0.7,0.5,2.9,1.3,6.6c0.7,3.6,1.1,6,1.1,7c0,1.1,0.1,3.1,0.3,6.2
			c0.2,3.1,0.2,5.5-0.2,7.2c-0.3,1.7-0.6,4-1,6.9c-0.3,2.9-0.9,5.6-1.6,8.3c-0.8,2.7-1.5,5.6-2.4,8.8c11.7,5.1,17.6,9.6,17.6,13.4
			c-4.5-3.6-10.9-6-19.2-7.2c-8.3-1.2-16,0-23.2,3.4c-7.1,3.4-10.8,9.1-11,17c-7.7,0-13.1,1.9-16.3,5.8c-4.7,5.5-7.1,13.1-7.4,22.6
			C364.7,438.3,365.5,448.6,367.3,459.8z M235.4,112.6c-0.6-0.2-1.2-0.9-1.6-1.9c0-1.9,1-2.7,2.9-2.2c1.3,0.4,2.5,2,3.7,4.8
			c1.2,2.8,1.4,6,0.8,9.6c0,0.6-0.3,1-1,1c-2.4,0-3.2-2.1-2.6-6.4C238.3,114.2,237.5,112.6,235.4,112.6z M318.2,117.7l-0.6,0.9
			c-1.7,1.1-2.6,1.3-2.6,0.6c-0.9-5.8-2.8-9.1-5.8-9.9c-0.4-0.2-0.9-0.4-1.3-0.6c-1.5-1.3-0.8-2,2.2-2.2c0.6-0.2,1.6,0.1,2.9,0.9
			c1.3,0.9,2.4,2.2,3.5,4C317.7,113.3,318.2,115.4,318.2,117.7z"/>
	</g>
</g>
</svg>
