<?xml version="1.0" encoding="utf-8"?>
<!-- Generator: Adobe Illustrator 22.1.0, SVG Export Plug-In . SVG Version: 6.00 Build 0)  -->
<svg version="1.1" id="Capa_1" xmlns="http://www.w3.org/2000/svg" xmlns:xlink="http://www.w3.org/1999/xlink" x="0px" y="0px"
	 viewBox="0 0 203.5 203.5" style="enable-background:new 0 0 203.5 203.5;" xml:space="preserve">
<style type="text/css">
	.st0{fill:#FFFFFF;}
</style>
<g>
	<path class="st0" d="M101,42.4c0.5,0.1,1,0.2,1.5,0.2c3.5,0,6.6-2.5,7.3-6c1-4.9,2.8-8.8,5.3-11.8l0,0c4.4-5.2,11.4-7.6,16.7-8.8
		c-0.2,2.5-0.5,5.5-1.3,8.4c-1.1,4,1.2,8.1,5.2,9.2c0.7,0.2,1.3,0.3,2,0.3c3.3,0,6.3-2.2,7.2-5.5c3.1-11.1,1.7-21.5,1.6-22
		C146,2.7,142.8-0.1,139,0c-0.9,0-22.9,0.6-35.2,15c0,0,0,0,0,0c-4.2,4.9-7.1,11.2-8.6,18.6C94.3,37.6,97,41.6,101,42.4z"/>
	<path class="st0" d="M176.9,138.3c-11.5-3.7-19.1-14.2-19.1-26.2c0-10.6,6.2-20.4,15.8-24.9c2-0.9,3.4-2.6,4-4.7
		c0.6-2.1,0.3-4.3-0.9-6.1c-10-15.5-26.9-24.7-45-24.7c-8.5,0-18.1,3.3-27.4,9.2c-9.3-6-18.9-9.2-27.4-9.2
		c-27.5,0-55.4,21.7-55.4,63.1c0,39.2,26.1,88.8,55.4,88.8c8.5,0,18.1-3.3,27.4-9.2c9.3,6,18.9,9.2,27.4,9.2
		c22.7,0,41.9-28.9,50.2-55.9C183,143.7,180.8,139.6,176.9,138.3z M131.6,188.5c-6.6,0-14.9-3.4-23-9.4c-1.3-1-2.9-1.5-4.5-1.5
		s-3.1,0.5-4.5,1.5c-8,6-16.4,9.4-23,9.4c-16.7,0-40.4-38.2-40.4-73.8c0-33,20.9-48.1,40.4-48.1c6.6,0,14.9,3.4,23,9.4
		c2.7,2,6.3,2,8.9,0c8-6,16.4-9.4,23-9.4c10.5,0,20.4,4.3,27.7,11.8c-10.2,8-16.5,20.4-16.5,33.6c0,16,8.8,30.3,22.5,37.6
		C157,171.6,142.7,188.5,131.6,188.5z"/>
</g>
</svg>
