<?xml version="1.0" encoding="utf-8"?>
<!-- Generator: Adobe Illustrator 22.1.0, SVG Export Plug-In . SVG Version: 6.00 Build 0)  -->
<svg version="1.1" id="Capa_1" xmlns="http://www.w3.org/2000/svg" xmlns:xlink="http://www.w3.org/1999/xlink" x="0px" y="0px"
	 viewBox="0 0 493.4 493.4" style="enable-background:new 0 0 493.4 493.4;" xml:space="preserve">
<style type="text/css">
	.st0{fill:#FFFFFF;}
</style>
<g id="ubuntu">
	<g>
		<g>
			<path class="st0" d="M168.8,241.2c0-38.1,17.9-72.1,45.7-93.9L172,79.2c-35.6,25.6-62.5,62.7-75.1,105.8
				c19.8,12.8,32.9,35,32.9,60.4c0,24.4-12.1,46-30.8,58.9c13.6,40.9,40.1,75.8,74.7,100.1l39.6-70.4
				C186.2,312.2,168.8,278.7,168.8,241.2z"/>
		</g>
	</g>
	<g>
		<path class="st0" d="M109.7,245.4c0,28.5-23.1,51.6-51.6,51.6c-28.5,0-51.6-23.1-51.6-51.6c0-28.5,23.1-51.6,51.6-51.6
			C86.6,193.8,109.7,216.9,109.7,245.4z"/>
	</g>
	<g>
		<g>
			<path class="st0" d="M399.5,370.1c12,0,23.3,2.9,33.2,8.1c30.9-32.6,50.9-75.6,54.2-123.2l-80.1-1.6
				c-6.2,60.1-57,106.9-118.7,106.9c-17.1,0-33.4-3.6-48.1-10.1L200.2,420c26.6,13.1,56.4,20.4,87.9,20.4c13.6,0,27-1.4,39.9-4
				C330.7,399.4,361.7,370.1,399.5,370.1z"/>
		</g>
	</g>
	<g>
		<path class="st0" d="M451.1,441.8c0,28.5-23.1,51.6-51.6,51.6c-28.5,0-51.6-23.1-51.6-51.6c0-28.5,23.1-51.6,51.6-51.6
			C428,390.3,451.1,413.3,451.1,441.8z"/>
	</g>
	<g>
		<g>
			<path class="st0" d="M438.2,110.2c-11.7,8.3-26,13.2-41.4,13.2c-39.6,0-71.7-32.1-71.7-71.7c0-2.1,0.1-4.1,0.3-6.2
				c-12-2.3-24.5-3.5-37.2-3.5c-31.9,0-62,7.5-88.7,20.8l39.6,69.8c15-6.7,31.6-10.5,49.1-10.5c61.2,0,111.6,46.1,118.5,105.4
				l80.1-2.4C483.2,181.1,465.5,141.4,438.2,110.2z"/>
		</g>
	</g>
	<g>
		<path class="st0" d="M448.4,51.6c0,28.5-23,51.6-51.6,51.6c-28.5,0-51.6-23.1-51.6-51.6c0-28.5,23.1-51.6,51.6-51.6
			C425.3,0,448.4,23.1,448.4,51.6z"/>
	</g>
</g>
</svg>
