<?xml version="1.0" encoding="utf-8"?>
<!-- Generator: Adobe Illustrator 22.1.0, SVG Export Plug-In . SVG Version: 6.00 Build 0)  -->
<svg version="1.1" id="Layer_1" xmlns="http://www.w3.org/2000/svg" xmlns:xlink="http://www.w3.org/1999/xlink" x="0px" y="0px"
	 viewBox="0 0 512 512" style="enable-background:new 0 0 512 512;" xml:space="preserve">
<style type="text/css">
	.st0{fill:#FFFFFA;}
</style>
<g>
	<g>
		<path class="st0" d="M498.4,2.7c-2.4-2.1-5.7-3-8.8-2.6L270.1,29.4c-5.4,0.7-10,5.3-10,10.8v191.7c0,6,5.8,10.8,11.8,10.8h218.9
			c6,0,11.7-4.8,11.7-10.8V10.9C502.5,7.7,500.7,4.8,498.4,2.7z M480.7,220.8H281.9V49.7l198.8-26.4L480.7,220.8L480.7,220.8z"/>
	</g>
</g>
<g>
	<g>
		<path class="st0" d="M235.6,268.3c-2-2-4-3.4-7.3-3.2l-205.6,0.4c-6,0-10.5,4.9-10.5,10.9v163.4c0,5.5,3.7,10.1,9.1,10.8
			l205.7,26.2c0.5,0.1,0.8,0.1,1.3,0.1c2.6,0,4.7-1,6.7-2.7c2.3-2.1,3.2-5,3.2-8.2V276C238.3,273.1,237.6,270.3,235.6,268.3z
			 M216.5,453.7L34,430.2V287.3l182.5-0.4L216.5,453.7L216.5,453.7z"/>
	</g>
</g>
<g>
	<g>
		<path class="st0" d="M491.2,265.1l-219.3-0.7c0,0,0,0,0,0c-2.9,0-6.1,1.6-8.2,3.6c-2,2-3.7,5.2-3.7,8.1v195.4
			c0,5.5,4.5,10.1,9.9,10.8l219.1,29.6c0.5,0.1,1.1,0.1,1.6,0.1c2.6,0,5.6-0.9,7.6-2.7c2.4-2.1,4.2-5.1,4.2-8.2V276.4
			C502.5,270.4,497.2,265.1,491.2,265.1z M480.7,488.6L281.9,462V287l198.8,0.3V488.6z"/>
	</g>
</g>
<g>
	<g>
		<path class="st0" d="M235.1,37.3c-2.4-2.1-5-3-8.1-2.6L19.5,61.4c-5.4,0.7-10,5.3-10,10.8v159.7c0,6,5.8,10.8,11.8,10.8h207
			c6,0,10-4.8,10-10.8V45.5C238.3,42.4,237.4,39.4,235.1,37.3z M216.5,220.8H31.3V81.7l185.2-23.8V220.8z"/>
	</g>
</g>
</svg>
