<svg data-name="‘ëîé_1" id="_ëîé_1" viewBox="0 0 2226.57 1993.09" xmlns="http://www.w3.org/2000/svg"
     xmlns:xlink="http://www.w3.org/1999/xlink">
  <defs>
    <style>.cls-1 {
      fill: #fff;
    }

    .cls-2 {
      fill: #ffadae;
    }

    .cls-3 {
      fill: url(#Áåçûìÿííûé_ãðàäèåíò_4);
    }

    .cls-4 {
      fill: #fcca22;
    }

    .cls-5 {
      fill: url(#Áåçûìÿííûé_ãðàäèåíò_4-2);
    }

    .cls-6 {
      fill: url(#Áåçûìÿííûé_ãðàäèåíò_4-3);
    }

    .cls-7 {
      fill: url(#Áåçûìÿííûé_ãðàäèåíò_4-4);
    }

    .cls-8 {
      fill: #ffa800;
    }

    .cls-9 {
      fill: url(#Áåçûìÿííûé_ãðàäèåíò_4-5);
    }

    .cls-10 {
      fill: url(#Áåçûìÿííûé_ãðàäèåíò_4-6);
    }

    .cls-11 {
      fill: url(#Áåçûìÿííûé_ãðàäèåíò_4-7);
    }

    .cls-12 {
      fill: url(#Áåçûìÿííûé_ãðàäèåíò_4-8);
    }

    .cls-13 {
      fill: url(#Áåçûìÿííûé_ãðàäèåíò_4-9);
    }

    .cls-14 {
      fill: url(#Áåçûìÿííûé_ãðàäèåíò_4-10);
    }

    .cls-15 {
      fill: #3d238c;
    }

    .cls-16 {
      fill: #a494ff;
    }

    .cls-17 {
      fill: #00cfff;
    }

    .cls-18 {
      fill: #d7d4ff;
    }

    .cls-19 {
      fill: #8f6dff;
    }

    .cls-20 {
      fill: #0981f3;
    }

    .cls-21 {
      fill: #5752e3;
    }

    .cls-22 {
      fill: #1f1440;
    }

    .cls-23 {
      fill: #2c2c75;
    }

    .cls-24 {
      fill: url(#Áåçûìÿííûé_ãðàäèåíò_4-11);
    }

    .cls-25 {
      fill: url(#Áåçûìÿííûé_ãðàäèåíò_4-12);
    }

    .cls-26 {
      fill: url(#Áåçûìÿííûé_ãðàäèåíò_4-13);
    }

    .cls-27 {
      fill: url(#Áåçûìÿííûé_ãðàäèåíò_4-14);
    }

    .cls-28 {
      fill: #ff2e57;
    }

    .cls-29 {
      fill: #ff9395;
    }

    .cls-30 {
      fill: #b92650;
    }

    .cls-31 {
      fill: #241f3f;
    }

    .cls-32 {
      fill: #514b66;
    }</style>
    <linearGradient gradientUnits="userSpaceOnUse" id="Áåçûìÿííûé_ãðàäèåíò_4" x1="1162" x2="1162" y1="985" y2="609">
      <stop offset="0" stop-color="#fff"/>
      <stop offset="1" stop-color="#e8e5ff"/>
    </linearGradient>
    <linearGradient id="Áåçûìÿííûé_ãðàäèåíò_4-2" x1="583.94" x2="583.94" xlink:href="#Áåçûìÿííûé_ãðàäèåíò_4" y1="819.44"
                    y2="456.86"/>
    <linearGradient gradientTransform="translate(331.63 -302.55) rotate(25.57)" id="Áåçûìÿííûé_ãðàäèåíò_4-3" x1="832.42" x2="832.42" xlink:href="#Áåçûìÿííûé_ãðàäèåíò_4"
                    y1="730.36" y2="502.9"/>
    <linearGradient gradientTransform="translate(541.24 -63.46) rotate(45)" id="Áåçûìÿííûé_ãðàäèåíò_4-4" x1="347.23" x2="347.23" xlink:href="#Áåçûìÿííûé_ãðàäèåíò_4"
                    y1="753.72" y2="512.29"/>
    <linearGradient id="Áåçûìÿííûé_ãðàäèåíò_4-5" x1="445.37" x2="669.8" xlink:href="#Áåçûìÿííûé_ãðàäèåíò_4" y1="1638.12"
                    y2="1368.14"/>
    <linearGradient gradientTransform="translate(1510.56 782.4) rotate(76.25)" id="Áåçûìÿííûé_ãðàäèåíò_4-6" x1="-20.08" x2="390.54" xlink:href="#Áåçûìÿííûé_ãðàäèåíò_4"
                    y1="1686.09" y2="1192.12"/>
    <linearGradient gradientTransform="translate(561.67 -79.95) rotate(16.07)" id="Áåçûìÿííûé_ãðàäèåíò_4-7" x1="406.47" x2="817.08" xlink:href="#Áåçûìÿííûé_ãðàäèåíò_4"
                    y1="2040.67" y2="1546.7"/>
    <linearGradient gradientTransform="translate(1444.28 -34.48) rotate(45.22)" id="Áåçûìÿííûé_ãðàäèåíò_4-8" x1="432.31" x2="842.93" xlink:href="#Áåçûìÿííûé_ãðàäèåíò_4"
                    y1="2062.16" y2="1568.19"/>
    <linearGradient gradientTransform="matrix(1, -0.08, 0.08, 1, -89.16, 78.14)" id="Áåçûìÿííûé_ãðàäèåíò_4-9" x1="384.59" x2="795.2" xlink:href="#Áåçûìÿííûé_ãðàäèåíò_4"
                    y1="2022.48" y2="1528.51"/>
    <linearGradient gradientTransform="translate(130.97 48.05) rotate(4.17)" id="Áåçûìÿííûé_ãðàäèåíò_4-10" x1="2.72" x2="413.34" xlink:href="#Áåçûìÿííûé_ãðàäèåíò_4"
                    y1="1705.04" y2="1211.07"/>
    <linearGradient id="Áåçûìÿííûé_ãðàäèåíò_4-11" x1="1745.1" x2="1745.1" xlink:href="#Áåçûìÿííûé_ãðàäèåíò_4" y1="1683.44"
                    y2="1320.86"/>
    <linearGradient id="Áåçûìÿííûé_ãðàäèåíò_4-12" x1="1993.58" x2="1993.58" xlink:href="#Áåçûìÿííûé_ãðàäèåíò_4" y1="1683.04"
                    y2="1320.69"/>
    <linearGradient gradientTransform="translate(1491.68 -631.71) rotate(45)" id="Áåçûìÿííûé_ãðàäèåíò_4-13" x1="1508.38" x2="1508.38" xlink:href="#Áåçûìÿííûé_ãðàäèåíò_4"
                    y1="1683.04" y2="1320.69"/>
    <linearGradient id="Áåçûìÿííûé_ãðàäèåíò_4-14" x1="1592.42" x2="1938.6" xlink:href="#Áåçûìÿííûé_ãðàäèåíò_4" y1="943.94"
                    y2="736.23"/>
  </defs>
  <title>Artboard 2</title>
  <rect class="cls-1" height="1993" width="2226"/>
  <polygon class="cls-2"
           points="1352.63 814.84 1365.55 837.13 1393.71 841.75 1437.87 809.35 1389.25 791 1348.6 790.43 1352.63 814.84"/>
  <ellipse class="cls-3" cx="1162" cy="797" rx="187" ry="188"/>
  <path class="cls-4" d="M944.8,89.76c-4.94-1.4-114.33,20.76-114.33,20.76l82.34,79.66Z"/>
  <path class="cls-5"
        d="M869.24,712.32h-1.13a43.84,43.84,0,0,0-58.56-50.79h0A207.37,207.37,0,0,0,625.16,549.19c-110,0-200,85.61-207,193.83A125.29,125.29,0,0,0,247,859.48c0,3.2.12,6.38.35,9.52H247a79.6,79.6,0,0,0-78.06,64H961.75a129.73,129.73,0,0,0-92.51-220.68Z"/>
  <circle class="cls-6" cx="832.42" cy="579.4" r="16.24" transform="translate(-168.55 416.06) rotate(-25.57)"/>
  <circle class="cls-7" cx="347.23" cy="621.6" r="39.46" transform="translate(-337.84 427.59) rotate(-45)"/>
  <polygon class="cls-8" points="830.47 110.52 928.82 139.94 912.81 190.18 830.47 110.52"/>
  <path class="cls-9"
        d="M741.28,1631.16a78.7,78.7,0,0,1-150.95,36.7c-53,63-98.68,123.72-137.69,182.14H72.86c84.77-193.29,217.58-329.11,336.58-419.55a78.7,78.7,0,1,1,122.1-81.65l4.08-2.37a55.88,55.88,0,0,1,99.25-51.14c23.16-10.38,36.63-15.22,36.63-15.22l68.8,223.54q-7.78,7.92-15.4,15.78a38,38,0,0,1,.54,70.21A78.29,78.29,0,0,1,741.28,1631.16Z"/>
  <circle class="cls-10" cx="295.99" cy="1372.26" r="38.05" transform="translate(-1106.1 1441.87) rotate(-80.67)"/>
  <circle class="cls-11" cx="673.44" cy="1798.98" r="38.05" transform="translate(-587.28 349.69) rotate(-20.5)"/>
  <circle class="cls-12" cx="799.3" cy="1679.46" r="20.93" transform="translate(-998.1 1201.07) rotate(-49.64)"/>
  <path class="cls-13" d="M791.09,1603.38a14.8,14.8,0,1,0-13.62,15.9A14.81,14.81,0,0,0,791.09,1603.38Z"/>
  <circle class="cls-14" cx="221.29" cy="1529.01" r="14.8" transform="translate(-225.83 50.19) rotate(-8.59)"/>
  <polygon class="cls-2"
           points="1162.01 678.84 1192.4 721.5 1353.53 824.94 1361.47 800.71 1227.04 694.76 1217.06 652.61 1162.01 678.84"/>
  <polygon class="cls-15" points="682.75 1209.67 619.18 1267.91 740.29 1503.73 823.92 1484.56 682.75 1209.67"/>
  <path class="cls-16"
        d="M798.57,1099.61l-38.12-9.91L504,1022.91c-18.55-4.82-20.66-29.58-3.26-38.51L725,869.24a327.93,327.93,0,0,1,175.58-35.43l28.92,2.31,215.67,17.25Z"/>
  <path class="cls-16"
        d="M1156.16,1632.65l-264.05,135.6c-14.25,7.32-29.69-5.87-24.07-20.51L980,1456.6l.82-2.07,402.09-138.2-124.88,207.29-19.49,32.3A205.79,205.79,0,0,1,1156.16,1632.65Z"/>
  <path class="cls-17"
        d="M1049.34,1473.46c-68.63,17.83-143.44,29.51-224.82,33.35L665,1196.21c294.32-372.34,676.84-407.31,898.78-389.47,22.32,1.83,43,4.13,61.8,6.75,74.41,10.23,119.48,24.3,119.48,24.3s-23.28,70.3-80.4,165.39C1569.6,1161.28,1380.86,1387.81,1049.34,1473.46Z"/>
  <ellipse class="cls-16" cx="1289.5" cy="1075.5" rx="157.77" ry="151.11"
           transform="translate(-344.86 690.31) rotate(-26.57)"/>
  <ellipse class="cls-1" cx="1290" cy="1075.5" rx="114.01" ry="109.41"
           transform="translate(-357.04 746.79) rotate(-28.53)"/>
  <path class="cls-18"
        d="M1222.31,1153.63c-27.57-53.68-4.51-120.52,51.5-149.29,34-17.47,72.38-16.85,103.44-1.65-32.52-37.81-89.33-49.3-137.48-24.57-56,28.77-79.07,95.6-51.5,149.29a105.73,105.73,0,0,0,47.9,46.76A105.08,105.08,0,0,1,1222.31,1153.63Z"/>
  <path class="cls-19"
        d="M1156.16,1632.65l-264.05,135.6c-14.25,7.32-29.69-5.87-24.07-20.51L980,1456.6l-10,26s84.88,128.74,288,41l-19.49,32.3A205.79,205.79,0,0,1,1156.16,1632.65Z"/>
  <path class="cls-15"
        d="M905.11,1807.08a20,20,0,0,1-13.44-5.14,19.1,19.1,0,0,1-5-21.51l73.76-191.79,5.6,2.16-73.76,191.78a13.23,13.23,0,0,0,3.46,14.9,14.3,14.3,0,0,0,16.44,1.87l227.38-116.77,2.74,5.33L914.86,1804.69A21.39,21.39,0,0,1,905.11,1807.08Z"/>
  <path class="cls-20"
        d="M1049.34,1473.46c-68.63,17.83-143.44,29.51-224.82,33.35L665,1196.21c294.32-372.34,676.84-407.31,898.78-389.47,22.32,1.83,43,4.13,61.8,6.75a19.4,19.4,0,0,1,3.89,15.21c-11.84,1.9-23.66,3.41-35.54,4.7-107.79,11.47-211.62,16.24-317.52,45.69-138.94,38.69-338.11,105.19-404.88,244.51-46,95.85-25.56,216.19,56.93,273.46,30.75,21.37,120.87,76.4,120.87,76.4Z"/>
  <path class="cls-16"
        d="M1664.67,1003.18,1563.79,806.74c110.56,9,181.28,31,181.28,31S1721.79,908.09,1664.67,1003.18Z"/>
  <path class="cls-15" d="M1745.07,838l-166.76-2.78L1563.79,807C1674.35,815.92,1745.07,838,1745.07,838Z"/>
  <path class="cls-19"
        d="M760.45,1089.7,504,1022.91c-18.55-4.82-20.66-29.58-3.26-38.51L725,869.24a327.93,327.93,0,0,1,175.58-35.43l28.92,2.31C750.09,948.74,760.45,1089.7,760.45,1089.7Z"/>
  <path class="cls-15"
        d="M636.3,1031.34l-141-36.73A22.67,22.67,0,0,1,478,974.85a24.29,24.29,0,0,1,13.41-24.32l144.27-74.09,2.74,5.34L494.16,955.87A18.12,18.12,0,0,0,484,974.2a16.8,16.8,0,0,0,12.83,14.6l141,36.74Z"/>
  <path class="cls-1"
        d="M1356.58,1264.87c-2.44,2.79-5.08,5.33-7.71,7.87s-5.42,4.89-8.24,7.19a214.69,214.69,0,0,1-17.53,12.86,153.44,153.44,0,0,1-18.94,10.6c-6.58,3.06-13.23,5.94-19.81,8.93s-13.23,5.82-19.91,8.57-13.47,5.23-20.25,7.67c-13.64,4.73-27.36,9.13-41.31,12.67l-.41-1.24c13.25-5.51,26.39-11.17,39.21-17.46q9.66-4.62,19.14-9.54t18.85-10c6.23-3.44,12.29-7.19,18.32-11s12.18-7.27,18.51-10.51,12.71-6.41,19.23-9.41c3.25-1.52,6.56-3,9.89-4.37s6.7-2.81,10.23-4Z"/>
  <path class="cls-1"
        d="M1605.14,1007.86c-3.71,11.24-8.8,21.75-14.26,32a337.4,337.4,0,0,1-18.21,29.66,258,258,0,0,1-21.53,27.23l-11.83,12.72c-4,4.19-8,8.36-12,12.58s-8,8.36-12,12.47-8,8.31-12.2,12.29l-12.55,11.93-3.13,3-3.22,2.9-6.43,5.78c-17.1,15.47-35.1,29.9-53.44,43.73l-1.2-1.43c16.4-16,32.76-32,48.1-49l5.82-6.27,2.91-3.13,2.83-3.21,11.28-12.85c3.83-4.22,7.41-8.65,11.12-13s7.39-8.66,10.92-13.12,7.13-8.87,10.56-13.41l10.13-13.72c6.67-9.2,13.7-18.09,21-26.82s14.67-17.36,22.26-25.92,15.27-17.1,23.48-25.44Z"/>
  <path class="cls-15"
        d="M1112.2,1492.26l-2.37-7.64c149.21-46.31,282.28-126.27,395.53-237.64l5.6,5.71C1396.8,1365,1262.64,1445.56,1112.2,1492.26Z"/>
  <path class="cls-15"
        d="M1571.82,1188.1l-6.06-5.22a1121.64,1121.64,0,0,0,110.88-153.51c48.67-81,72.89-144.65,78.65-160.67-12.54-3.58-54-14.64-114.85-23-19.38-2.71-40.09-5-61.58-6.73-25.79-2.08-52-3.28-77.86-3.58l.09-8c26.06.3,52.44,1.51,78.41,3.6,21.65,1.78,42.52,4.06,62,6.78,73.87,10.15,119.66,24.31,120.11,24.45a4,4,0,0,1,2.37,2,4,4,0,0,1,.24,3.08c-.24.71-24.08,71.81-80.76,166.19A1129.57,1129.57,0,0,1,1571.82,1188.1Z"/>
  <path class="cls-15"
        d="M791.21,1449.84,676.4,1226.29a4,4,0,0,1,.42-4.31c103.37-130.76,226.44-230.73,365.81-297.13,110.61-52.7,231.46-84.4,359.21-94.24l.61,8c-126.76,9.76-246.66,41.21-356.38,93.48C908.53,997.6,787,1096.12,684.7,1224.93l113.62,221.25Z"/>
  <ellipse class="cls-16" cx="760.5" cy="1346.5" rx="257.96" ry="45.5"
           transform="translate(-530.57 495.29) rotate(-27.15)"/>
  <path class="cls-1"
        d="M734.18,1330.84c-12.48,8.81-25.11,17.24-37.7,25.71-6.25,4.3-12.6,8.43-18.83,12.75s-12.57,8.45-18.78,12.8-12.5,8.54-18.71,12.88-12.42,8.68-18.68,13c-12.44,8.68-24.84,17.43-37.54,25.93a409.23,409.23,0,0,1,34-30.59c2.93-2.44,5.93-4.79,9-7.11s6-4.64,9.1-6.94,6.16-4.49,9.26-6.71,6.22-4.42,9.36-6.59,6.33-4.25,9.53-6.34,6.36-4.2,9.61-6.2,6.49-4,9.75-6,6.55-3.91,9.87-5.79A420.88,420.88,0,0,1,734.18,1330.84Z"/>
  <path class="cls-1"
        d="M901.84,1255.7q-14.79,6.38-29.53,12.54l-29.5,12.39-29.53,12.31c-9.88,4.06-19.75,8.15-29.87,11.82,9.08-5.76,18.47-11,28.05-15.79s19.34-9.27,29.19-13.5c5-2,9.93-4,15-5.93s10.06-3.72,15.17-5.37A251.8,251.8,0,0,1,901.84,1255.7Z"/>
  <path class="cls-21"
        d="M970.85,761s-64.56,57.11,131.59,222.22c0,0-19.1,58.32,100.64,239.92l29.86-2.76-56.8-250.48s-21.1-111.2-84.75-193.75a39.07,39.07,0,0,0-31-15.15Z"/>
  <path class="cls-22" d="M1203.08,1223.18l-4.9,17.55,24.63,7.39s13.79-3.94,20.19,7.88h58.12s-5.28-28.84-70-35.42Z"/>
  <path class="cls-23"
        d="M1213.63,1223.48c-25-51.52-58-127.41-73.5-196.36-7.38-32.76-8.05-51.58-8-59.12h-7.39c-1.51.68-2.74-.55-2.77-2.06V946.22c-90.84-94.31-118.27-171.29-118.54-172.06l5.19-1.8c.26.76,27.53,77.13,118.1,170.84a1.4,1.4,0,0,1,.25,1.91V963h8a4.1,4.1,0,0,1,2,1.08,2.75,2.75,0,0,1,.72,2.08c0,.19-1.39,19.4,7.85,60.25,15.47,68.33,48.22,143.58,73,194.68Z"/>
  <path class="cls-24"
        d="M2030.4,1576.32h-1.14a43.83,43.83,0,0,0-58.55-50.78h0a207.39,207.39,0,0,0-184.4-112.36c-110,0-200,85.61-207,193.83a125.29,125.29,0,0,0-171.22,116.46c0,3.2.13,6.38.36,9.52h-.36a79.62,79.62,0,0,0-78.06,64h792.85a129.73,129.73,0,0,0-92.51-220.68Z"/>
  <path class="cls-25" d="M1993.58,1468.41a25.87,25.87,0,1,0-25.87-25.86A25.86,25.86,0,0,0,1993.58,1468.41Z"/>
  <circle class="cls-26" cx="1508.38" cy="1484.76" r="59.23" transform="translate(-608.09 1501.46) rotate(-45)"/>
  <rect class="cls-23" height="6" transform="translate(450.52 1003.54) rotate(-72.33)" width="226.54" x="798.45"
        y="190.59"/>
  <path class="cls-27"
        d="M1636.73,1247.41q10.65-13.29,20.68-27t19.76-27.55q4.83-6.95,9.57-14c3.19-4.64,6.27-9.37,9.36-14.08q9.3-14.1,18.14-28.47c3-4.74,5.87-9.59,8.78-14.39s5.73-9.67,8.53-14.53l4.25-7.26,4.11-7.35c2.72-4.9,5.51-9.76,8.1-14.73s5.34-9.84,7.91-14.82l7.65-14.94c2.49-5,4.87-10.06,7.33-15.07s4.79-10.09,7.14-15.16c4.79-10.08,9-20.41,13.46-30.62l6.27-15.48,1.56-3.87c.52-1.29,1-2.6,1.47-3.9l2.9-7.82c4-10.38,7.41-20.94,11.07-31.42l4.89-15.89c.79-2.66,1.69-5.29,2.39-8l2.17-8A622.9,622.9,0,0,0,1846.39,763l9.4,15.3-1.52-.65-1.7-.69c-1.15-.47-2.31-.93-3.5-1.39-2.34-.92-4.74-1.8-7.13-2.69l-7.25-2.57-7.32-2.47-7.37-2.36-7.42-2.27c-2.47-.78-5-1.51-7.45-2.22s-5-1.46-7.47-2.15c-20-5.55-40.29-10.18-60.73-14.18A865.23,865.23,0,0,0,1612.64,730c-10.45-.62-20.91-.72-31.39-1l-15.71,0c-2.62,0-5.25-.06-7.87,0l-7.86.2c-21,.36-42,1.8-63,3.58-10.46,1.11-21,2-31.42,3.47l-15.72,2-15.66,2.44c-10.49,1.48-20.86,3.6-31.32,5.42l-3.92.68c-1.31.23-2.6.53-3.9.79l-7.8,1.62q-7.8,1.65-15.65,3.18,7.48-2.79,15-5.49l7.53-2.7c1.26-.45,2.51-.93,3.77-1.34l3.81-1.23,15.26-4.84c2.56-.77,5.08-1.67,7.67-2.34l7.72-2.12,15.48-4.24,15.61-3.71,7.83-1.84c2.6-.63,5.24-1.08,7.86-1.62l15.78-3.14c21.11-3.73,42.38-7,63.8-8.87,10.7-1.2,21.45-1.73,32.2-2.46,10.75-.37,21.52-1,32.3-1,10.78-.18,21.56.14,32.35.35l16.17.72c5.39.26,10.77.74,16.16,1.11s10.76.89,16.14,1.4l8.06.78,8,1,8,1c2.68.32,5.35.76,8,1.13,5.35.79,10.71,1.52,16,2.46,21.36,3.45,42.56,8,63.59,13.44,2.63.68,5.24,1.42,7.87,2.12s5.24,1.42,7.85,2.2,5.23,1.52,7.83,2.33l7.8,2.45,7.79,2.58,7.77,2.71c2.59,1,5.18,1.87,7.78,2.88,1.3.49,2.61,1,3.92,1.53l2,.8,2.14.9,0,0a15.33,15.33,0,0,1,9.37,15.27l-1.3,17.43c-.25,2.9-.44,5.81-.73,8.7l-1.09,8.66c-.75,5.77-1.38,11.56-2.23,17.31l-2.9,17.19c-.86,5.75-2.15,11.41-3.38,17.08l-1.84,8.51-.92,4.25c-.32,1.42-.71,2.81-1.06,4.22l-4.32,16.84c-.68,2.82-1.51,5.59-2.34,8.36l-2.45,8.33-2.51,8.31c-.82,2.77-1.82,5.48-2.73,8.23l-5.57,16.41c-4.1,10.8-7.94,21.69-12.55,32.26l-3.32,8c-.57,1.33-1.1,2.67-1.68,4l-1.78,3.94-7.11,15.74c-2.45,5.2-5,10.34-7.56,15.51s-5.19,10.25-7.85,15.34c-10.59,20.39-22.13,40.23-34.4,59.57-3,4.87-6.21,9.62-9.35,14.4l-4.72,7.17-4.86,7.07c-3.26,4.69-6.5,9.4-9.88,14s-6.64,9.29-10.11,13.83q-10.29,13.7-21,27c-3.61,4.42-7.2,8.84-10.9,13.17l-5.52,6.53-5.63,6.43A617.07,617.07,0,0,1,1636.73,1247.41Z"/>
  <path class="cls-28"
        d="M1160.53,683.46s-61.72-98.24-53-146.19c2.61-14.3,11.47-24.12,30.08-25.56,49.8-3.82,87.09,141.66,87.09,141.66l-24.39,11.44h0Z"/>
  <polygon class="cls-29" points="1173.35 694.76 1224.37 683.46 1218.62 656.22 1163.6 682.02 1173.35 694.76"/>
  <path class="cls-30"
        d="M1160.53,683.46s-61.72-98.24-53-146.19c16.74-.83,36.36-16.76,36.36-16.76s2.08,68.78,56.42,144.3h0Z"/>
  <polygon class="cls-2"
           points="893.41 262.92 874.43 245.49 876.01 216.99 902.96 214.31 929.5 238.03 918.79 260.4 893.41 262.92"/>
  <path class="cls-31"
        d="M1090.62,446.33a52.8,52.8,0,0,0-3.18,17.34c0,5.82,1.55,11.77,5.86,15.59s10.6,5.12,16.67,5.18a80.71,80.71,0,0,0,18.4-2.51,81.35,81.35,0,0,1-18.35,4c-6.22.43-13.12-.19-18.65-4.34a20,20,0,0,1-6.16-8,31,31,0,0,1-2.34-9.72,57.66,57.66,0,0,1,2-19.52Z"/>
  <path class="cls-31"
        d="M1083.56,394.39A25.4,25.4,0,0,0,1065,410.44a24.55,24.55,0,0,0,4.69,23.74c4,4.62,9.64,7.67,14.15,11.85a34.88,34.88,0,0,1,9.85,16.06c1.21,4.32,1.61,9,4,12.77,4.35,6.77,15.24,8.41,21.43,3.22,4.72-3.95,6.21-10.39,6.89-16.42a103.53,103.53,0,0,0-5-45.3c-2.56-7.44-6.21-14.9-12.58-19.75s-16.08-6.3-22.49-1.56Z"/>
  <path class="cls-31" d="M1087.07,439.19s-6.85,40.26,20.5,41.72l-3.18-24.56Z"/>
  <path class="cls-1" d="M1145.62,511.64,1120.27,514l-54.21,278,29.87,28.56,25.85-15.2S1167.55,625.65,1145.62,511.64Z"/>
  <path class="cls-30" d="M1146.62,518.87s34,149.64-24.84,301.75l-16.1-8.08S1159.08,681.72,1146.62,518.87Z"/>
  <path class="cls-2" d="M1152.47,476.76l-8.59,43.75a5.58,5.58,0,0,1-8.22,3.79l-30.12-16.94,16-51.67Z"/>
  <polygon class="cls-31" points="1101.28 393.44 1155.05 375.75 1163.26 409.95 1117.62 432.43 1101.28 393.44"/>
  <path class="cls-2"
        d="M1202.66,420.78c0,.51-.1,1-.15,1.51a99.08,99.08,0,0,1-14.82,41.85,54.62,54.62,0,0,1-8.66,11c-8.59,7.91-29.44,10.81-40.72,7-10.1-3.41-18-11.54-22.94-20.77s-7.09-19.58-8.6-29.82c-8.74.75-17.13-7.48-16.2-15.9s6.74-13.59,19.23-10.71a8,8,0,0,0,1.19-.08c24.17-1.66,43.43-16.47,66.22-22.23,4-1,15.75-5.23,18.93-2.17,1.39,1.31,2.27,3.78,3,5.47a45.54,45.54,0,0,1,3.42,12,79.94,79.94,0,0,1,.76,15.06Q1203.13,416.91,1202.66,420.78Z"/>
  <path class="cls-2"
        d="M1203,402.08c-11.8,1.28-25.36-1.28-41.28-6a69.28,69.28,0,0,0-12.93-2.64c9.24-4.07,18.5-8.27,28.39-10.78,4-1,15.75-5.23,18.93-2.17,1.39,1.31,2.27,3.78,3,5.47a45.54,45.54,0,0,1,3.42,12A41.77,41.77,0,0,1,1203,402.08Z"/>
  <path class="cls-1"
        d="M1106.69,432.69c2.89,19.34,9.68,43.6,30.79,50.67,9,3,17.64,3.64,26.46.2,7.57-2.95,16-6.93,21-13.35.94-1.2-.88-2.77-1.82-1.57-4.63,5.91-12.47,9.68-19.39,12.45-9,3.58-17.88,2.9-26.88-.41-19-7-25.16-30.58-27.79-48.13-.22-1.48-2.64-1.36-2.42.14Z"/>
  <path class="cls-29"
        d="M1202.66,420.78c-18,1-53.89-.38-72.54-4.67-11.08-2.55-16.51-7.17-19.13-11.26,24.17-1.66,43.43-16.47,66.22-22.23,4-1,15.75-5.23,18.93-2.17,1.39,1.31,2.27,3.78,3,5.47a45.54,45.54,0,0,1,3.42,12,79.94,79.94,0,0,1,.76,15.06Q1203.13,416.91,1202.66,420.78Z"/>
  <path class="cls-31" d="M1185.91,368.53a1.57,1.57,0,0,0-.2-3.13,1.57,1.57,0,0,0,.2,3.13Z"/>
  <path class="cls-1"
        d="M1142.53,449.55l31.08-1.78a1.39,1.39,0,0,1,1.48,1.68c-1.19,5-5.83,18.89-20.81,18.07-15.6-.86-13.89-13.28-13-16.92A1.4,1.4,0,0,1,1142.53,449.55Z"/>
  <path class="cls-31"
        d="M1076.32,402.58c0,.34.08.25.12.29s.06,0,.09,0,.1-.09.15-.16a1.25,1.25,0,0,0,.18-.49,2.2,2.2,0,0,0-.11-1.27,5.54,5.54,0,0,0-2.86-2.68,18.15,18.15,0,0,0-5.07-1.58,43.39,43.39,0,0,0-5.79-.54,46.52,46.52,0,0,1,5.49-2.49,22.8,22.8,0,0,1,6.34-1.41,13.59,13.59,0,0,1,7.63,1.58,12.58,12.58,0,0,1,3.6,3,12.22,12.22,0,0,1,1.39,2.11,9.62,9.62,0,0,1,.55,1.21,6.87,6.87,0,0,1,.24.69,4.51,4.51,0,0,1,.22,1Z"/>
  <path class="cls-31"
        d="M1119.12,400.5a48.45,48.45,0,0,0-1.33,6.78,45.18,45.18,0,0,0-.4,7.07c.11,4.7,1,9.56,4.16,13.51a18.71,18.71,0,0,1-5.31-5.53,32.11,32.11,0,0,1-3.35-7.14,51.14,51.14,0,0,1-2-7.68,55.34,55.34,0,0,1-.9-8.06Z"/>
  <path class="cls-31"
        d="M1242.7,367.37c-11.07,23.22-24.33,33.13-41.44,34.95-11.62,1.23-25-1.28-40.67-5.92a68.75,68.75,0,0,0-12.75-2.57c-18.34-1.88-30.56,5.27-37.26,11h0a7.27,7.27,0,0,1-1.14.07c-5.5-1.26-9.7-1-12.71.51l-12-9.7c4.7-80.41,60-47.65,60-47.65l14.67-21.67C1206.4,266.57,1261.26,328.46,1242.7,367.37Z"/>
  <path class="cls-31"
        d="M1086.84,405.82a67.79,67.79,0,0,1-3.47-7.15,61.75,61.75,0,0,1-2.59-7.36,34.45,34.45,0,0,1-1.35-7.68,16.67,16.67,0,0,1,1.09-7.52,15.6,15.6,0,0,0,1.15,7.07,31.25,31.25,0,0,0,3.29,6.27,54.68,54.68,0,0,0,4.28,5.67,59.45,59.45,0,0,0,4.79,5Z"/>
  <path class="cls-31"
        d="M1112.7,399.54a57.4,57.4,0,0,1,22.06-5.78c7.6-.32,15.57,1.12,22.25,5.06l2.49,1.47,2.06,1.3q2.13,1.25,4.38,2.33a65.31,65.31,0,0,0,9.4,3.59,69.45,69.45,0,0,0,20,3,64.64,64.64,0,0,0,10.1-.94,54.24,54.24,0,0,0,9.74-2.82,50.68,50.68,0,0,0,16.91-11.28c9.7-9.88,15.5-23.13,19.06-36.63-2.84,13.66-7.87,27.36-17.4,38.19a53.31,53.31,0,0,1-17.21,12.86,57.08,57.08,0,0,1-10.27,3.59,68.59,68.59,0,0,1-10.77,1.6,74.48,74.48,0,0,1-21.65-2,71.27,71.27,0,0,1-10.44-3.36q-2.57-1.05-5.05-2.34L1155.9,406l-2.12-1.08a33.16,33.16,0,0,0-18.44-3.13,49.33,49.33,0,0,0-18.13,5.75l-.17.1a4.58,4.58,0,1,1-4.57-7.93Z"/>
  <path class="cls-32"
        d="M1220.48,315.89a36,36,0,0,1,16.74,19.27c3,8.28,2.68,17.44.45,25.88a40.4,40.4,0,0,1-5.35,12.07,34.92,34.92,0,0,1-4.28,5.11c-.81.77-1.59,1.58-2.43,2.3l-2.72,2c-7.36,5.18-16.36,7.21-25.09,8a111.11,111.11,0,0,1-26.28-1.38c-4.3-.81-8.63-1.55-12.86-2.66s-8.36-2.12-12.48-2.71l-3.1-.42c-1-.11-2.06-.1-3.09-.15a44.66,44.66,0,0,0-6.13.18,32.3,32.3,0,0,0-11.37,3.52c-7,3.75-11.75,10.74-14.3,18.37l-5.76-2c3.12-8.59,9-16.8,17.56-21.08a37.57,37.57,0,0,1,13.38-3.74,48.66,48.66,0,0,1,6.83,0c1.13.09,2.27.12,3.39.27l3.32.54c4.42.77,8.72,2.1,12.79,3.17s8.31,2.05,12.49,3a107.1,107.1,0,0,0,25.41,2.1c8.4-.48,17-2.18,24-6.84l2.6-1.77c.82-.65,1.56-1.4,2.35-2.09a35.19,35.19,0,0,0,4.18-4.69,39.07,39.07,0,0,0,5.44-11.41c2.41-8.13,3-17,.3-25.21A35.61,35.61,0,0,0,1220.48,315.89Z"/>
  <path class="cls-28"
        d="M1137.72,537.39c0,40.81-51.79,262.47-51.79,262.47-67.09,22.94-118.46,25.33-152.88,5.56,0,0,8.67-74.94,34.51-150.8,19.52-57.33,48.85-115.19,91.66-141.64a96.38,96.38,0,0,1,43.21-14.55S1137.72,496.59,1137.72,537.39Z"/>
  <path class="cls-1"
        d="M997.82,821h-1.4l.15-5c.42,0,42.27,1,87.2-18.12l17-74.91,4.88,1.1-17.24,76.16a2.54,2.54,0,0,1-1.45,1.74C1045.14,820,1005.64,821,997.82,821Z"/>
  <path class="cls-30" d="M1101.28,540.53S1064.51,643.6,967.56,654.62c19.52-57.33,48.85-115.19,91.66-141.64Z"/>
  <polygon class="cls-2"
           points="967.28 484.54 917.08 444 893.41 262.92 918.79 260.4 958.91 419.99 1004.79 436.46 967.28 484.54"/>
  <path class="cls-28" d="M962.45,485l43.24-56.14S1124,498.9,1112,547.4,962.45,485,962.45,485Z"/>
  <polygon class="cls-29" points="953.45 473.37 973.98 425.4 1000.9 435.06 964.51 482.31 953.45 473.37"/>
  <path class="cls-1"
        d="M1110.11,536.43c-2.3-41.61-89.76-95.86-103.8-104.3l-31.87,41.38-4-3.05,33.23-43.14a2.5,2.5,0,0,1,3.23-.63A497.39,497.39,0,0,1,1059.73,463c35.63,28.34,54.26,52.94,55.37,73.12Z"/>
</svg>
