<svg viewBox="0 0 42.76 100.67" xmlns="http://www.w3.org/2000/svg">
  <defs>
    <style>.cls-1 {
      fill: #b84424;
    }

    .cls-2 {
      fill: #4b4c62;
    }

    .cls-3 {
      fill: #606060;
    }

    .cls-4 {
      fill: #232231;
    }

    .cls-5 {
      fill: #4d4d4d;
    }

    .cls-6 {
      fill: #32313f;
    }

    .cls-7 {
      fill: #faa183;
    }

    .cls-8 {
      fill: #1a1a1a;
    }

    .cls-9 {
      fill: #f6cfa5;
    }

    .cls-10 {
      fill: #333;
    }

    .cls-11 {
      fill: gray;
    }

    .cls-12 {
      fill: #161415;
    }

    .cls-13 {
      fill: #434457;
    }

    .cls-14 {
      fill: #21212d;
    }

    .cls-15 {
      fill: #754c24;
    }

    .cls-16 {
      fill: #aa6d38;
    }

    .cls-17 {
      fill: #f77a4d;
    }

    .cls-18 {
      fill: #e94a44;
    }

    .cls-19 {
      fill: #82494b;
    }

    .cls-20 {
      fill: #844d42;
    }

    .cls-21 {
      fill: #401f00;
    }

    .cls-22 {
      fill: #252024;
    }

    .cls-23, .cls-30, .cls-37 {
      fill: #fff;
    }

    .cls-24 {
      fill: #67413d;
    }

    .cls-25 {
      fill: #3b3b40;
    }

    .cls-26 {
      fill: #5d5d65;
    }

    .cls-27 {
      fill: #232326;
    }

    .cls-28 {
      fill: #dde23f;
    }

    .cls-29 {
      fill: #46464d;
    }

    .cls-30 {
      opacity: 0.63;
    }

    .cls-31 {
      fill: #474d52;
    }

    .cls-32 {
      fill: #1c1e20;
    }

    .cls-33 {
      fill: #b2b3b5;
    }

    .cls-34 {
      fill: #383c40;
    }

    .cls-35 {
      fill: #9e9fa1;
    }

    .cls-36 {
      fill: #eaedf0;
    }

    .cls-37 {
      opacity: 0.77;
    }

    .cls-38 {
      fill: #999a9c;
    }

    .cls-39 {
      fill: #2a2d30;
    }

    .cls-40 {
      fill: #6c6d6d;
    }

    .cls-41 {
      fill: #212b20;
    }

    .cls-42 {
      fill: #313c30;
    }

    .cls-43 {
      fill: #cc6b2a;
    }

    .cls-44 {
      fill: #dadadc;
    }

    .cls-45 {
      fill: #a5a6a7;
    }

    .cls-46 {
      fill: #8a8b8c;
    }

    .cls-47 {
      fill: #696b6b;
    }

    .cls-48 {
      fill: #8c5228;
    }

    .cls-49 {
      fill: #d2d2d4;
    }

    .cls-50 {
      fill: #454545;
    }

    .cls-51 {
      fill: #b3b3b3;
      opacity: 0.4;
    }</style>
  </defs>
  <title>Asset 2</title>
  <g data-name="Layer 2" id="Layer_2">
    <g data-name="Layer 1" id="Layer_1-2">
      <path class="cls-1" d="M36.29,56.18s.09.56-.57.55c-1.39,0-.54-1.39-.54-1.39Z"/>
      <path class="cls-1" d="M31.31,63.76A2,2,0,0,1,29,63.69c-1.13-.87,1.57-1.89,1.57-1.89S31.61,63.42,31.31,63.76Z"/>
      <path class="cls-2" d="M16.81,29.61l1.75-.1.79,2.22-1.93.65C17.42,32.28,17.13,31,16.81,29.61Z"/>
      <path class="cls-3"
            d="M19.76,28.46s-.32.76-.84,2.05c-.29.71-1.84,0-1.84,0l-1.23-2.34,3.26-1.33S20.05,28.15,19.76,28.46Z"/>
      <path class="cls-4" d="M29.78,58.59s-4.61,3.55-16.27,7.87L10.8,63.29s10-8.87,15.82-10.68l3.81,1.6Z"/>
      <path class="cls-5" d="M22,54.81a4.54,4.54,0,0,0,2,.47l.08-.8a2.46,2.46,0,0,1-1.49,0Z"/>
      <path class="cls-6"
            d="M35.69,59.33c-.37.57-3.6,4.26-15.37,8.3l-3.13-2.94s10.29-9.4,16.18-11.07c0,0,2.54.35,2.74,1.86A7.38,7.38,0,0,1,35.69,59.33Z"/>
      <path class="cls-5" d="M32.7,56c-.22.44.39,2.11,1,2.79l-.37.18a7.57,7.57,0,0,1-1.44-2.75Z"/>
      <rect class="cls-7" height="5.1" transform="translate(65.1 60.44) rotate(-173.6)" width="3.69" x="32.4"
            y="25.85"/>
      <path class="cls-4" d="M20.29,81.47a36,36,0,0,0-5.66-20L10.8,63.29,17.6,82.4Z"/>
      <path class="cls-8"
            d="M17.36,82.23a.57.57,0,0,1,.39.53,32.11,32.11,0,0,1-1.3,3.95l-.44-1a5.48,5.48,0,0,0,.87-1.6C17,83.47,16.81,82.18,17.36,82.23Z"/>
      <path class="cls-9"
            d="M21.52,81.4a5.11,5.11,0,0,1,.55.64.63.63,0,0,1,0,.74,6.52,6.52,0,0,1-2,1.78,5.47,5.47,0,0,0-1.05,1.11,5.21,5.21,0,0,1-2.3,1.79c-1,.32-1,.24-1,.24s-.61-.43-.53-.75c0,0,.47.2,1.39-.34A36.14,36.14,0,0,0,21.52,81.4Z"/>
      <path class="cls-9" d="M16,85.74a4.08,4.08,0,0,1,.44,1s-.82.41-1.21.24A1.43,1.43,0,0,1,16,85.74Z"/>
      <path class="cls-10"
            d="M16.45,86.71h0l.43-.27h0c.18-.12.4-.28.62-.45.72-.57,1.54-1.57,2-2,.79-.78,2.09-1.71,2.1-2.28a.53.53,0,0,0-.08-.29c-.27-.42-1.09-.79-1.46-1.27A5.86,5.86,0,0,1,17.74,82s-.06.3-.08.44-.12.66-.21,1c0,0,0,.1,0,.14a2.61,2.61,0,0,1-.15.41l-.06.07-.05.06a3.79,3.79,0,0,0-.21.38h0s0,.09-.07.14l-.16.37a.58.58,0,0,1-.05.14,3.3,3.3,0,0,0-.26,1.31.47.47,0,0,0,0,.17Z"/>
      <path class="cls-9" d="M16.9,83.42l.84.09c.09,0,.09.16,0,.15l-.84-.09c-.09,0-.09-.16,0-.15Z"/>
      <path class="cls-9" d="M16.87,84l.67.08c.09,0,.09.16,0,.15l-.66-.08c-.1,0-.09-.16,0-.15Z"/>
      <path class="cls-9" d="M16.7,84.51l.66.1c.09,0,.09.17,0,.15l-.65-.1c-.1,0-.1-.17,0-.15Z"/>
      <path class="cls-9" d="M16.5,85l.6.2c.09,0,0,.17,0,.14l-.6-.19c-.1,0-.05-.18,0-.15Z"/>
      <path class="cls-8"
            d="M5.94,80.43s.33.68-.11,1a5.21,5.21,0,0,1-4.66.45L2,80.73a5,5,0,0,0,1.89,0C4.65,80.48,5.63,79.88,5.94,80.43Z"/>
      <path class="cls-9"
            d="M7.6,83.47a5.64,5.64,0,0,1-.48.76.93.93,0,0,1-.76.36,3,3,0,0,1-1.92-.49A4.26,4.26,0,0,0,3,83.79a3.6,3.6,0,0,1-2.5-1.1C-.13,81.88,0,81.62,0,81.62s.21-.78.56-.91A1.51,1.51,0,0,0,1.33,82C2.23,82.61,7.34,83.56,7.6,83.47Z"/>
      <path class="cls-9" d="M2,80.73a7,7,0,0,1-.86,1.11s-.66-.58-.6-1.13A1.26,1.26,0,0,1,2,80.73Z"/>
      <path class="cls-10"
            d="M1.49,82.22l.09.06h0a5.12,5.12,0,0,0,.63.34,21.92,21.92,0,0,0,2.65.76c1,.32,1.88.71,2.46.47a.83.83,0,0,0,.28-.21c.36-.41.5-1.29.88-1.83A3.1,3.1,0,0,1,6.21,80.7S5,82.26,2,81.89Z"/>
      <path class="cls-9"
            d="M4.87,80.39c.06.39.12.77.19,1.14,0,.13-.17.23-.2.1-.06-.38-.12-.76-.19-1.14,0-.13.17-.23.2-.1Z"/>
      <path class="cls-9"
            d="M4.16,80.63c.07.35.12.69.19,1,0,.15-.19.26-.22.11-.07-.34-.12-.69-.19-1,0-.15.19-.26.22-.11Z"/>
      <path class="cls-9"
            d="M3.44,80.76c.05.34.09.68.15,1,0,.14-.19.25-.21.1-.06-.33-.1-.68-.15-1,0-.15.18-.25.21-.1Z"/>
      <path class="cls-9" d="M2.85,80.84c0,.34,0,.68,0,1,0,.15-.22.21-.21.06,0-.34,0-.68,0-1,0-.16.22-.22.21-.06Z"/>
      <path class="cls-9" d="M2,80.73s.79,1.15-.09,1.87c-.56.45-1.45-.92-1.45-.92Z"/>
      <path class="cls-11"
            d="M38.78,59.28c-.47-.5-1.05-.18-1.24-.86a8.1,8.1,0,0,0,.75-1.57q0-.09,0-.27l1.57.65c.1,1,.36,1.08.22,1.71C39.92,58.79,38.94,59.45,38.78,59.28Z"/>
      <path class="cls-2" d="M38.32,56.58l1.57.65c.36-1.57.73-3.13.77-3.23l-2-.27S38.41,55.76,38.32,56.58Z"/>
      <path class="cls-2"
            d="M26.12,30.74a17,17,0,0,0-6.25,9.05l1.43,1.47c6.76-5.53,8.05-11.48,8.14-11.86a0,0,0,0,1,0,0l-1.15.37a6.45,6.45,0,0,0-2.17,1Z"/>
      <path class="cls-6"
            d="M24.39,52.56c3.47,2.72,11.71,1.3,11.71,1.3a8.52,8.52,0,0,1,0-1.77l-.07.11a44.65,44.65,0,0,1-.94-10.13,15,15,0,0,1,4.59-10.5,6.39,6.39,0,0,0-2.91-2.31c-3.21-1.51-7.8-.13-9,1.22-3.41,3.78-2.2,8.81-1.48,11.86S24.39,52.56,24.39,52.56Z"/>
      <path class="cls-12" d="M32.36,28.66a8.9,8.9,0,0,1,1.82-.05A6.9,6.9,0,0,1,36,29l-4.39,6,.73-6.5Z"/>
      <polygon class="cls-13"
               points="31.85 34.99 32.56 28.66 31.46 28.85 30.61 35.36 35.5 53.95 36.29 53.82 36.3 52.54 31.85 34.99"/>
      <path class="cls-2"
            d="M17.08,30.93l1.75-.22c.19.31.4.67.62,1.08h0A25.17,25.17,0,0,1,22,40.66s-.62.79-1.29.79a1.35,1.35,0,0,1-1-.61s-2-5.4-2.19-8c0-.09,0-.18,0-.28v0c-.08-.48-.21-1.05-.32-1.56Z"/>
      <polygon class="cls-2"
               points="38.29 53.18 38.29 53.2 38.29 53.21 38.34 55.3 38.43 55.33 39.97 55.84 40.08 55.87 40.3 54.92 40.56 53.8 38.29 53.18"/>
      <polygon class="cls-2"
               points="17.09 30.93 18.83 30.71 18.98 30.7 19.45 31.79 19.45 31.79 17.41 32.52 17.41 32.5 17.09 30.94 17.09 30.93"/>
      <path class="cls-14"
            d="M35.12,42.07a46.59,46.59,0,0,0,1,10.37l0-.35a31.86,31.86,0,0,1,1-5c1.28-4.86,2.74-11.16,2.88-14.38a2.14,2.14,0,0,0-.27-1.14A15,15,0,0,0,35.12,42.07Z"/>
      <path class="cls-14"
            d="M29.93,29.23S28.39,34.8,28.46,36s5.42,18.14,5.42,18.14L35.12,54S29.5,35,29.51,34.75,29.93,29.23,29.93,29.23Z"/>
      <polygon class="cls-2" points="31.26 28.85 29.93 29.23 29 35.3 35.09 54 35.17 53.97 30.4 35.36 31.26 28.85"/>
      <path class="cls-2"
            d="M38,34.6a17,17,0,0,0,.88,11l2,.23c3.13-9.28-1-13.88-1.13-14.23a0,0,0,0,1,0,0l-.72.9A6.47,6.47,0,0,0,38,34.58Z"/>
      <path class="cls-2"
            d="M38.72,45.26a50,50,0,0,0-.3,7.94h0c0,.13,0,.25,0,.37a15.46,15.46,0,0,1,.09,1.75l1.54.51c.1-.26.22-.57.32-.92a23.88,23.88,0,0,0,.61-10Z"/>
      <path class="cls-15"
            d="M24.37,52.44a19.52,19.52,0,0,0,11.77,1.37l-.06,1.32a21.13,21.13,0,0,1-12.14-1.36A7.14,7.14,0,0,1,24.37,52.44Z"/>
      <rect class="cls-16" height="1.81" transform="translate(47 113.56) rotate(-169.33)" width="2.53" x="27.54"
            y="53.68"/>
      <path class="cls-7" d="M36,29l-1.72-1.1-1.92.7A2.76,2.76,0,0,0,36,29Z"/>
      <path class="cls-6" d="M7.54,82.18A34.78,34.78,0,0,0,21.12,66.35l-4-1.58L5.85,81.05Z"/>
      <polygon class="cls-12" points="40.58 21.98 42.08 25.82 40.73 26.48 39.67 22.26 40.58 21.98"/>
      <polygon class="cls-12" points="39.22 21.99 38.84 26.09 40.33 26.35 40.18 22 39.22 21.99"/>
      <path class="cls-17"
            d="M29.31,19.61a1.09,1.09,0,0,0-1.58.11c-.7.86.06,3,.62,3.23s1,.06,1.07-.09S29.31,19.61,29.31,19.61Z"/>
      <path class="cls-7"
            d="M30.71,13.36a5.24,5.24,0,0,1,7.15,0c2,1.81,2.37,4.61,2.31,6.86a7.72,7.72,0,0,1-2.52,6.2,5.3,5.3,0,0,1-6.94.08c-2-1.66-2.37-4.23-2.3-6.28C28.34,18,28.74,15.17,30.71,13.36Z"/>
      <path class="cls-17" d="M32.09,22H30.85S31.35,23.12,32.09,22Z"/>
      <path class="cls-17"
            d="M32.43,26.49A1,1,0,0,1,31,26.42c-.07-.09.05-.23.13-.14a.81.81,0,0,0,1.23.08c.08-.08.2.05.12.13Z"/>
      <path class="cls-18"
            d="M29.6,24.6c0,.15.11.26.25.4h3.77c.14-.14.24-.25.24-.4s-.1-.26-.24-.6H29.85C29.71,24.34,29.6,24.45,29.6,24.6Zm.25.13Z"/>
      <polygon class="cls-19" points="36.04 18.51 34.45 18.66 34.51 19.2 36.01 18.89 36.04 18.51"/>
      <polygon class="cls-19" points="28.25 18.51 29.85 18.66 29.78 19.2 28.28 18.89 28.25 18.51"/>
      <path class="cls-20" d="M35.31,14.41l3,4.5v2.67l1.41-.14c0-.42.25-1,.24-1.38.06-2.07.21-4.75-2.14-6.63Z"/>
      <path class="cls-20" d="M28.45,18.45l1.12-1.14.2-2.85A8.67,8.67,0,0,0,28.45,18.45Z"/>
      <path class="cls-21" d="M39.27,14.72a9.74,9.74,0,0,0-7.33.74l-2.2-1S34.36,7.48,39.27,14.72Z"/>
      <path class="cls-17"
            d="M39.08,20.36a1,1,0,0,1,.6-.91.94.94,0,0,1,1.16.27c.7.86-.06,3-.61,3.23a.81.81,0,0,1-1-.11A8.29,8.29,0,0,1,39.08,20.36Z"/>
      <path class="cls-22"
            d="M40.46,19.16c-2.6-.24-9.94.35-12-.24a23,23,0,0,0,.05,3.14c.73-.06,1.58-.18,2.19-.23.27,0,.54-.42.81-.42s1,.42,1.26.42c1.61,0,4.63.11,6.37.23,0-.46,0-1.4,0-1.72a1,1,0,0,1,1.37-.88C40.46,19.29,40.46,19.16,40.46,19.16Z"/>
      <path class="cls-23"
            d="M30.64,20.07l-2.23-.52s0,.2,0,.86a1.35,1.35,0,0,0,.9.76C30.22,21.43,30.64,20.07,30.64,20.07Z"/>
      <path class="cls-24" d="M28.64,20.25c0,.36.2.64.45.64s.45-.28.45-.64-.2-.63-.45-.63S28.64,19.9,28.64,20.25Z"/>
      <path class="cls-8" d="M28.84,20.25c0,.25.14.46.32.46s.31-.21.31-.46-.14-.45-.31-.45S28.84,20,28.84,20.25Z"/>
      <path class="cls-23" d="M28.64,20c0,.18.1.32.23.32s.22-.14.22-.32-.1-.32-.22-.32S28.64,19.81,28.64,20Z"/>
      <path class="cls-23" d="M33,20.07l3.41-.56s.17,1.33-1.51,1.66A1.81,1.81,0,0,1,33,20.07Z"/>
      <path class="cls-24" d="M35.15,20.47a.64.64,0,1,1-.63-.64A.63.63,0,0,1,35.15,20.47Z"/>
      <path class="cls-8" d="M34.87,20.47a.45.45,0,1,1-.45-.46A.45.45,0,0,1,34.87,20.47Z"/>
      <path class="cls-23"
            d="M34.33,20.19a.32.32,0,0,1-.32.32.32.32,0,0,1-.32-.32.32.32,0,0,1,.32-.32A.33.33,0,0,1,34.33,20.19Z"/>
      <path class="cls-25"
            d="M13.43,18.33a.4.4,0,0,1,.28-.5.41.41,0,0,1,.5.27l1.09,3.36a.44.44,0,0,1,0,.32A.39.39,0,0,1,15,22l-.16.05a.38.38,0,0,1-.31,0,.39.39,0,0,1-.2-.25Z"/>
      <rect class="cls-26" height="8.63" rx="0.29" ry="0.29" transform="translate(-6.44 5.86) rotate(-16.52)" width="4.16" x="14.89"
            y="20.79"/>
      <rect class="cls-25" height="0.19" transform="translate(38.45 35.63) rotate(163.48)" width="1.61" x="15.83"
            y="20.51"/>
      <rect class="cls-27" height="2.22" transform="translate(38.53 40.35) rotate(163.48)" width="3.07" x="14.8"
            y="21.86"/>
      <rect class="cls-28" height="1.15" transform="translate(38.28 39.8) rotate(163.48)" width="2.42" x="15.04"
            y="22.11"/>
      <rect class="cls-29" height="3.67" transform="translate(42.1 48.08) rotate(163.48)" width="2.89" x="16.12"
            y="25.26"/>
      <rect class="cls-29" height="0.58" transform="translate(42.21 42.21) rotate(163.48)" width="0.74" x="17.67"
            y="23.88"/>
      <rect class="cls-29" height="0.58" transform="translate(40.66 42.93) rotate(163.47)" width="0.74" x="16.84"
            y="24.13"/>
      <rect class="cls-29" height="0.58" transform="translate(39.11 43.65) rotate(163.49)" width="0.74" x="16.02"
            y="24.37"/>
      <rect class="cls-29" height="0.58" transform="translate(37.56 44.36) rotate(163.47)" width="0.74" x="15.19"
            y="24.62"/>
      <polygon class="cls-30" points="16.29 23.27 17.33 22.96 17.5 22.64 17.25 21.79 17.06 21.84 16.29 23.27"/>
      <polygon class="cls-30" points="15.07 22.95 15.25 23.57 15.68 23.45 16.45 22.02 15.41 22.33 15.07 22.95"/>
      <path class="cls-11" d="M14.3,26a.41.41,0,0,1,.3-.64c.48-.07,1.08.08,1.08.51S14.7,26.48,14.3,26Z"/>
      <path class="cls-11"
            d="M14.72,26.91a.48.48,0,0,1-.26-.45c0-.16.06-.32.24-.35.4-.09,1,0,1,.25s0,.4-.12.49A1.49,1.49,0,0,1,14.72,26.91Z"/>
      <path class="cls-11"
            d="M15,27.53a.47.47,0,0,1-.26-.47c0-.13.07-.25.22-.25.38,0,.85,0,.9.32s-.09.52-.38.5A1.52,1.52,0,0,1,15,27.53Z"/>
      <path class="cls-11"
            d="M15.2,28.15a.48.48,0,0,1-.24-.46c0-.07,0-.13.1-.14s.8-.07.88.23,0,.45-.31.44A1.61,1.61,0,0,1,15.2,28.15Z"/>
      <path class="cls-11"
            d="M18.93,24.21a.76.76,0,0,0-.21,1A2.15,2.15,0,0,1,19,26.48a1.94,1.94,0,0,0-.22,1.17c.11.62.92,1.14.92,1.14h0a.73.73,0,0,0,.67-.85,16.29,16.29,0,0,0-.54-2.62A7,7,0,0,0,18.93,24.21Z"/>
      <path class="cls-31"
            d="M39.47,59.29l-1.28.06.5,2.51,1.48-.78a.91.91,0,0,0,.35-1.29.1.1,0,0,1,0,0A1.19,1.19,0,0,0,39.47,59.29Z"/>
      <path class="cls-32"
            d="M38.64,59.09l-1.76.08.68,3.46,2-1.08a1.24,1.24,0,0,0,.47-1.77l0-.07A1.63,1.63,0,0,0,38.64,59.09Z"/>
      <path class="cls-31"
            d="M42.68,63.31l-.33,1.23L40,63.5l1.09-1.27a.9.9,0,0,1,1.33,0l0,0A1.22,1.22,0,0,1,42.68,63.31Z"/>
      <path class="cls-32"
            d="M42.7,64.16l-.47,1.71L39,64.43l1.51-1.76a1.24,1.24,0,0,1,1.83-.07l.06.07A1.66,1.66,0,0,1,42.7,64.16Z"/>
      <rect class="cls-33" height="1.17" transform="translate(63.85 -6.81) rotate(51.36)" width="1.91" x="38.05"
            y="62.41"/>
      <path class="cls-34"
            d="M38.61,61h1.31l.28.2a1.7,1.7,0,0,1,.31.29l.22.28a2,2,0,0,1,.22.37l.13.31-.25,1.32-1.45-.26-.82-1.13Z"/>
      <path class="cls-35" d="M37.6,62.68l-1.06-.78,1.13-1.55,1.06.77A1,1,0,0,1,39,62.46h0A1,1,0,0,1,37.6,62.68Z"/>
      <path class="cls-32" d="M37.92,62.4a1.82,1.82,0,1,1,.29-2.55A1.81,1.81,0,0,1,37.92,62.4Z"/>
      <path class="cls-33" d="M37.74,62.17A1.52,1.52,0,1,1,38,60,1.52,1.52,0,0,1,37.74,62.17Z"/>
      <path class="cls-36" d="M37.54,61.92a1.2,1.2,0,1,1,.19-1.69A1.2,1.2,0,0,1,37.54,61.92Z"/>
      <path class="cls-37"
            d="M37.49,61.86a.42.42,0,0,1-.6-.07A.43.43,0,0,1,37,61.2a.42.42,0,0,1,.59.06A.43.43,0,0,1,37.49,61.86Z"/>
      <path class="cls-35" d="M39,64.41l.52,1.22,1.77-.77-.52-1.21a1,1,0,0,0-1.26-.5h0A1,1,0,0,0,39,64.41Z"/>
      <path class="cls-32" d="M39.33,64.16a1.82,1.82,0,1,0,2.56.29A1.83,1.83,0,0,0,39.33,64.16Z"/>
      <path class="cls-33" d="M39.52,64.4a1.52,1.52,0,1,0,2.13.23A1.51,1.51,0,0,0,39.52,64.4Z"/>
      <path class="cls-36" d="M39.71,64.64a1.21,1.21,0,1,0,1.7.19A1.21,1.21,0,0,0,39.71,64.64Z"/>
      <path class="cls-37"
            d="M40.62,65.77a.42.42,0,0,0-.07.6.43.43,0,0,0,.6.06.42.42,0,0,0,.06-.59A.43.43,0,0,0,40.62,65.77Z"/>
      <path class="cls-38" d="M39,63.8a.65.65,0,0,1-.81-1,.64.64,0,0,1,.91.1A.65.65,0,0,1,39,63.8Z"/>
      <path class="cls-33" d="M38.9,63.62a.43.43,0,0,1-.6-.06A.43.43,0,0,1,39,63,.43.43,0,0,1,38.9,63.62Z"/>
      <polygon class="cls-39" points="40.47 61.48 38.8 62.67 39.29 61.52 40.27 61.29 40.47 61.48"/>
      <polygon class="cls-39" points="40.79 61.89 39.27 63.26 40.49 63.03 40.94 62.13 40.79 61.89"/>
      <rect class="cls-40" height="4" transform="translate(47.58 64) rotate(-180)" width="1" x="23.29" y="30"/>
      <path class="cls-41" d="M21.06,55.5a10.87,10.87,0,0,1,1.36,4.61l1.66-1.64s-.27-2.86-1.31-4.17Z"/>
      <path class="cls-42" d="M22.31,60.18c.13-.08,6.55-1.13,9,3.58L33,62.14a8.72,8.72,0,0,0-8.69-3.55Z"/>
      <path class="cls-42" d="M37,54.09l-.66,2.09s-7.39,0-12.27-2.63l.63-1.46S27,53.8,37,54.09Z"/>
      <path class="cls-42"
            d="M26.92,54.18l1.64.46s-3,3.68-3.12,4.32c0,0-2.14.91-3,1.15C22.42,60.11,26.29,54.54,26.92,54.18Z"/>
      <polygon class="cls-43" points="37.7 29.72 30.61 43.93 30.19 46.34 39.19 30.86 38.53 30.27 37.7 29.72"/>
      <polygon class="cls-43" points="28.46 29.68 30.97 43.68 30.19 46.34 27.25 30.1 28.46 29.68"/>
      <path class="cls-42" d="M29.9,44.55l1.46.13s.2,5.87-2.42,9.21l-1.75-.42A17.42,17.42,0,0,0,29.9,44.55Z"/>
      <path class="cls-44" d="M28.63,46.15l3.42.67.5-2.31-3.47-.42Zm.85-.49.14-1,2.15.3-.21.86Z"/>
      <polygon class="cls-45" points="32.98 44.38 29.67 43.98 29.08 44.09 32.55 44.51 32.98 44.38"/>
      <polygon class="cls-46" points="32.05 46.81 32.43 46.73 32.98 44.38 32.55 44.51 32.05 46.81"/>
      <polygon class="cls-46" points="29.48 45.66 29.79 45.49 29.9 44.75 29.62 44.7 29.48 45.66"/>
      <polygon class="cls-47" points="29.79 45.49 31.61 45.72 31.57 45.86 29.48 45.66 29.79 45.49"/>
      <path class="cls-44" d="M26.13,54l3,.59.44-2-3.07-.37Zm.75-.43.13-.85,1.9.26-.18.76Z"/>
      <polygon class="cls-45" points="29.98 52.46 27.05 52.1 26.53 52.2 29.6 52.57 29.98 52.46"/>
      <polygon class="cls-46" points="29.16 54.61 29.49 54.53 29.98 52.46 29.6 52.57 29.16 54.61"/>
      <polygon class="cls-46" points="26.88 53.59 27.16 53.44 27.25 52.79 27.01 52.74 26.88 53.59"/>
      <polygon class="cls-47" points="27.16 53.44 28.76 53.64 28.73 53.76 26.88 53.59 27.16 53.44"/>
      <polygon class="cls-1" points="22.73 37.47 24.65 52.09 24.02 53.55 21.99 38.2 22.57 37.32 22.73 37.47"/>
      <polygon class="cls-43"
               points="23.61 38.03 36.95 54.09 36.29 56.18 22.75 38.2 23.17 37.53 23.63 37.56 23.61 38.03"/>
      <polygon class="cls-1"
               points="22.76 37.57 22.43 37.97 23.04 54.42 21.29 55.5 21.51 39.04 21.69 37.92 22.8 37.32 22.76 37.57"/>
      <path class="cls-44" d="M24.34,39l.37-5L21.29,34v5ZM22.5,35l1.29-.06L23.61,38,22.2,38Z"/>
      <polygon class="cls-45" points="24.99 33.34 24.65 38.17 24.32 38.97 24.69 33.92 24.99 33.34"/>
      <polygon class="cls-46" points="21.27 33.99 21.5 33.48 24.99 33.34 24.69 33.92 21.27 33.99"/>
      <polygon class="cls-46" points="22.2 37.97 22.53 37.57 23.61 37.63 23.61 38.03 22.2 37.97"/>
      <polygon class="cls-47" points="22.53 37.57 22.71 34.93 22.5 34.95 22.2 37.97 22.53 37.57"/>
      <polygon class="cls-1" points="22.54 37.3 23 37.57 22.11 39.28 21.28 39.04 22.21 37.57 22.54 37.3"/>
      <polygon class="cls-43" points="33.02 62.14 23.17 37.53 22.67 37.38 22.9 38.99 31.32 63.76 33.02 62.14"/>
      <polygon class="cls-45"
               points="23.22 35.68 23.76 35.2 23.79 34.74 23.43 34.77 23.6 30.33 24.1 29.89 23.94 33.38 24.28 33.36 24.41 29.14 23.44 29.55 23.22 35.68"/>
      <polygon class="cls-44" points="24.42 29.14 23.36 29.05 21.96 29.38 23.45 29.55 24.42 29.14"/>
      <path class="cls-48" d="M23.59,31.44a.52.52,0,0,0,.67-.47l.16-4,0-.95h0s-.25.29-.78,0v.69Z"/>
      <path class="cls-49" d="M23.47,29.55c0,.22-.25,6.13-.25,6.13l-1,.08L22,29.38Z"/>
      <path class="cls-46" d="M24.9,25.68a1.37,1.37,0,0,0-1.7-.2A1.78,1.78,0,0,0,24.9,25.68Z"/>
      <path class="cls-48" d="M25.83,0,24.46,26h0s-.25.3-.79,0l.55-26Z"/>
      <path class="cls-48" d="M23.72,29.33a2.14,2.14,0,0,0-1.34,0s-.26-1,1.31-.59Z"/>
      <path class="cls-49"
            d="M24.9,25.68c.09,0-.32,3.06-.32,3.06a2.94,2.94,0,0,1-1.3,0l-.08-3.21A2.2,2.2,0,0,0,24.9,25.68Z"/>
      <path class="cls-11"
            d="M39.71,61.53c0,.08.11.12.25,0a.4.4,0,0,0,.15-.12,1,1,0,0,0,.15-.25.23.23,0,0,0,.12,0c.43,0,.6-1.61.57-1.69a11.48,11.48,0,0,0-1.4-2.17l-1.68.42c0,.1-.71,1.37-.71,1.37a2.52,2.52,0,0,1,.83.31,1.41,1.41,0,0,1,.46,1.63c-.21.59.06.83.31.82A.38.38,0,0,0,39,61.8a.77.77,0,0,0,.1-.18.23.23,0,0,0,.13.18.33.33,0,0,0,.31,0A.58.58,0,0,0,39.71,61.53Z"/>
      <path class="cls-50" d="M39,61.8a.77.77,0,0,0,.1-.18l.18-1.12s-.35,1.12-.51,1.41A.38.38,0,0,0,39,61.8Z"/>
      <path class="cls-50" d="M39.53,61.77a.58.58,0,0,0,.18-.24l.13-1.21Z"/>
      <path class="cls-50" d="M40.11,61.46a1,1,0,0,0,.15-.25l.08-1.1S40.18,61,40.11,61.46Z"/>
      <path class="cls-51"
            d="M3.45,99.77c0,.5,6.14.9,13.72.9s13.72-.4,13.72-.9-3.65-1.06-11.23-1.06S3.45,99.27,3.45,99.77Z"/>
    </g>
  </g>
</svg>
