<svg viewBox="0 0 56.26 70.84" xmlns="http://www.w3.org/2000/svg">
  <defs>
    <style>.cls-1 {
      fill: #ccc;
      opacity: 0.4;
    }

    .cls-2 {
      fill: #4d4d4d;
    }

    .cls-3 {
      fill: #4b4c62;
    }

    .cls-4 {
      fill: #32313f;
    }

    .cls-5 {
      fill: #161415;
    }

    .cls-6 {
      fill: #f77a4d;
    }

    .cls-7 {
      fill: #faa183;
    }

    .cls-29, .cls-8 {
      fill: #fff;
    }

    .cls-9 {
      fill: #82494b;
    }

    .cls-10 {
      fill: #844d42;
    }

    .cls-11 {
      fill: #401f00;
    }

    .cls-12 {
      fill: #252024;
    }

    .cls-13 {
      fill: #67413d;
    }

    .cls-14 {
      fill: #1a1a1a;
    }

    .cls-15 {
      fill: #f6cfa5;
    }

    .cls-16 {
      fill: #333;
    }

    .cls-17 {
      fill: #282736;
    }

    .cls-18 {
      fill: #323348;
    }

    .cls-19 {
      fill: #21212d;
    }

    .cls-20 {
      fill: #35364e;
    }

    .cls-21 {
      fill: #754c24;
    }

    .cls-22 {
      fill: #aa6d38;
    }

    .cls-23 {
      fill: #a397ad;
    }

    .cls-24 {
      fill: #cabbc6;
    }

    .cls-25 {
      fill: #29abe2;
    }

    .cls-26 {
      fill: #00857a;
    }

    .cls-27 {
      fill: gray;
    }

    .cls-28 {
      fill: #626262;
    }

    .cls-29 {
      opacity: 0.2;
    }</style>
  </defs>
  <title>Asset 4</title>
  <g data-name="Layer 2" id="Layer_2">
    <g data-name="Layer 1" id="Layer_1-2">
      <path class="cls-1"
            d="M39.52,68.77c0,.55,3.74,1,8.37,1s8.37-.44,8.37-1S54,67.6,49.4,67.6,39.52,68.22,39.52,68.77Z"/>
      <path class="cls-2"
            d="M10.64,34.78s.12.23.84.25A3.63,3.63,0,0,0,13,34.67a6,6,0,0,0-.46-3c-.63-.92-2.73.38-2.73.38S10.05,34.28,10.64,34.78Z"/>
      <path class="cls-3"
            d="M21.76,18.37a16,16,0,0,0-6.15,8.28l1.29,1.42c6.52-4.95,7.92-10.49,8-10.84v0l-1.31-.38a9.05,9.05,0,0,0-1.83,1.53Z"/>
      <path class="cls-4" d="M39.5,36.44s.24,6-4.5,16.63l-4,.65s.12-13.45,2.73-18.56l5.67.32Z"/>
      <path class="cls-2" d="M36.66,39c-.13.44.72,1.88,1.43,2.39l-.3.23S36.18,40.18,36,39.3Z"/>
      <path class="cls-4" d="M34.08,41.37s-3.72,4-13.85,9.77l-3-2.61s7.89-9.64,13-12.21l3,1.21Z"/>
      <path class="cls-2" d="M26.34,39.06a4.35,4.35,0,0,0,1.89.13l-.05-.75a2.35,2.35,0,0,1-1.38.24Z"/>
      <polygon class="cls-5" points="29.78 8.65 31.95 11.85 30.85 12.74 29 9.09 29.78 8.65"/>
      <polygon class="cls-5" points="28.61 9.26 29.12 13.09 30.53 13.02 29.49 9.07 28.61 9.26"/>
      <path class="cls-6"
            d="M18.94,8.69a1,1,0,0,0-1.42.43c-.47.93.68,2.74,1.24,2.83s.94-.16,1-.31S18.94,8.69,18.94,8.69Z"/>
      <path class="cls-7"
            d="M18.92,2.68a4.9,4.9,0,0,1,6.54-1.49C27.65,2.43,28.59,4.92,29,7a7.24,7.24,0,0,1-1,6.21,5,5,0,0,1-6.33,1.51,7.19,7.19,0,0,1-3.42-5.26C17.71,7.39,17.49,4.74,18.92,2.68Z"/>
      <path class="cls-8" d="M24.28,10.74a2.26,2.26,0,0,1-1.4,2.57,2.25,2.25,0,0,1-2.37-1.71Z"/>
      <path class="cls-6" d="M21.92,10l-1.14.26S21.47,11.2,21.92,10Z"/>
      <path class="cls-9" d="M19.58,7.47,19.35,8A2.63,2.63,0,0,0,18,7.65l.09-.35A2.73,2.73,0,0,1,19.58,7.47Z"/>
      <path class="cls-9" d="M23,6.84l.49.29a2.58,2.58,0,0,1,.89-1.07l-.28-.23A2.73,2.73,0,0,0,23,6.84Z"/>
      <path class="cls-10" d="M23.8,2.54,27.46,6,28,8.48l1.27-.42c-.06-.39,0-1-.07-1.31-.38-1.91-.8-4.4-3.34-5.62Z"/>
      <path class="cls-10" d="M17.92,7.77l.78-1.28-.41-2.65A8.14,8.14,0,0,0,17.92,7.77Z"/>
      <path class="cls-11"
            d="M18.47,3.62l2.27.45s2.82-2.8,5.49-.77C24.59-.4,21.94-.61,19.85,1.4A7.3,7.3,0,0,0,18.47,3.62Z"/>
      <path class="cls-11" d="M27,2.1a9.18,9.18,0,0,0-6.56,2.2l-2.2-.42S21-3.5,27,2.1Z"/>
      <path class="cls-6"
            d="M28,7.34a.9.9,0,0,1,.36-1,.88.88,0,0,1,1.11,0c.83.64.58,2.77.12,3.09a.78.78,0,0,1-.9.1A7.72,7.72,0,0,1,28,7.34Z"/>
      <path class="cls-12"
            d="M29,5.92C26.62,6.24,20,8.31,18,8.21a21.34,21.34,0,0,0,.71,2.86c.65-.21,1.4-.49,1.95-.66.24-.08.41-.5.65-.56s1,.18,1.24.13c1.48-.32,4.26-.87,5.88-1.12-.13-.41-.33-1.27-.38-1.57A1,1,0,0,1,29.1,6.2C29.07,6,29,5.92,29,5.92Z"/>
      <path class="cls-8" d="M20.24,8.8H18.1s0,.18.17.79a1.27,1.27,0,0,0,1,.51C20.15,10.13,20.24,8.8,20.24,8.8Z"/>
      <path class="cls-13" d="M18.46,9.39c.07.32.31.54.54.49s.35-.36.28-.68-.32-.54-.55-.49S18.38,9.06,18.46,9.39Z"/>
      <path class="cls-14" d="M18.64,9.35c.05.22.22.38.38.34s.25-.25.2-.48-.23-.38-.39-.34S18.58,9.12,18.64,9.35Z"/>
      <path class="cls-8" d="M18.4,9.14c0,.16.16.27.27.24s.18-.18.14-.34-.16-.27-.27-.24S18.36,9,18.4,9.14Z"/>
      <path class="cls-8" d="M22.44,8.3l3-1.22a1.48,1.48,0,0,1-1,1.83A1.7,1.7,0,0,1,22.44,8.3Z"/>
      <path class="cls-13" d="M24.46,8.22a.6.6,0,0,1-1.17.27.6.6,0,1,1,1.17-.27Z"/>
      <path class="cls-14" d="M24.2,8.28a.43.43,0,0,1-.32.51.42.42,0,0,1-.5-.32.42.42,0,1,1,.82-.19Z"/>
      <path class="cls-8" d="M23.64,8.15a.28.28,0,0,1-.22.35.3.3,0,1,1-.13-.58A.28.28,0,0,1,23.64,8.15Z"/>
      <rect class="cls-7" height="4.78" transform="translate(55.98 18.74) rotate(157.62)" width="3.46" x="24.41"
            y="12.52"/>
      <path class="cls-7"
            d="M18,66.56s.52,1.26.73,1.84-.69,1.7-1.44,1.34c-1.47-.71-2.71.9-3.86.64-.54-.12-1.16.52-1.51,0s.43-1.08,1-.95,2.91-1.42,3.28-2.54Z"/>
      <path class="cls-4" d="M18.33,67.74a33.65,33.65,0,0,0,2.78-19.3l-4,.11-1.46,19Z"/>
      <path class="cls-14"
            d="M15.25,66.91a.55.55,0,0,1,0,.62,29,29,0,0,1-3,2.47l.14-1a5.21,5.21,0,0,0,1.49-.82C14.36,67.73,14.84,66.61,15.25,66.91Z"/>
      <path class="cls-15"
            d="M19,68.35a5.52,5.52,0,0,1,.13.78.63.63,0,0,1-.37.6,6.17,6.17,0,0,1-2.46.41,5.43,5.43,0,0,0-1.39.35,4.77,4.77,0,0,1-2.72.26c-.94-.24-.9-.3-.9-.3s-.26-.65,0-.87c0,0,.27.4,1.27.43A32.81,32.81,0,0,0,19,68.35Z"/>
      <path class="cls-15" d="M12.42,69a3.75,3.75,0,0,1-.14,1s-.86-.08-1.08-.42A1.37,1.37,0,0,1,12.42,69Z"/>
      <path class="cls-16"
            d="M12.28,70h0s.22,0,.48,0h0c.2,0,.45,0,.71,0a21.3,21.3,0,0,0,2.6-.59c1-.21,2.51-.3,2.81-.74a.47.47,0,0,0,.07-.27c0-.47-.46-1.17-.51-1.74a5.54,5.54,0,0,1-2.79.34s-.2.2-.28.3-.43.47-.68.7l-.1.09a2.39,2.39,0,0,1-.32.25l-.09,0-.07,0-.36.2h0l-.12.07-.32.22-.11.09a3.25,3.25,0,0,0-.86.9.47.47,0,0,0-.06.15Z"/>
      <path class="cls-15" d="M14.28,67.63c.21.16.42.32.62.49a.07.07,0,1,1-.08.11l-.62-.49c-.07,0,0-.17.08-.11Z"/>
      <path class="cls-15" d="M14,68.06l.48.39c.07.06,0,.17-.08.12l-.48-.4a.07.07,0,1,1,.08-.11Z"/>
      <path class="cls-15" d="M13.58,68.39l.47.41c.07.06,0,.18-.08.12l-.47-.42c-.06-.06,0-.17.08-.11Z"/>
      <path class="cls-15" d="M13.18,68.67c.12.15.25.3.37.46a.07.07,0,1,1-.1.09l-.38-.46c-.05-.07,0-.16.11-.09Z"/>
      <path class="cls-4" d="M50.05,53.72a31.29,31.29,0,0,0-18.86-3.89L31,53.72l18.9,1.89Z"/>
      <path class="cls-14"
            d="M48.87,55.75s.55-.45.9-.12a4.91,4.91,0,0,1,1.51,4.12l-1.21-.52a4.61,4.61,0,0,0-.48-1.71C49.22,56.91,48.45,56.16,48.87,55.75Z"/>
      <path class="cls-15"
            d="M51.25,53.53a6.85,6.85,0,0,1,.8.27.83.83,0,0,1,.5.6,2.82,2.82,0,0,1,0,1.86,4.19,4.19,0,0,0,0,1.38,3.29,3.29,0,0,1-.41,2.53c-.59.75-.86.69-.86.69s-.75,0-1-.29c0,0,.61-.1,1-1S51.39,53.75,51.25,53.53Z"/>
      <path class="cls-15" d="M50.07,59.23a7.65,7.65,0,0,1,1.21.52s-.38.74-.9.82A1.19,1.19,0,0,1,50.07,59.23Z"/>
      <path class="cls-16"
            d="M51.55,59.37a.32.32,0,0,1,0-.09h0c.05-.18.11-.41.16-.66A21,21,0,0,0,51.8,56c.05-1,.21-1.88-.15-2.35a.62.62,0,0,0-.25-.2c-.46-.23-1.29-.15-1.87-.37a2.89,2.89,0,0,1-.47,2.33s1.7.77,2.07,3.55Z"/>
      <path class="cls-15" d="M49.09,56.74l1-.44c.12,0,.25.1.14.15l-1,.44c-.12,0-.25-.1-.14-.15Z"/>
      <path class="cls-15" d="M49.48,57.32l.89-.41c.12-.06.27.11.15.17l-.9.42c-.13.06-.27-.11-.14-.18Z"/>
      <path class="cls-15" d="M49.76,58l.89-.38c.12,0,.27.11.14.17l-.88.38c-.13.05-.28-.11-.15-.17Z"/>
      <path class="cls-15" d="M50,58.46l.93-.2c.15,0,.25.15.11.18l-.94.2c-.15,0-.25-.15-.1-.18Z"/>
      <path class="cls-15" d="M50.07,59.23s.85-1,1.71-.35c.54.4-.5,1.53-.5,1.53Z"/>
      <path class="cls-17"
            d="M28.94,39.21C33,39.88,39.15,35,39.15,35a8.3,8.3,0,0,1-.77-1.47v.12A42.2,42.2,0,0,1,33,25.74a14.09,14.09,0,0,1-1-10.7,6,6,0,0,0-3.44-.58c-3.31.21-6.46,3.42-6.85,5.07-1.09,4.65,2.17,8.23,4.14,10.41S28.94,39.21,28.94,39.21Z"/>
      <path class="cls-5" d="M24.7,16a8.41,8.41,0,0,1,1.48-.86,6.12,6.12,0,0,1,1.68-.55L27,21.5l-2.34-5.67Z"/>
      <polygon class="cls-18"
               points="26.98 21.5 24.7 15.97 23.89 16.63 26.13 22.36 38.54 35.43 39.13 34.96 38.55 33.91 26.98 21.5"/>
      <path class="cls-19"
            d="M33,25.74a44.12,44.12,0,0,0,5.49,8.09l-.14-.31A29.53,29.53,0,0,1,36.92,29c-1.15-4.56-2.79-10.4-4.12-13.11a2.16,2.16,0,0,0-.74-.82A14.09,14.09,0,0,0,33,25.74Z"/>
      <path class="cls-19"
            d="M23,17.54s1.25,5.27,1.84,6.21S37.45,36.21,37.45,36.21l1-.67S25.19,22.43,25.11,22.27,23,17.54,23,17.54Z"/>
      <polygon class="cls-20"
               points="23.89 16.63 22.97 17.54 24.95 22.94 38.39 35.56 38.45 35.5 26.13 22.36 23.89 16.63"/>
      <path class="cls-21"
            d="M28.23,36.49a18.23,18.23,0,0,0,11-1.72L39.48,36a19.94,19.94,0,0,1-11.3,1.82A6.9,6.9,0,0,1,28.23,36.49Z"/>
      <rect class="cls-22" height="1.7" transform="translate(68.59 71.71) rotate(175.13)" width="2.37" x="31.59"
            y="36.46"/>
      <path class="cls-7" d="M27.85,14.58,26,14.45l-1.27,1.44A2.58,2.58,0,0,0,27.85,14.58Z"/>
      <path class="cls-23"
            d="M28,34.31,12.74,36a.89.89,0,0,1-.94-.83L12,20.6a.89.89,0,0,1,.74-1L28,17.87a.89.89,0,0,1,.94.82L28.74,33.3A.9.9,0,0,1,28,34.31Z"/>
      <path class="cls-24"
            d="M27.13,34.41,11.88,36.12a.88.88,0,0,1-1-.82l.16-14.6a.89.89,0,0,1,.74-1L27.08,18a.87.87,0,0,1,.94.82l-.15,14.6A.9.9,0,0,1,27.13,34.41Z"/>
      <path class="cls-25"
            d="M11.36,34.48a.83.83,0,0,0,.89.76l14.41-1.62a.79.79,0,0,0,.44-.21.83.83,0,0,0,.26-.73l.06-4.19,0-1.47.06-4,.05-3.76a.82.82,0,0,0-.89-.75L12.25,20.09a.76.76,0,0,0-.45.21l-.08.09a.84.84,0,0,0-.17.63Z"/>
      <path class="cls-24"
            d="M.63,38.32l19.65-2.21-.93-1.33L.47,36.91a.57.57,0,0,0-.47.64l0,.24A.57.57,0,0,0,.63,38.32Z"/>
      <path class="cls-23"
            d="M17.79,36.39l10.93-1.24V33.67L17.63,35a.56.56,0,0,0-.46.64l0,.24A.58.58,0,0,0,17.79,36.39Z"/>
      <polygon class="cls-8" points="22.44 29.56 12.99 30.36 12.93 27.48 22.38 26.6 22.44 29.56"/>
      <polygon class="cls-26" points="25.56 29.3 22.44 29.56 22.38 26.6 25.51 26.31 25.56 29.3"/>
      <path class="cls-8"
            d="M23,28.08v.37a.9.9,0,0,0,.64.85h0a1,1,0,0,0,.4,0,1.09,1.09,0,0,0,1-1.07V27.9a.34.34,0,0,0-.26-.31v-.3a.7.7,0,0,0-.79-.67.82.82,0,0,0-.76.81v.3A.38.38,0,0,0,23,28.08Zm.82.27a.3.3,0,0,1-.15-.26.36.36,0,0,1,.35-.37.31.31,0,0,1,.36.31.34.34,0,0,1-.14.29l.11.84-.61.05Zm-.34-.94a.57.57,0,0,1,.52-.56.48.48,0,0,1,.55.46v.28l-1.07.1Z"/>
      <path class="cls-26"
            d="M21.25,28.67l0-.32-.28.2-.12-.18.29-.18-.3-.12.11-.2.29.15,0-.32.23,0V28l.29-.2.11.18-.29.18.3.12-.11.2-.29-.15,0,.32Z"/>
      <path class="cls-26"
            d="M19.33,28.84v-.32l-.27.19L19,28.54l.29-.18-.3-.12.11-.2.29.15,0-.32.23,0v.32l.28-.19.11.17-.29.18.3.12-.11.2-.28-.15,0,.32Z"/>
      <path class="cls-26"
            d="M17.43,29v-.33l-.27.2-.12-.18.29-.17-.3-.12.11-.2.28.15,0-.32.22,0v.32l.28-.19.11.17-.29.18.3.12-.11.2-.28-.15,0,.32Z"/>
      <path class="cls-26"
            d="M15.55,29.17v-.32l-.27.2-.12-.18.29-.17-.3-.12.11-.2.28.15,0-.32.22,0v.32l.27-.19.12.17-.29.17.29.12L16,29l-.28-.15,0,.32Z"/>
      <path class="cls-26"
            d="M13.68,29.33V29l-.26.2L13.31,29l.28-.17-.29-.12.11-.19.28.14,0-.31.22,0v.32l.27-.2.12.18-.29.17.29.12-.1.2L13.88,29l0,.31Z"/>
      <polygon class="cls-8" points="22.37 26.1 12.91 26.99 12.85 24.1 22.32 23.13 22.37 26.1"/>
      <polygon class="cls-26" points="25.5 25.8 22.37 26.1 22.32 23.13 25.44 22.81 25.5 25.8"/>
      <path class="cls-8"
            d="M23.34,25.32c.12-.06.18-.11.18-.22v-.22l0-.06a1.27,1.27,0,0,1-.06-.16s0,0,0,0a.43.43,0,0,1-.08-.14,1.43,1.43,0,0,1,0-.2c0-.06.06,0,.06,0h0a.25.25,0,0,1,0-.1,1.29,1.29,0,0,1,0-.25,1.89,1.89,0,0,1,.06-.21.65.65,0,0,1,.17-.26,1.12,1.12,0,0,1,.37-.13h0a1.68,1.68,0,0,1,.36.08.51.51,0,0,1,.17.16c0,.06.08.21.09.24a1.24,1.24,0,0,1,0,.25,1.1,1.1,0,0,1,0,.11h0s.06,0,.06,0,0,.17,0,.18l0,.11s0,.08,0,.08h0s0,.1-.05.18l0,.06V25c0,.11.07.15.19.19.95.28,1,.39,1,.6l-3.13.3C22.37,25.9,22.42,25.78,23.34,25.32Z"/>
      <path class="cls-26"
            d="M21.18,25.22l0-.32-.28.2-.12-.18.29-.18-.3-.11.11-.2.29.14,0-.32.23,0v.32l.28-.2.11.18-.29.18.3.12-.11.2-.29-.15,0,.32Z"/>
      <path class="cls-26"
            d="M19.26,25.41v-.32l-.28.2-.11-.18.29-.18-.3-.11.11-.2.28.14,0-.32.23,0v.32l.28-.2.11.18-.29.18.3.11-.11.21-.28-.15,0,.32Z"/>
      <path class="cls-26"
            d="M17.36,25.6v-.33l-.28.2L17,25.3l.29-.18L17,25l.11-.19.28.14,0-.32.22,0v.32l.28-.2.11.18-.29.17.3.12-.11.2-.28-.15,0,.32Z"/>
      <path class="cls-26"
            d="M15.47,25.78v-.32l-.27.2-.11-.18.28-.17-.29-.12.11-.2.28.15,0-.32.22,0v.32l.27-.2.11.17-.29.18.3.12-.11.2-.28-.15,0,.32Z"/>
      <path class="cls-27"
            d="M10.52,34.66a.33.33,0,0,1-.3-.42.21.21,0,0,1,.16-.17c.27-.09,1.22-.29,1.3,0s0,.46-.53.54A3,3,0,0,1,10.52,34.66Z"/>
      <path class="cls-27" d="M9.44,32.63c-.11-.09-.21-.56.53-.76s1.61-.2,1.55.24S10,33,9.44,32.63Z"/>
      <path class="cls-27"
            d="M10,33.49a.35.35,0,0,1-.33-.4.52.52,0,0,1,.4-.44c.61-.19,1.48-.28,1.51,0a.49.49,0,0,1-.25.55A3.58,3.58,0,0,1,10,33.49Z"/>
      <path class="cls-27"
            d="M10.27,34.07a.34.34,0,0,1-.34-.42.42.42,0,0,1,.37-.32c.56-.1,1.28-.26,1.31.09s-.2.57-.64.63A3.33,3.33,0,0,1,10.27,34.07Z"/>
      <path class="cls-3"
            d="M31.17,17.68a28.28,28.28,0,0,0,7.22,7l1.84-1.12c-3.71-8.4-9.4-9-9.74-9.1h0s-.62-.08-.79.7C29.53,15.78,31.17,17.68,31.17,17.68Z"/>
      <path class="cls-27"
            d="M28.07,29.66a5.66,5.66,0,0,1,2.1.57c.09.18.44,1.47.44,1.47a10.56,10.56,0,0,1-1.93,1.62.77.77,0,0,1-.49.06s-1.1.14-1.33-.17a.37.37,0,0,1-.09-.29.28.28,0,0,1,.09-.14.43.43,0,0,1-.23-.14.31.31,0,0,1-.08-.31.63.63,0,0,1,.07-.12.48.48,0,0,1-.23-.14.42.42,0,0,1-.09-.25.34.34,0,0,1,.07-.16.29.29,0,0,1-.19-.12.3.3,0,0,1,.05-.48l1.17-.12c0-.05,0-.13,0-.22C27.52,30.31,27.7,29.65,28.07,29.66Z"/>
      <path class="cls-28" d="M26.86,32.78a.28.28,0,0,0-.09.14l1.3,0Z"/>
      <path class="cls-28" d="M26.62,32.21a.63.63,0,0,0-.07.12l1.3,0Z"/>
      <path class="cls-28" d="M26.37,31.66a.34.34,0,0,0-.07.16l1.35-.15Z"/>
      <path class="cls-28" d="M27.44,30.72c0,.09,0,.17,0,.22.49.11,1.24-.41,1.24-.41Z"/>
      <path class="cls-27"
            d="M29.09,31.13c-.11-.38-.2-.76-.31-1.14A.93.93,0,0,1,29,30c.59,0,1.13.35,1.43,0l.17-.18c.25.43.61,1.05.79,1.38a7.65,7.65,0,0,1-2.66,1.36C28.54,32.09,29.24,31.64,29.09,31.13Z"/>
      <path class="cls-3" d="M30.61,29.82c.25.43.61,1.05.79,1.38,1.17-1,2.34-1.9,2.44-1.95L32.5,27.89Z"/>
      <path class="cls-3"
            d="M37.71,22.29S34,25.17,32.63,27.37h0a3.49,3.49,0,0,0-.18.31A12.88,12.88,0,0,1,31.51,29l.85,1.26c.23-.13.48-.3.77-.49,1.54-1.07,4.84-2.9,7.1-6.25Z"/>
      <path class="cls-29" d="M11.68,20.35l0,0,15.38,13a.83.83,0,0,0,.26-.73l.06-4.19L16.36,19.62l-4,.45-.6.23Z"/>
      <path class="cls-29" d="M18.44,19.39l9,7.63.06-4-5-4Z"/>
    </g>
  </g>
</svg>
