<svg viewBox="0 0 55.43 102.62" xmlns="http://www.w3.org/2000/svg">
  <defs>
    <style>.cls-1 {
      fill: gray;
    }

    .cls-2 {
      fill: #32313f;
    }

    .cls-3 {
      fill: #191828;
    }

    .cls-4 {
      fill: #1a1a1a;
    }

    .cls-5 {
      fill: #f6cfa5;
    }

    .cls-6 {
      fill: #333;
    }

    .cls-7 {
      fill: #4d4d4d;
    }

    .cls-8 {
      fill: #faa183;
    }

    .cls-9 {
      fill: #161415;
    }

    .cls-10 {
      fill: #434457;
    }

    .cls-11 {
      fill: #4b4c62;
    }

    .cls-12 {
      fill: #754c24;
    }

    .cls-13 {
      fill: #aa6d38;
    }

    .cls-14 {
      fill: #535353;
    }

    .cls-15 {
      fill: #6c6d6d;
    }

    .cls-16 {
      fill: #b84424;
    }

    .cls-17 {
      fill: #cc6b2a;
    }

    .cls-18 {
      fill: #dadadc;
    }

    .cls-19 {
      fill: #a5a6a7;
    }

    .cls-20 {
      fill: #8a8b8c;
    }

    .cls-21 {
      fill: #696b6b;
    }

    .cls-22 {
      fill: #8c5228;
    }

    .cls-23 {
      fill: #d2d2d4;
    }

    .cls-24 {
      fill: #f77a4d;
    }

    .cls-25 {
      fill: #fff;
    }

    .cls-26 {
      fill: #82494b;
    }

    .cls-27 {
      fill: #844d42;
    }

    .cls-28 {
      fill: #401f00;
    }

    .cls-29 {
      fill: #252024;
    }

    .cls-30 {
      fill: #67413d;
    }

    .cls-31 {
      fill: #ccc;
      opacity: 0.4;
    }</style>
  </defs>
  <title>Asset 1</title>
  <g data-name="Layer 2" id="Layer_2">
    <g data-name="Layer 1" id="Layer_1-2">
      <path class="cls-1"
            d="M5.11,20.8a3,3,0,0,1-.23-2.08,3.39,3.39,0,0,1-.32-.33,1.22,1.22,0,0,1-.3-.57c0-.4-.52-1-.75-.92,0,0-.1.15,0,.72a6.69,6.69,0,0,0,.71,2.47,4.51,4.51,0,0,0,.5.41c.13.11.25.2.35.3l0,0Z"/>
      <path class="cls-1" d="M4.88,17s-1.56-.57-1.36-.8,1.36.21,1.36.21Z"/>
      <path class="cls-1" d="M4.74,16.57s-1.44-.84-1.2-1,1.3.45,1.3.45Z"/>
      <path class="cls-1" d="M4.91,17.56c0-.13-.37-1.52-.37-1.52s-1-1-.76-1.27,1.34.94,1.34.94l.44,1.54Z"/>
      <path class="cls-1"
            d="M6.13,17.19S4.76,14,4.54,14.07s0,.65.16,1.27h0c.19.69.43,1.42.43,1.42l-.25.71h0l-.32.92,0,.07a2.89,2.89,0,0,0,.21,2l0,.08h0a.58.58,0,0,1,.15.29l.17-.07,0,0,0,0,1.31-.51C6.27,18.67,6.13,17.19,6.13,17.19Z"/>
      <path class="cls-1" d="M5.1,20.8l0,0,0,0Z"/>
      <path class="cls-2" d="M7.61,32.58s14.16,4.69,14.12.73C21.68,26.83,7.9,29.49,7.9,29.49Z"/>
      <path class="cls-2" d="M6.82,21.5,5,22.21,7.76,32.65l2.45-2.18S7.91,24.25,6.82,21.5Z"/>
      <path class="cls-2" d="M6.26,20.21c-.6-.27-1.51.87-1.51.87L5,22.21l1.78-.71A10.62,10.62,0,0,0,6.26,20.21Z"/>
      <path class="cls-3" d="M47.91,69.82s-18-2.77-20.93-.88l-.06,3.77L48,71.7S49.08,70.48,47.91,69.82Z"/>
      <path class="cls-4"
            d="M48,72.22a.67.67,0,0,1,.62-.23,26.41,26.41,0,0,1,3.11,1.8l-1,.19a3.89,3.89,0,0,0-1.14-1C49,72.72,47.8,72.67,48,72.22Z"/>
      <path class="cls-5"
            d="M48.67,68.59a6.39,6.39,0,0,1,.76-.35.62.62,0,0,1,.67.12,4.46,4.46,0,0,1,.94,2,3.81,3.81,0,0,0,.66,1.08,3.65,3.65,0,0,1,.84,2.25c0,.88-.11.87-.11.87s-.6.43-.86.3c0,0,.34-.35.15-1.22A23.81,23.81,0,0,0,48.67,68.59Z"/>
      <path class="cls-5" d="M50.73,74a4.43,4.43,0,0,1,1-.19s.11.75-.18,1A1.1,1.1,0,0,1,50.73,74Z"/>
      <path class="cls-6"
            d="M51.75,73.79h0a4.06,4.06,0,0,0-.1-.4h0c0-.18-.12-.39-.2-.6a16.69,16.69,0,0,0-1.15-2c-.43-.8-.83-2-1.34-2.17a.59.59,0,0,0-.29,0c-.47.15-1.08.77-1.64,1A4,4,0,0,1,48,71.86l.37.15c.21.08.55.22.84.36l.12.06a1.86,1.86,0,0,1,.31.2l0,.06,0,0c.06.06.15.15.27.25h0l.11.08.28.2.11.07a3,3,0,0,0,1.09.45h.19Z"/>
      <path class="cls-5" d="M48.94,72.82l.36-.69c0-.07.18,0,.14,0l-.36.68c0,.08-.18.05-.14,0Z"/>
      <path class="cls-5" d="M49.44,72.94c.09-.18.2-.36.29-.54s.18-.05.14,0l-.3.54c0,.08-.17,0-.13,0Z"/>
      <path class="cls-5" d="M49.86,73.18l.31-.53c0-.08.18-.05.14,0s-.22.35-.32.53-.18.05-.13,0Z"/>
      <path class="cls-5" d="M50.23,73.44,50.6,73c.06-.07.18,0,.12.06l-.38.47c-.06.07-.17,0-.11-.06Z"/>
      <path class="cls-3"
            d="M20,55.38c.1.29,6.93,17.33,6.93,17.33l3.55-1.23S28.78,53.75,27.2,52.82,20,55.38,20,55.38Z"/>
      <path class="cls-2" d="M50.93,80.57S41,67.09,35.42,66.47l-2.57,2.82,17,12.79S51.39,81.82,50.93,80.57Z"/>
      <path class="cls-4"
            d="M49,82.3a.65.65,0,0,1,.56.34,25.87,25.87,0,0,1,.53,3.56l-.79-.68A3.94,3.94,0,0,0,49.41,84C49.25,83.4,48.53,82.41,49,82.3Z"/>
      <path class="cls-5"
            d="M52.26,80.55a7.43,7.43,0,0,1,.74.37.62.62,0,0,1,.33.61,4.42,4.42,0,0,1-1,2,3.76,3.76,0,0,0-.43,1.19,3.53,3.53,0,0,1-1.23,2.06c-.72.52-.75.45-.75.45s-.71-.2-.78-.48c0,0,.49,0,1.06-.64A24.2,24.2,0,0,0,52.26,80.55Z"/>
      <path class="cls-5" d="M49.32,85.52a4.74,4.74,0,0,1,.79.68s-.52.55-.94.51A1.1,1.1,0,0,1,49.32,85.52Z"/>
      <path class="cls-6"
            d="M50.11,86.2h0s.12-.15.25-.34h0a5.49,5.49,0,0,0,.34-.53,16.15,16.15,0,0,0,.88-2.16c.36-.84,1.09-1.94.86-2.4a.5.5,0,0,0-.19-.22c-.42-.28-1.27-.37-1.8-.66A4,4,0,0,1,49.26,82s.08.26.11.38.18.57.25.88l0,.13a2,2,0,0,1,0,.37s0,.06,0,.08,0,0,0,.06a3.12,3.12,0,0,0,0,.37h0v.13c0,.11,0,.23,0,.35s0,.08,0,.13A2.9,2.9,0,0,0,50,86.05a.64.64,0,0,0,.1.13Z"/>
      <path class="cls-5" d="M49.12,83.4l.76-.15c.09,0,.15.11.06.13l-.76.14c-.09,0-.15-.11-.06-.12Z"/>
      <path class="cls-5" d="M49.34,83.86l.6-.11c.09,0,.15.11.06.13l-.61.1c-.08,0-.14-.1,0-.12Z"/>
      <path class="cls-5" d="M49.41,84.34l.61-.09c.09,0,.15.12.06.13l-.61.08c-.09,0-.15-.11-.06-.12Z"/>
      <path class="cls-5" d="M49.44,84.79H50c.09,0,.11.13,0,.13h-.6c-.09,0-.12-.12,0-.12Z"/>
      <path class="cls-2"
            d="M20.18,54.63c.19.25,12.67,14.66,12.67,14.66l3-2.22s-7.74-17.44-9.56-17.29C25.26,49.87,20.18,54.63,20.18,54.63Z"/>
      <path class="cls-7" d="M22.91,56.17c.28.4,2.66.37,3.56.12l0,.4s-2.85.67-3.71.25Z"/>
      <rect class="cls-8" height="6.37" transform="translate(47.21 46.05) rotate(154.32)" width="3.65" x="16.53"
            y="25.22"/>
      <path class="cls-2"
            d="M16.2,43.82c1.26,1.16,3.41,10.09,3.41,10.09s8.53-.7,7.35-3.8c-1.93-5.06-2.83-15.74-4.32-19a3.15,3.15,0,0,0-1.8-1.75h0l-6.46,4.84,0-.22C13.49,38.06,15.31,43,16.2,43.82Z"/>
      <path class="cls-9" d="M14.38,34.19l6.46-4.84h0a5.66,5.66,0,0,0-3.69.26A6.75,6.75,0,0,0,14.36,34Z"/>
      <path class="cls-10"
            d="M22.94,51.5s-9.83-15.83-8.68-17A11.47,11.47,0,0,0,14.38,39C14.92,41.19,22,51.77,22,51.77Z"/>
      <path class="cls-11" d="M21.36,52.13S15.19,41.77,15,41.23a13.9,13.9,0,0,1-.54-2.13L22,51.77Z"/>
      <path class="cls-12"
            d="M20.28,54.94a52.05,52.05,0,0,0,7.36-3.67A9.84,9.84,0,0,0,27,49.84a52.61,52.61,0,0,1-7.29,3.62Z"/>
      <rect class="cls-13" height="1.87" transform="translate(62.05 94.16) rotate(153.56)" width="0.38" x="19.77"
            y="53.43"/>
      <path class="cls-1"
            d="M.25,37.46c-.11,0-.19.09-.16.29A.5.5,0,0,0,.18,38a1.18,1.18,0,0,0,.26.29.34.34,0,0,0-.06.15c-.11.55,1.78,1.35,1.89,1.35a14.39,14.39,0,0,0,3.23-.92l.29-1.54-2.6-1.94s.45.59.24.83a1.89,1.89,0,0,1-2.16-.14c-.64-.49-1.06-.24-1.13.08a.43.43,0,0,0,0,.33.83.83,0,0,0,.19.18.3.3,0,0,0-.28.1.41.41,0,0,0-.08.39A.67.67,0,0,0,.25,37.46Z"/>
      <path class="cls-14" d="M.19,36.47a.83.83,0,0,0,.19.18l1.32.65S.44,36.44.14,36.14A.43.43,0,0,0,.19,36.47Z"/>
      <path class="cls-14" d="M0,37.14a.67.67,0,0,0,.23.32l1.45.62Z"/>
      <path class="cls-14" d="M.18,38a1.18,1.18,0,0,0,.26.29l1.33.52Z"/>
      <path class="cls-11" d="M6.92,37.59c-.2.62-.46,1.39-.6,1.82l9.74,4.65L16,40.78S9.74,38.53,6.92,37.59Z"/>
      <path class="cls-11"
            d="M5.57,37.2c-.59.27-.3,1.71-.3,1.71l1.05.5c.14-.43.4-1.2.6-1.82A8.22,8.22,0,0,0,5.57,37.2Z"/>
      <rect class="cls-15" height="4" width="1.01" x="25.9" y="16.28"/>
      <polygon class="cls-16" points="27.37 24.02 24.68 40.72 24.94 41.91 28.11 24.76 27.53 23.87 27.37 24.02"/>
      <path class="cls-17"
            d="M26.48,23.27,16,42.17a15.77,15.77,0,0,0,.66,2.12c.26.52.39.13.39.13L27.35,24.76l-.42-.68-.47,0Z"/>
      <polygon class="cls-16"
               points="27.57 24.12 27.9 24.52 25.86 46.13 26.26 47.72 28.83 25.61 28.65 24.48 27.53 23.87 27.57 24.12"/>
      <path class="cls-18" d="M28.83,25.61V20.52l-3.45-.08.37,5.1Zm-.93-1.09-1.42.07-.18-3.17,1.3.06Z"/>
      <polygon class="cls-19" points="25.09 19.86 25.43 24.73 25.76 25.54 25.39 20.44 25.09 19.86"/>
      <polygon class="cls-20" points="28.84 20.52 28.61 20 25.09 19.86 25.39 20.44 28.84 20.52"/>
      <polygon class="cls-20" points="27.9 24.52 27.57 24.12 26.48 24.18 26.48 24.59 27.9 24.52"/>
      <polygon class="cls-21" points="27.57 24.12 27.39 21.46 27.6 21.48 27.9 24.52 27.57 24.12"/>
      <polygon class="cls-16" points="27.56 23.85 27.09 24.12 28 25.85 28.83 25.61 27.89 24.12 27.56 23.85"/>
      <polygon class="cls-17" points="19.13 51.81 26.93 24.08 27.43 23.93 27.2 25.55 19.53 53.52 19.13 51.81"/>
      <polygon class="cls-19"
               points="26.88 22.22 26.33 21.73 26.3 21.27 26.66 21.3 26.49 16.82 25.99 16.38 26.15 19.9 25.8 19.88 25.68 15.62 26.65 16.03 26.88 22.22"/>
      <polygon class="cls-18" points="25.67 15.62 26.74 15.53 28.15 15.86 26.64 16.03 25.67 15.62"/>
      <path class="cls-22" d="M26.5,17.45a.52.52,0,0,1-.67-.47l-.17-4.06,0-1h0s.25.3.78,0l0,.7Z"/>
      <path class="cls-23" d="M26.62,16c0,.22.26,6.19.26,6.19l1,.08.24-6.44Z"/>
      <path class="cls-20" d="M25.18,12.13a1.38,1.38,0,0,1,1.71-.2A1.81,1.81,0,0,1,25.18,12.13Z"/>
      <path class="cls-22" d="M25.48,0l.14,12h0s.25.3.78,0l.24-12Z"/>
      <path class="cls-22" d="M26.37,15.81a2.12,2.12,0,0,1,1.35,0s.26-1-1.32-.61Z"/>
      <path class="cls-23"
            d="M25.18,12.13c-.1,0,.32,3.08.32,3.08a3,3,0,0,0,1.32-.05l.07-3.23A2.21,2.21,0,0,1,25.18,12.13Z"/>
      <polygon class="cls-9" points="20.18 21.69 22.93 24.84 21.86 25.94 19.39 22.27 20.18 21.69"/>
      <polygon class="cls-9" points="19 22.5 20.05 26.55 21.56 26.29 19.92 22.18 19 22.5"/>
      <path class="cls-24"
            d="M8.55,23.16a1.11,1.11,0,0,0-1.47.65c-.38,1.06,1.09,2.85,1.7,2.88s1-.3,1-.46S8.55,23.16,8.55,23.16Z"/>
      <path class="cls-8"
            d="M7.74,16.71a5.3,5.3,0,0,1,6.82-2.46c2.51,1.05,3.85,3.6,4.56,5.76a7.83,7.83,0,0,1-.27,6.79,5.37,5.37,0,0,1-6.59,2.45C9.8,28.35,8.54,26,7.9,24.06,7.06,21.93,6.48,19.12,7.74,16.71Z"/>
      <path class="cls-25" d="M14.55,24.66a2.45,2.45,0,0,1-1.16,2.94,2.45,2.45,0,0,1-2.78-1.52Z"/>
      <path class="cls-24" d="M11.92,24.19l-1.19.43S11.59,25.52,11.92,24.19Z"/>
      <path class="cls-26" d="M8.82,21.37,9,22a2.94,2.94,0,0,0-1.37.62l-.16-.35A3,3,0,0,1,8.82,21.37Z"/>
      <path class="cls-26" d="M12.93,19.89l.25.56a3,3,0,0,1,1.45-.4l-.1-.37A2.87,2.87,0,0,0,12.93,19.89Z"/>
      <path class="cls-27" d="M13,15.93l4.39,3.27.92,2.54,1.3-.62c-.12-.4-.1-1-.25-1.39-.65-2-1.43-4.61-4.33-5.59Z"/>
      <path class="cls-27" d="M7.33,22.31,8,20.84,7.21,18A8.8,8.8,0,0,0,7.33,22.31Z"/>
      <path class="cls-28"
            d="M7.38,17.79l2.5.18s2.64-3.37,5.78-1.55c-2.25-3.76-5.12-3.63-7.1-1.2A7.85,7.85,0,0,0,7.38,17.79Z"/>
      <path class="cls-28" d="M16.37,15a9.92,9.92,0,0,0-6.74,3.22L7.2,18.09S9.2,9.8,16.37,15Z"/>
      <path class="cls-24"
            d="M18.13,20.51a1,1,0,0,1,.26-1.07,1,1,0,0,1,1.2-.14c1,.58,1,2.89.53,3.3a.84.84,0,0,1-.95.22A8.26,8.26,0,0,1,18.13,20.51Z"/>
      <path class="cls-29"
            d="M19,18.86c-2.56.67-9.37,3.75-11.56,3.91a22.15,22.15,0,0,0,1.13,3c.67-.31,1.45-.71,2-1,.25-.11.37-.59.63-.68s1.08.07,1.34,0c1.55-.53,4.46-1.49,6.16-2-.19-.42-.52-1.31-.62-1.62a1.05,1.05,0,0,1,1-1.32C19.06,19,19,18.86,19,18.86Z"/>
      <path class="cls-25" d="M10,23.11l-2.3.27s.06.19.29.83a1.33,1.33,0,0,0,1.11.41C10,24.55,10,23.11,10,23.11Z"/>
      <path class="cls-30"
            d="M8.12,24c.12.34.41.54.65.46A.59.59,0,0,0,9,23.67c-.12-.34-.41-.54-.65-.46A.58.58,0,0,0,8.12,24Z"/>
      <path class="cls-4"
            d="M8.31,23.91c.08.23.29.38.46.32a.41.41,0,0,0,.14-.54c-.08-.24-.29-.38-.45-.32S8.22,23.67,8.31,23.91Z"/>
      <path class="cls-25" d="M8,23.71c.06.17.2.27.32.23s.16-.21.1-.38-.2-.27-.32-.23A.29.29,0,0,0,8,23.71Z"/>
      <path class="cls-25" d="M12.25,22.29l3.07-1.72a1.62,1.62,0,0,1-.87,2.11A1.85,1.85,0,0,1,12.25,22.29Z"/>
      <path class="cls-30" d="M14.41,21.94a.65.65,0,0,1-1.22.43.64.64,0,0,1,.39-.82A.65.65,0,0,1,14.41,21.94Z"/>
      <path class="cls-4"
            d="M14.14,22a.47.47,0,0,1-.28.59.46.46,0,0,1-.58-.28.45.45,0,0,1,.27-.58A.46.46,0,0,1,14.14,22Z"/>
      <path class="cls-25" d="M13.52,22a.32.32,0,1,1-.6.22.32.32,0,0,1,.6-.22Z"/>
      <path class="cls-11" d="M16.24,44s8.41-12.31,4.6-13.37c-6.24-1.74-7.49,12.24-7.49,12.24Z"/>
      <path class="cls-31"
            d="M55.43,100.84c0,1-6.6,1.78-14.74,1.78s-14.75-.8-14.75-1.78S29.87,98.76,38,98.76,55.43,99.86,55.43,100.84Z"/>
    </g>
  </g>
</svg>
