<svg xmlns="http://www.w3.org/2000/svg" xmlns:xlink="http://www.w3.org/1999/xlink" viewBox="0 0 1383.78 1028.81"><defs><style>.cls-1{isolation:isolate;}.cls-2{fill:url(#linear-gradient);}.cls-3{fill:url(#linear-gradient-2);}.cls-4{fill:url(#linear-gradient-3);}.cls-5{fill:#9892ff;}.cls-6{fill:#f7941d;}.cls-7{fill:#00a79d;}.cls-17,.cls-22,.cls-8{fill:#fff;}.cls-8{opacity:0.5;}.cls-9{fill:#444c56;}.cls-10{fill:#39414e;}.cls-11{fill:#2f353f;}.cls-12{fill:#636b76;}.cls-13{fill:#7acdf5;}.cls-14{fill:#1b75bc;}.cls-15{fill:#fbb040;}.cls-16{fill:#5035ed;}.cls-18{fill:#f7ce8d;}.cls-19,.cls-21{fill:#2a2a72;}.cls-20{fill:#bcbec0;}.cls-20,.cls-21,.cls-22{opacity:0.3;}.cls-20,.cls-21{mix-blend-mode:multiply;}</style><linearGradient id="linear-gradient" x1="697.91" y1="961.08" x2="697.91" y2="1116.12" gradientUnits="userSpaceOnUse"><stop offset="0" stop-color="#b3cdfd"/><stop offset="0.99" stop-color="#fff"/></linearGradient><linearGradient id="linear-gradient-2" x1="72.01" y1="1123.22" x2="1622.94" y2="-29.44" xlink:href="#linear-gradient"/><linearGradient id="linear-gradient-3" x1="1477.43" y1="249.8" x2="360.57" y2="1424.84" xlink:href="#linear-gradient"/></defs><title>Asset 1</title><g class="cls-1"><g id="Layer_2" data-name="Layer 2"><g id="Layer_1-2" data-name="Layer 1"><ellipse class="cls-2" cx="697.91" cy="1017.23" rx="590.41" ry="11.59"/><path class="cls-3" d="M558.91,788.25c71.39-41.91,151.71-66.17,232.24-85.33,102.83-24.47,211-42.74,297.46-103.58,88.17-62,144.66-166.87,148-274.62a213.43,213.43,0,0,0-102.2-41.85c-91.17-12.05-188.2,30.63-256.7,84.21a394.85,394.85,0,0,0-41,36.73c-95.21,98.88-249,181.28-490.73,294.81S174,1017.23,174,1017.23s84.18-.18,204.35-.37h1.61a257.6,257.6,0,0,1,14.35-48.71C425.11,891.32,487.52,830.16,558.91,788.25Z"/><path class="cls-4" d="M1179.22,1017.23A133.65,133.65,0,0,0,1208.1,966c21.27-70.37-14.69-148.92.41-197.78,3.32-10.73,10.77-25.08,20.32-42.22,48.71-87.39,152.16-247.31,41.94-369.78a244.24,244.24,0,0,0-34.12-31.48c-3.38,107.75-59.87,212.58-148,274.62C1002.16,660.18,894,678.45,791.15,702.92c-80.53,19.16-160.85,43.42-232.24,85.33S425.11,891.32,394.26,968.14a257.6,257.6,0,0,0-14.35,48.71c113.22-.17,258-.36,394.39-.42C955.19,1016.36,1121.28,1016.51,1179.22,1017.23Z"/><path class="cls-5" d="M235,837.25c-12.51-9.89-33.46,2.92-38.59,6.34,1.29-8.17,3.15-16.28,5.21-24.31,42.21,9.1,51.76-14.25,34.54-20.12C221.1,794,205.69,813,201.92,818c1-3.94,2.08-7.86,3.14-11.75C207,799,209,791.7,210.7,784.3c32.68,5.93,39.47-12.29,26-16.42-11.29-3.47-22.32,10.21-25.67,14.83a194.12,194.12,0,0,0,3.94-23c.08-.78.16-1.63.24-2.51,29.54-3.93,30.31-21.33,17.75-21.14-10.36.16-16,14.31-17.62,19.4a65.49,65.49,0,0,0-1.13-18.78,40.47,40.47,0,0,0-3.78-10.12C233,708.53,225,693.52,214.34,700c-7.83,4.75-6.91,17-5.82,23.46a30.14,30.14,0,0,0-4.23-5c-9.09-27.32-25.9-25-23.56-12.78,1.91,9.94,16.19,13.08,21.79,13.93a33.93,33.93,0,0,1,9.72,17.57,58.91,58.91,0,0,1,1.24,15.1c-9.88-23.9-25.29-20.88-22.74-9.21,2.22,10.11,17.17,12.77,22.5,13.41-.08,1.08-.18,2.12-.27,3.06a190.73,190.73,0,0,1-3.68,21.71c-10.13-29.8-28.63-27.16-26.08-13.62,2.25,12,20.53,15.22,25.57,15.88-1.72,7.48-3.72,14.89-5.7,22.18-.9,3.32-1.8,6.67-2.68,10-3.77-39.65-27.46-41.87-28.43-24.22-.88,16,21.82,25.72,27.48,27.9-1.92,7.52-3.66,15.12-4.92,22.78-11.15-40.43-35.75-38.24-33.23-20.41,2.33,16.41,28.19,21.34,33,22.12a130.73,130.73,0,0,0-1.64,25.47c.18,4.55.81,9.67,4.08,13.26l1.51-1.37c-2.82-3.11-3.38-7.8-3.55-12a128.42,128.42,0,0,1,1.5-24.3C232.57,867.19,249.17,848.48,235,837.25Z"/><path class="cls-6" d="M223,1016S218.1,689.85,106.36,612.62s-138,51.76-66.54,149.53S135.12,1016,135.12,1016Z"/><path class="cls-7" d="M310.93,744.07c-69,6.57-99,134.79-99,134.79h0A1301,1301,0,0,1,223,1016h57.51C361.05,855.8,380,737.5,310.93,744.07Z"/><path class="cls-8" d="M175.31,1016.12c-.11-3.79-.31-10.43-.56-14.31s-.55-7.8-.89-11.7c-.71-7.79-1.51-15.58-2.51-23.35-1.93-15.55-4.44-31-7.41-46.45a737.21,737.21,0,0,0-23.66-91.09c-5-14.89-10.4-29.65-16.34-44.2-1.48-3.64-3.07-7.23-4.6-10.85L117,768.75l-2.45-5.36-4.94-10.71-5.21-10.57c-.88-1.76-1.71-3.55-2.64-5.28L99,731.62c-1.86-3.47-3.65-7-5.56-10.41L87.64,711c-1-1.7-1.91-3.44-3-5.1l-3.08-5c-2.06-3.35-4.07-6.73-6.18-10l-6.49-9.87c-1.08-1.64-2.14-3.3-3.26-4.92l-3.4-4.82-6.82-9.65,7,9.5L66,675.76c1.15,1.59,2.24,3.23,3.36,4.85l6.7,9.74c2.18,3.28,4.26,6.63,6.4,9.94l3.19,5c1.08,1.65,2,3.37,3.06,5.05l6.06,10.16c2,3.41,3.85,6.88,5.79,10.32l2.87,5.17c1,1.72,1.84,3.49,2.76,5.23l5.45,10.5,5.18,10.65,2.57,5.32,2.44,5.4c1.62,3.6,3.29,7.17,4.85,10.8q9.4,21.72,17.35,44.07a743.06,743.06,0,0,1,25.73,91.19q5,23.19,8.46,46.7c1.17,7.82,2.15,15.68,3,23.56q.65,5.91,1.16,11.85c.34,4,.63,10.58.82,14.66Z"/><path class="cls-8" d="M233.16,1016c2.13-10.73,4.5-22,7-32.56s5.13-21.1,7.92-31.6,5.71-20.94,8.8-31.34,6.37-20.75,9.81-31a634.47,634.47,0,0,1,23.62-60.64q6.7-14.84,14.77-29a215.51,215.51,0,0,1,18-27.05,216.39,216.39,0,0,0-17.11,27.53q-7.57,14.33-13.82,29.31a630.35,630.35,0,0,0-21.66,61q-4.67,15.51-8.83,31.17t-7.8,31.45q-3.67,15.76-6.91,31.64c-2.15,10.57-4.08,20.52-5.85,31.08Z"/><ellipse class="cls-9" cx="244.6" cy="568.84" rx="14.62" ry="14.9"/><path class="cls-9" d="M220.48,547a3.59,3.59,0,0,0,0,5,3.44,3.44,0,0,0,4.93,0,26.33,26.33,0,0,1,37.68,0,3.44,3.44,0,0,0,4.93,0,3.59,3.59,0,0,0,0-5A33.2,33.2,0,0,0,220.48,547Z"/><path class="cls-9" d="M244.25,519.15a46.71,46.71,0,0,0-33.54,14.15,3.6,3.6,0,0,0,0,5,3.44,3.44,0,0,0,4.93,0,39.94,39.94,0,0,1,57.22,0,3.44,3.44,0,0,0,4.93,0,3.6,3.6,0,0,0,0-5A46.71,46.71,0,0,0,244.25,519.15Z"/><path class="cls-9" d="M285.49,519.63a57.57,57.57,0,0,0-82.48,0,3.59,3.59,0,0,0,0,5,3.44,3.44,0,0,0,4.93,0,50.69,50.69,0,0,1,72.62,0,3.44,3.44,0,0,0,4.93,0A3.59,3.59,0,0,0,285.49,519.63Z"/><path class="cls-7" d="M1319.75,407.72a64,64,0,1,0,64,64A64.12,64.12,0,0,0,1319.75,407.72Zm0,12.28A51.76,51.76,0,1,1,1268,471.76,51.82,51.82,0,0,1,1319.75,420Z"/><path class="cls-10" d="M1053.75,1016.12h-359a12.33,12.33,0,0,1-12.33-12.33V677.12h383.72v326.67A12.34,12.34,0,0,1,1053.75,1016.12Z"/><rect class="cls-11" x="703.05" y="920.37" width="342.36" height="14.01" rx="3.4" ry="3.4"/><rect class="cls-11" x="703.05" y="874.99" width="342.36" height="14.01" rx="3.4" ry="3.4"/><rect class="cls-11" x="703.05" y="965.74" width="342.36" height="14.01" rx="3.4" ry="3.4"/><rect class="cls-10" x="680.06" y="282.69" width="388.34" height="72.81" rx="7.45" ry="7.45"/><rect class="cls-12" x="689.5" y="355.53" width="369.45" height="10.51"/><rect class="cls-11" x="689.5" y="355.53" width="369.45" height="3.68"/><rect class="cls-11" x="762.37" y="288.45" width="292.49" height="50.69" rx="3.38" ry="3.38"/><rect class="cls-13" x="969.02" y="292.15" width="78.36" height="32.87" rx="3.06" ry="3.06"/><rect class="cls-14" x="969.17" y="330.18" width="8.85" height="5.82"/><rect class="cls-14" x="1015.31" y="330.18" width="8.85" height="5.82"/><rect class="cls-14" x="992.24" y="330.18" width="8.85" height="5.82"/><rect class="cls-14" x="1038.38" y="330.18" width="8.85" height="5.82"/><rect class="cls-10" x="680.06" y="366.3" width="388.34" height="72.81" rx="7.45" ry="7.45"/><rect class="cls-12" x="689.5" y="439.14" width="369.45" height="10.51"/><rect class="cls-11" x="689.5" y="439.14" width="369.45" height="3.68"/><rect class="cls-11" x="762.37" y="372.06" width="292.49" height="50.69" rx="3.38" ry="3.38"/><rect class="cls-13" x="969.02" y="375.76" width="78.36" height="32.87" rx="3.06" ry="3.06"/><rect class="cls-14" x="969.17" y="413.79" width="8.85" height="5.82"/><rect class="cls-14" x="1015.31" y="413.79" width="8.85" height="5.82"/><rect class="cls-14" x="992.24" y="413.79" width="8.85" height="5.82"/><rect class="cls-14" x="1038.38" y="413.79" width="8.85" height="5.82"/><rect class="cls-10" x="680.06" y="449.91" width="388.34" height="72.81" rx="7.45" ry="7.45"/><rect class="cls-12" x="689.5" y="522.75" width="369.45" height="10.51"/><rect class="cls-11" x="689.5" y="522.75" width="369.45" height="3.68"/><rect class="cls-11" x="762.37" y="455.67" width="292.49" height="50.69" rx="3.38" ry="3.38"/><rect class="cls-13" x="969.02" y="459.37" width="78.36" height="32.87" rx="3.06" ry="3.06"/><rect class="cls-14" x="969.17" y="497.4" width="8.85" height="5.82"/><rect class="cls-14" x="1015.31" y="497.4" width="8.85" height="5.82"/><rect class="cls-14" x="992.24" y="497.4" width="8.85" height="5.82"/><rect class="cls-14" x="1038.38" y="497.4" width="8.85" height="5.82"/><rect class="cls-10" x="680.06" y="533.52" width="388.34" height="72.81" rx="7.45" ry="7.45"/><rect class="cls-12" x="689.5" y="606.36" width="369.45" height="10.51"/><rect class="cls-11" x="689.5" y="606.36" width="369.45" height="3.68"/><rect class="cls-11" x="762.37" y="539.28" width="292.49" height="50.69" rx="3.38" ry="3.38"/><rect class="cls-13" x="969.02" y="542.98" width="78.36" height="32.87" rx="3.06" ry="3.06"/><rect class="cls-14" x="969.17" y="581.01" width="8.85" height="5.82"/><rect class="cls-14" x="1015.31" y="581.01" width="8.85" height="5.82"/><rect class="cls-14" x="992.24" y="581.01" width="8.85" height="5.82"/><rect class="cls-14" x="1038.38" y="581.01" width="8.85" height="5.82"/><rect class="cls-11" x="689.5" y="689.97" width="369.45" height="3.68"/><rect class="cls-10" x="680.06" y="617.13" width="388.34" height="72.81" rx="7.45" ry="7.45"/><rect class="cls-11" x="762.37" y="622.89" width="292.49" height="50.69" rx="3.38" ry="3.38"/><rect class="cls-13" x="969.02" y="626.59" width="78.36" height="32.87" rx="3.06" ry="3.06"/><rect class="cls-14" x="969.17" y="664.62" width="8.85" height="5.82"/><rect class="cls-14" x="1015.31" y="664.62" width="8.85" height="5.82"/><rect class="cls-14" x="992.24" y="664.62" width="8.85" height="5.82"/><rect class="cls-14" x="1038.38" y="664.62" width="8.85" height="5.82"/><rect class="cls-15" x="802.85" y="750.81" width="142.76" height="27.63" rx="6.72" ry="6.72"/><rect class="cls-11" x="816.6" y="758.86" width="114.67" height="10.63" rx="2.28" ry="2.28"/><rect class="cls-15" x="802.85" y="803.77" width="142.76" height="27.63" rx="6.72" ry="6.72"/><rect class="cls-11" x="816.6" y="811.82" width="114.67" height="10.63" rx="2.28" ry="2.28"/><path class="cls-10" d="M1053.75,1016.12h-359a12.33,12.33,0,0,1-12.33-12.33V677.12h383.72v326.67A12.34,12.34,0,0,1,1053.75,1016.12Z"/><path class="cls-11" d="M1042.1,934.37H715.87a3.35,3.35,0,0,1-3.31-3.4v-7.2a3.35,3.35,0,0,1,3.31-3.4H1042.1a3.35,3.35,0,0,1,3.31,3.4V931A3.35,3.35,0,0,1,1042.1,934.37Z"/><path class="cls-11" d="M1042.1,889H715.87a3.35,3.35,0,0,1-3.31-3.4v-7.2a3.35,3.35,0,0,1,3.31-3.4H1042.1a3.35,3.35,0,0,1,3.31,3.4v7.2A3.35,3.35,0,0,1,1042.1,889Z"/><path class="cls-11" d="M1042.1,979.75H715.87a3.35,3.35,0,0,1-3.31-3.4v-7.2a3.36,3.36,0,0,1,3.31-3.41H1042.1a3.36,3.36,0,0,1,3.31,3.41v7.2A3.35,3.35,0,0,1,1042.1,979.75Z"/><rect class="cls-10" x="680.06" y="282.69" width="388.34" height="72.81" rx="7.45" ry="7.45"/><rect class="cls-12" x="689.5" y="355.53" width="369.45" height="10.51"/><rect class="cls-11" x="689.5" y="355.53" width="369.45" height="3.68"/><rect class="cls-11" x="762.37" y="288.45" width="292.49" height="50.69" rx="3.38" ry="3.38"/><rect class="cls-16" x="969.02" y="292.15" width="78.36" height="32.87" rx="3.06" ry="3.06"/><rect class="cls-5" x="969.17" y="330.18" width="8.85" height="5.82"/><rect class="cls-5" x="1015.31" y="330.18" width="8.85" height="5.82"/><rect class="cls-5" x="992.24" y="330.18" width="8.85" height="5.82"/><rect class="cls-5" x="1038.38" y="330.18" width="8.85" height="5.82"/><rect class="cls-10" x="680.06" y="366.3" width="388.34" height="72.81" rx="7.45" ry="7.45"/><rect class="cls-12" x="689.5" y="439.14" width="369.45" height="10.51"/><rect class="cls-11" x="689.5" y="439.14" width="369.45" height="3.68"/><rect class="cls-11" x="762.37" y="372.06" width="292.49" height="50.69" rx="3.38" ry="3.38"/><rect class="cls-16" x="969.02" y="375.76" width="78.36" height="32.87" rx="3.06" ry="3.06"/><rect class="cls-5" x="969.17" y="413.79" width="8.85" height="5.82"/><rect class="cls-5" x="1015.31" y="413.79" width="8.85" height="5.82"/><rect class="cls-5" x="992.24" y="413.79" width="8.85" height="5.82"/><rect class="cls-5" x="1038.38" y="413.79" width="8.85" height="5.82"/><rect class="cls-10" x="680.06" y="449.91" width="388.34" height="72.81" rx="7.45" ry="7.45"/><rect class="cls-12" x="689.5" y="522.75" width="369.45" height="10.51"/><rect class="cls-11" x="689.5" y="522.75" width="369.45" height="3.68"/><rect class="cls-11" x="762.37" y="455.67" width="292.49" height="50.69" rx="3.38" ry="3.38"/><rect class="cls-16" x="969.02" y="459.37" width="78.36" height="32.87" rx="3.06" ry="3.06"/><rect class="cls-5" x="969.17" y="497.4" width="8.85" height="5.82"/><rect class="cls-5" x="1015.31" y="497.4" width="8.85" height="5.82"/><rect class="cls-5" x="992.24" y="497.4" width="8.85" height="5.82"/><rect class="cls-5" x="1038.38" y="497.4" width="8.85" height="5.82"/><rect class="cls-10" x="680.06" y="533.52" width="388.34" height="72.81" rx="7.45" ry="7.45"/><rect class="cls-12" x="689.5" y="606.36" width="369.45" height="10.51"/><rect class="cls-11" x="689.5" y="606.36" width="369.45" height="3.68"/><rect class="cls-11" x="762.37" y="539.28" width="292.49" height="50.69" rx="3.38" ry="3.38"/><rect class="cls-16" x="969.02" y="542.98" width="78.36" height="32.87" rx="3.06" ry="3.06"/><rect class="cls-5" x="969.17" y="581.01" width="8.85" height="5.82"/><rect class="cls-5" x="1015.31" y="581.01" width="8.85" height="5.82"/><rect class="cls-5" x="992.24" y="581.01" width="8.85" height="5.82"/><rect class="cls-5" x="1038.38" y="581.01" width="8.85" height="5.82"/><rect class="cls-11" x="689.5" y="689.97" width="369.45" height="3.68"/><rect class="cls-10" x="680.06" y="617.13" width="388.34" height="72.81" rx="7.45" ry="7.45"/><rect class="cls-11" x="762.37" y="622.89" width="292.49" height="50.69" rx="3.38" ry="3.38"/><rect class="cls-16" x="969.02" y="626.59" width="78.36" height="32.87" rx="3.06" ry="3.06"/><rect class="cls-5" x="969.17" y="664.62" width="8.85" height="5.82"/><rect class="cls-5" x="1015.31" y="664.62" width="8.85" height="5.82"/><rect class="cls-5" x="992.24" y="664.62" width="8.85" height="5.82"/><rect class="cls-5" x="1038.38" y="664.62" width="8.85" height="5.82"/><rect class="cls-16" x="802.85" y="750.81" width="142.76" height="27.63" rx="6.72" ry="6.72"/><rect class="cls-11" x="816.6" y="758.86" width="114.67" height="10.63" rx="2.28" ry="2.28"/><rect class="cls-16" x="802.85" y="803.77" width="142.76" height="27.63" rx="6.72" ry="6.72"/><rect class="cls-11" x="816.6" y="811.82" width="114.67" height="10.63" rx="2.28" ry="2.28"/><path class="cls-16" d="M310.93,274.36a1.78,1.78,0,0,0-1.56-1.94l-12.43-1.37a35.44,35.44,0,0,0-3.09-7.46q3.9-4.87,7.81-9.76a1.77,1.77,0,0,0-.25-2.47,73.07,73.07,0,0,1-9.14-9.14,1.79,1.79,0,0,0-2.48-.26L280,249.78a35.44,35.44,0,0,0-7.46-3.09l-1.38-12.43a1.76,1.76,0,0,0-1.93-1.56,75.33,75.33,0,0,1-12.92,0,1.76,1.76,0,0,0-1.93,1.56q-.69,6.23-1.37,12.43a35,35,0,0,0-7.46,3.09q-4.89-3.9-9.76-7.82a1.78,1.78,0,0,0-2.47.26,75.15,75.15,0,0,1-9.14,9.14,1.77,1.77,0,0,0-.26,2.47l7.82,9.76a35.44,35.44,0,0,0-3.09,7.46l-12.43,1.37a1.79,1.79,0,0,0-1.57,1.94,73.36,73.36,0,0,1,0,12.92,1.79,1.79,0,0,0,1.57,1.93l12.43,1.37a35,35,0,0,0,3.09,7.46L224,307.8a1.77,1.77,0,0,0,.26,2.47,75.87,75.87,0,0,1,9.14,9.14,1.77,1.77,0,0,0,2.47.26l9.76-7.82a35,35,0,0,0,7.46,3.09q.67,6.21,1.37,12.43a1.78,1.78,0,0,0,1.93,1.57,73.36,73.36,0,0,1,12.92,0,1.78,1.78,0,0,0,1.93-1.57l1.38-12.43a35.44,35.44,0,0,0,7.46-3.09l9.76,7.82a1.77,1.77,0,0,0,2.47-.26,74.44,74.44,0,0,1,9.14-9.14,1.77,1.77,0,0,0,.25-2.47q-3.9-4.87-7.81-9.76a35,35,0,0,0,3.09-7.46l12.43-1.37a1.77,1.77,0,0,0,1.56-1.93A75.33,75.33,0,0,1,310.93,274.36Zm-48.12,26.92a20.47,20.47,0,1,1,20.47-20.46A20.46,20.46,0,0,1,262.81,301.28Z"/><path class="cls-7" d="M1153.78,74.61h0a47.05,47.05,0,0,0-47.06,47.05v46.25A16.5,16.5,0,0,0,1120,184.1a6.77,6.77,0,0,0,5.27-1.22l8.16-5.94a9.26,9.26,0,0,1,10.64-.19l6.31,4.26a8.7,8.7,0,0,0,9.95-.15l5.63-4.07a8.83,8.83,0,0,1,11.28.81l3.58,3.45a9.38,9.38,0,0,0,10.46,1.81,16.5,16.5,0,0,0,9.52-15V121.66A47.05,47.05,0,0,0,1153.78,74.61ZM1141,124.49a8.4,8.4,0,1,1-16.79,0V115a8.4,8.4,0,0,1,16.79,0Zm42.35,0a8.4,8.4,0,1,1-16.79,0V115a8.4,8.4,0,0,1,16.79,0Z"/><path class="cls-17" d="M551,686.09a11.39,11.39,0,1,0,16,.55c3.29-5.29,7-8.54,8.46-8.21l1-4.45c-5.29-1.17-10.7,6.13-13.17,10a11.33,11.33,0,0,0-8.33-.28c-2.56-4-7.85-10.86-13-9.7l1,4.44C544.3,678.15,547.78,681.14,551,686.09Zm14.54,8.36a6.84,6.84,0,1,1-6.85-6.83A6.86,6.86,0,0,1,565.52,694.45Z"/><path class="cls-17" d="M606,765.13l-8.44-28H587.45a56.37,56.37,0,0,0-1.33-9.68h9.4l5.14,5.12a5.63,5.63,0,0,0-.77,2.85,5.7,5.7,0,1,0,5.69-5.71,6,6,0,0,0-1.2.13l-7-7H584.91c-.32-1-.64-2-1-3q-.9-2.4-2-4.58c13.93-10.72,13.94-11,13.93-12.39V690.09a5.69,5.69,0,1,0-4.56.26l0,11.71c-1.62,1.43-6.61,5.39-11.62,9.26a31,31,0,0,0-7.41-8.27l-2-1.49L569,703.63a12.24,12.24,0,0,1-20.67-.08L547,701.48l-2,1.46a29.59,29.59,0,0,0-7,7.62c-4.65-3.59-9.07-7.09-10.58-8.42V690.43a5.69,5.69,0,1,0-4.56-.24l0,12.86c0,1.32,0,1.66,12.83,11.49a50.86,50.86,0,0,0-3.32,8.44h-11l-7,7a5.34,5.34,0,0,0-1.21-.13,5.7,5.7,0,1,0,4.94,2.84l5.12-5.13h7.94a57.43,57.43,0,0,0-1.24,9.68h-8.76l-8.36,28a5.7,5.7,0,1,0,4.43,1.08l7.33-24.54h5.44a28.59,28.59,0,0,0,18.57,24.35v.06l1.61.49,3,.91v-.17a29.4,29.4,0,0,0,5.55.53,28.52,28.52,0,0,0,5.84-.61v.18l3-1,1.58-.51V766a28.65,28.65,0,0,0,18.22-24.28h6.83l7.39,24.52a5.69,5.69,0,1,0,4.43-1.09Zm1.26-29.71a1.71,1.71,0,1,1-1.71-1.71A1.72,1.72,0,0,1,607.3,735.42Zm-14-52.11a1.71,1.71,0,1,1-1.71,1.71A1.71,1.71,0,0,1,593.28,683.31Zm-67.84.08a1.71,1.71,0,1,1-1.7,1.71A1.72,1.72,0,0,1,525.44,683.39Zm-12.18,53.86a1.71,1.71,0,1,1,1.71-1.72A1.72,1.72,0,0,1,513.26,737.25Zm.62,35.32a1.71,1.71,0,1,1,1.71-1.72A1.72,1.72,0,0,1,513.88,772.57Zm39.33-9.81,0-35.25,11.39,0,.05,35.18A24.41,24.41,0,0,1,553.21,762.76ZM569.16,761l0-38.11-20.5,0,0,38.25a24.08,24.08,0,0,1-14.12-22c0-14.25,5.65-25.64,11.49-31.14a16.8,16.8,0,0,0,25.26.08c7.65,7.16,11.66,20.65,11.67,31A24.13,24.13,0,0,1,569.16,761Zm35.91,11.41a1.71,1.71,0,1,1,1.7-1.71A1.72,1.72,0,0,1,605.07,772.45Z"/><path class="cls-6" d="M943.63,217.75V186.18a5.12,5.12,0,0,0,.08-.87v-.14a5.12,5.12,0,0,0-.08-.87V152.73a4.91,4.91,0,0,0,.08-.86c0-8.62-22.36-15.6-50-15.6s-49.94,7-49.94,15.6a4.91,4.91,0,0,0,.07.86V184.3a5.1,5.1,0,0,0-.07.87v.14a5.1,5.1,0,0,0,.07.87v31.57a4.91,4.91,0,0,0-.07.86c0,.13,0,.26,0,.39s0,.27,0,.4a5,5,0,0,0,.07.86v31.57a5.1,5.1,0,0,0-.07.87c0,8.61,22.36,15.59,49.94,15.59s50-7,50-15.59a5.12,5.12,0,0,0-.08-.87V220.26a5,5,0,0,0,.08-.86c0-.13,0-.26,0-.4s0-.26,0-.39A4.91,4.91,0,0,0,943.63,217.75Z"/><path class="cls-17" d="M945.79,184.13V152.86a6.71,6.71,0,0,0,.08-1c0-11.53-26.85-17.75-52.11-17.75s-52.1,6.22-52.1,17.75a6.71,6.71,0,0,0,.08,1v31.27a7.4,7.4,0,0,0-.08,1v.14a6.61,6.61,0,0,0,.08,1v31.28a7.26,7.26,0,0,0-.08,1c0,.13,0,.26,0,.39s0,.27,0,.4a6.83,6.83,0,0,0,.08,1v31.27a7.4,7.4,0,0,0-.08,1c0,11.53,26.85,17.75,52.1,17.75s52.11-6.22,52.11-17.75a7.4,7.4,0,0,0-.08-1V220.39a6.83,6.83,0,0,0,.08-1c0-.13,0-.26,0-.4s0-.26,0-.39a7.26,7.26,0,0,0-.08-1V186.3a6.61,6.61,0,0,0,.08-1v-.14A7.4,7.4,0,0,0,945.79,184.13Zm-17.35,77.54c-9.23,2.88-21.55,4.47-34.68,4.47s-25.44-1.59-34.67-4.47c-8.09-2.53-13.12-6-13.12-9a2.92,2.92,0,0,1,0-.5,2.22,2.22,0,0,0,0-.37V226.89l.09.06.44.33.18.13.64.45,0,0,.63.4.22.13.48.28.25.15.48.26.24.13.56.29.18.09.74.36.16.07.61.28.26.11.51.22.28.12.53.21.25.11.65.25.13,0,.78.28.22.08.56.2.28.09.51.17.28.09.53.17.24.08.76.22c9.51,2.83,21.94,4.38,35,4.38s25.5-1.55,35-4.38l.75-.22.25-.08.52-.17.28-.09.52-.17.27-.09.57-.2.21-.08.79-.28.13,0,.65-.25L934,231l.53-.21.27-.12.53-.22.25-.11.62-.28.14-.07.75-.36.17-.09.57-.29.24-.13.48-.27.25-.13c.16-.1.32-.2.49-.29l.2-.13.66-.41h0l.65-.45.17-.12.45-.34.09-.06v24.94a2.22,2.22,0,0,0,0,.37,2.92,2.92,0,0,1,0,.5C941.56,255.7,936.53,259.14,928.44,261.67Zm13.11-42.84a2.51,2.51,0,0,1,0,.27h0c-.2,1.14-1.79,5.14-14,8.76-9.12,2.7-21.12,4.19-33.78,4.19s-24.65-1.49-33.78-4.19c-12.16-3.61-13.76-7.61-14-8.76a1.93,1.93,0,0,1,0-.27c0-.07,0-.14,0-.22a2.91,2.91,0,0,1,0-.49,2.31,2.31,0,0,0,0-.37V192.8l.1.08.41.3.21.15c.2.15.41.3.63.44l.11.07.55.35.25.15.45.26.27.16.45.24a1.51,1.51,0,0,0,.28.15l.5.26.23.12.73.35.21.1.55.25.29.13.48.2.3.13.5.2.28.12.61.23.17.07.77.28.23.08.55.19.29.1.5.17.29.09.52.17.24.07.76.23c9.51,2.82,21.94,4.38,35,4.38s25.5-1.56,35-4.38l.75-.23.25-.07.52-.17.28-.09.52-.17.27-.1.57-.19.21-.08.79-.29.13-.05.65-.25.25-.1.53-.21.28-.12.51-.22.26-.12.62-.28.14-.06.75-.37.17-.08.57-.29L938,195l.48-.27.25-.14.48-.29.21-.12.65-.41,0,0,.65-.44.18-.13.44-.33.09-.07v24.95a2.31,2.31,0,0,0,0,.37,2.91,2.91,0,0,1,0,.49C941.56,218.69,941.55,218.76,941.55,218.83Zm0-34.16a4.19,4.19,0,0,1,0,.47v.07s0,.09,0,.13h-.06v.47a.43.43,0,0,1,0,.05s0,0,0,.06a.31.31,0,0,0,0,.08l0,.07a.16.16,0,0,1,0,.09.64.64,0,0,0,0,.07.36.36,0,0,0,0,.09.2.2,0,0,1,0,.08s0,.07,0,.11a.2.2,0,0,0,0,.08l-.06.11,0,.09s-.05.08-.07.13L941,187a1.64,1.64,0,0,1-.14.22l-.06.09-.11.15-.08.1a1.71,1.71,0,0,1-.11.14l-.1.12-.12.14-.11.12-.13.14-.13.13-.15.14-.14.14-.16.14-.16.14-.18.15-.17.14-.2.16-.19.14-.21.16-.21.15-.23.16-.23.15-.25.16-.25.15-.27.17-.27.15-.29.17-.29.16-.32.17-.3.15-.35.18-.32.15-.37.18-.35.16-.4.17-.36.16-.44.18-.38.16-.47.18-.39.15-.52.19-.4.15-.58.2-.4.13L929,194l-.35.12-1.09.33c-9.12,2.71-21.12,4.2-33.78,4.2s-24.65-1.49-33.78-4.2l-1.08-.33-.36-.12-.67-.22-.4-.13-.58-.2-.4-.15-.52-.19-.39-.15-.47-.18-.38-.16-.44-.18-.36-.16-.4-.17-.35-.16-.37-.17-.33-.16-.34-.18-.31-.15-.31-.17-.29-.16-.29-.17-.27-.15-.27-.17-.25-.15-.25-.16-.23-.15-.23-.16-.21-.15-.21-.16-.2-.14-.19-.16-.17-.14-.18-.15-.16-.14-.16-.14a1.85,1.85,0,0,1-.14-.14l-.15-.14-.13-.13-.13-.14-.11-.12-.12-.14-.1-.12a1.71,1.71,0,0,1-.11-.14l-.08-.1-.11-.15-.06-.09-.15-.22a.35.35,0,0,0-.05-.08s0-.09-.07-.13l-.05-.09-.06-.11a.59.59,0,0,0,0-.08.54.54,0,0,0,0-.11l0-.08,0-.09,0-.07,0-.09a.64.64,0,0,1,0-.07s0-.05,0-.08,0,0,0-.06a.43.43,0,0,1,0-.05v-.47H846s0-.09,0-.13v-.08a2.58,2.58,0,0,1,0-.46,2.22,2.22,0,0,0,0-.37V159.36l.09.07.44.32.18.13.64.45,0,0,.63.4.22.13.48.29.25.14.48.26.24.13.56.29.18.09.74.36.16.07.61.28.26.11.51.23.28.11.53.22.25.1.65.25.13.05.78.29.22.07.56.2.28.09.51.17.28.09.53.17.24.08.76.23c9.51,2.82,21.94,4.37,35,4.37s25.5-1.55,35-4.37l.75-.23.25-.08.52-.17.28-.09.52-.17.27-.09.57-.2.21-.07.79-.29.13-.05.65-.25.25-.1.53-.22.27-.11.53-.23.25-.11.62-.28.14-.07.75-.36.17-.09.57-.29.24-.13.48-.26.25-.14.49-.29a1.37,1.37,0,0,0,.2-.13l.66-.41h0l.65-.45.17-.12.45-.34.09-.06V184.3A2.22,2.22,0,0,0,941.51,184.67Zm0-32.77h-.08v.61s0,0,0,.06l0,.06a.19.19,0,0,0,0,.07l0,.07a.16.16,0,0,1,0,.09l0,.07a.3.3,0,0,0,0,.1.59.59,0,0,1,0,.08,1,1,0,0,0,0,.1l0,.08-.06.12,0,.08a.57.57,0,0,1-.08.13.41.41,0,0,1,0,.09l-.14.22-.06.08-.11.15s-.06.07-.08.11a1.71,1.71,0,0,0-.11.14l-.1.11-.12.14-.11.12-.13.14a1.59,1.59,0,0,1-.13.13l-.15.15-.14.13-.16.15-.16.14-.18.14-.17.15-.2.15a1.33,1.33,0,0,1-.19.14l-.21.16-.21.15-.23.16-.23.15-.25.16-.25.16-.27.16-.27.16-.29.16-.29.16-.32.17-.3.16-.35.17-.32.16-.37.17-.35.16-.4.18-.36.15-.43.18-.39.16-.47.18-.39.15L931,160l-.4.15-.57.2-.41.14-.67.22-.36.11-1.09.33c-9.12,2.71-21.12,4.2-33.78,4.2s-24.65-1.49-33.78-4.2l-1.08-.33-.36-.11-.67-.22-.41-.14-.57-.2-.4-.15-.52-.19-.39-.15-.47-.18-.39-.16-.43-.18-.36-.15-.4-.18-.35-.16-.37-.17-.32-.16-.35-.17-.3-.16-.32-.17-.29-.16-.29-.16-.27-.16-.27-.16-.25-.16-.25-.16-.23-.15-.23-.16-.21-.15-.21-.15-.2-.15-.19-.15-.17-.15-.18-.15-.16-.13-.16-.15-.14-.13-.15-.15-.13-.13-.13-.14-.11-.12-.12-.14-.1-.11-.11-.15a.39.39,0,0,1-.08-.1l-.11-.15-.06-.08-.15-.22,0-.09a.57.57,0,0,1-.08-.13l-.05-.09-.06-.11s0,0,0-.08a.31.31,0,0,0,0-.1l0-.08a1,1,0,0,0,0-.1l0-.07,0-.09s0,0,0-.06,0-.06,0-.08a.42.42,0,0,0,0-.06s0,0,0-.06v-.61H846v0c0-3,5-6.45,13.12-9,9.23-2.89,21.54-4.47,34.67-4.47s25.45,1.58,34.68,4.47c8.09,2.52,13.12,6,13.12,9Z"/><path class="cls-17" d="M854.81,173.82A4.17,4.17,0,1,0,859,178,4.17,4.17,0,0,0,854.81,173.82Z"/><path class="cls-16" d="M496.84,110.46a110.46,110.46,0,0,1,220.92,0V241H496.84Zm183.09,0a72.63,72.63,0,0,0-145.26,0v92.67H679.93Z"/><rect class="cls-5" x="453.07" y="150.09" width="308.46" height="274.77" rx="4.68" ry="4.68" transform="translate(1214.6 574.94) rotate(180)"/><path class="cls-17" d="M636.74,213.83a28.22,28.22,0,1,0-35.25,27.3V282.4h-6.23v12.44h6.23V343h-14v12.44h14v0h16.86V240.26A28.21,28.21,0,0,0,636.74,213.83Z"/><path class="cls-18" d="M433.81,978.58l11.85-1a4.88,4.88,0,0,0,4.38-5.31l-1.9-23.18-21.41,1.84,1.9,23.19A4.83,4.83,0,0,0,433.81,978.58Z"/><path class="cls-10" d="M417.13,969.66A21.08,21.08,0,0,1,427.72,963l.41,5.07a10.71,10.71,0,0,0,21.31.78c0-.11.11-.22.15-.34s43.85,25.15,47.89,30.55,5.8,13.42-2.12,14.35-74.59,4.35-76,1.88S412.33,975.51,417.13,969.66Z"/><path class="cls-18" d="M343.83,973.74l11.88.5a4.85,4.85,0,0,0,5-4.71l.93-23.25-21.46-.91-.94,23.25A4.89,4.89,0,0,0,343.83,973.74Z"/><path class="cls-10" d="M328.36,962.74a21,21,0,0,1,11.33-5.3l-.21,5.09A10.91,10.91,0,0,0,349.77,974a10.76,10.76,0,0,0,10.75-8c.06-.11.14-.2.2-.32s40.45,30.56,43.8,36.44,4.12,14.06-3.85,14-74.54-5.23-75.65-7.87S322.89,967.94,328.36,962.74Z"/><path class="cls-10" d="M468.58,490.15,454.82,952.39H421.16L399.3,636.11,366.73,952.39l-29.08-2.59,17.77-457,7.73-10.28S407.87,495.43,468.58,490.15Z"/><path class="cls-18" d="M444.48,231.12s10.64,43.72-7.17,59.48-24.22,6.57-24.22,6.57l-1.4,4.53-17-.46s-.79-29.64,1.85-36c-3.58-12.35.51-32.7,21.33-18.57,2.09-12.34,14.74-21.21,14.74-21.21l-2.11,7.76Z"/><path class="cls-19" d="M367.82,206c40.08-40.79,75.47-12.28,75.47-12.28s26.34-8.16,34,13.34c12.15,34.31-31,33.45-31,33.45h0c-.84-5.65-1.74-9.38-1.74-9.38l-14,2.14,2.11-7.76s-12.65,8.87-14.74,21.21c-20.82-14.13-24.91,6.22-21.33,18.57,4.14,5.43,14.13,9.58,11.66,15.24a34.48,34.48,0,0,1-3.26,5.37c-6.22,8.8-20.7,4-27.8-4.09C358,260,366.91,230,366.91,230S354.78,221.78,367.82,206Z"/><path class="cls-7" d="M423.28,301.7s-28.55,3.49-37.34-2.42c-9.33,1.13-37.61,14.36-46.4,47.3s15.88,146.25,15.88,146.25l7.73-10.28s54.37,16.61,105.43,7.6c-1.09-40-1.37-101.9-1.37-101.9S513.61,421.48,549,415s39-119.38,39-119.38l-23.34-10.13S557.27,357,532,364.32C517.46,367.42,468,297.64,423.28,301.7Z"/><path class="cls-20" d="M467.21,388.25s.28,61.92,1.37,101.9a171.62,171.62,0,0,1-17.95,2.17s2.06-60.5-3-79.44-10.12-49.66-3.15-64C449.41,364.06,467.21,388.25,467.21,388.25Z"/><path class="cls-20" d="M363.15,482.55S352.71,372.6,355,354c-4.93,15.93,18.3,131.26,18.3,131.26Z"/><path class="cls-21" d="M399.3,636.11V554.8s-12.64-7-20.43-24.93c8.76,84.29,12.77,180.62,12.77,180.62Z"/><path class="cls-18" d="M564.68,285.49s-1.52-29.24,4.85-36.5,12-9.07,7.43,0-4.6,10.89-1.41,12.7,11.85,2.9,12.47,11.25-5.75,14.87-5.75,14.87l-1,4.87Z"/><path class="cls-16" d="M1159,789s33.53-129.6,84.76-132.86S1191,789,1191,789Z"/><path class="cls-5" d="M1133.38,727.92s-14.34-93.81-35.44-95-11.3,48.47-3.77,83.91S1106.61,789,1106.61,789h29Z"/><path class="cls-7" d="M1098.43,738.28s-22-49.59-44.56-45.92-12.52,33.06,15.7,62.57c24.63,25.77,32.34,34,32.34,34h12.61Z"/><path class="cls-22" d="M1170.51,787.6c4.53-8.68,9.27-17.11,14.16-25.49s9.91-16.63,15.2-24.7,10.69-16.06,16.55-23.66a199.64,199.64,0,0,1,18.74-21.59,201.12,201.12,0,0,0-17.68,22.49c-5.47,7.86-10.47,16.1-15.36,24.38s-9.49,16.78-14,25.33-8.8,17.23-12.85,25.95Z"/><path class="cls-22" d="M1119.8,789.33q-3.39-32.87-7.87-65.67c-1.53-10.92-3.18-21.82-5-32.67s-4-21.68-7.32-32.13c3.78,10.29,6.24,21.08,8.64,31.83s4.42,21.61,6.39,32.47q5.85,32.6,10.57,65.42Z"/><polygon class="cls-22" points="1108.79 790.61 1061.74 712.97 1113.24 787.3 1108.79 790.61"/><path class="cls-6" d="M1128.83,789s1.13-132,42.19-157.7,8.42,98.64,8.42,98.64l-11,59.06Z"/><path class="cls-22" d="M1145.2,787.41c1-11.26,2.2-22.39,3.66-33.53s3.18-22.21,5.25-33.23,4.47-22,7.61-32.69a151.7,151.7,0,0,1,5.43-15.8,67.34,67.34,0,0,1,7.83-14.51,67.55,67.55,0,0,0-7.21,14.79,155.28,155.28,0,0,0-4.76,15.93c-2.68,10.78-4.62,21.77-6.24,32.8s-2.86,22.12-3.88,33.24-1.81,22.27-2.3,33.37Z"/><path class="cls-11" d="M1160.38,779.67c-3.69,9.37-5.83,21-1.3,32,6.87,16.69,19.15,14.43,30.93,27.12l2.75-50.84A124.62,124.62,0,0,0,1160.38,779.67Z"/><path class="cls-11" d="M1142.47,842c-11.7-24.3-7.73-48.39-3.23-62.84a139.07,139.07,0,0,0-39.94,8.75L1101,819a101.86,101.86,0,0,0,14.45,19.73c13.92,14.29,30.19,58.13-10.37,55.8l2.12,39.14C1163.73,937.54,1159.66,877.7,1142.47,842Z"/><path class="cls-10" d="M1115.43,838.75A101.86,101.86,0,0,1,1101,819l4.08,75.53C1145.62,896.88,1129.35,853,1115.43,838.75Z"/><path class="cls-10" d="M1172.84,933.87c-1.43-30.53,14.15-39.23,14.15-39.23h0l3-55.89c-11.78-12.69-24.06-10.43-30.93-27.12-4.53-11-2.39-22.59,1.3-32a120.9,120.9,0,0,0-21.14-.51c-4.5,14.45-8.47,38.54,3.23,62.84,17.19,35.7,21.26,95.54-35.29,91.69l2.64,48.88C1157.41,996.59,1174.14,961.92,1172.84,933.87Z"/><path class="cls-11" d="M1180.43,1016.12,1187,894.64h0s-15.58,8.7-14.15,39.23c1.3,28-15.43,62.72-63,48.7l1.81,33.55Z"/><path class="cls-17" d="M1186.06,361.2l0,0c.05-5.5,5.5-10,11-10h0a10.1,10.1,0,0,1-10-10l0,0c0,5.5-5.5,10-11,10h0C1184.23,351.23,1186,355.66,1186.06,361.2Z"/><path class="cls-17" d="M1186.31,367.67l-.06.06a17.69,17.69,0,0,1-17.51,17.51l0,0c12.32.11,17.46,7.88,17.53,17.57l.06-.07a17.68,17.68,0,0,1,17.51-17.5v0A17.69,17.69,0,0,1,1186.31,367.67Z"/><path class="cls-17" d="M1179.06,363.78c-16.87-.15-29.5-13.82-29.61-30.69l-.11.11c-.17,16.81-14.77,30.41-31.58,30.58l0,0c16.86.15,31.5,13.81,31.61,30.69l.11-.11c.17-16.82,12.76-30.42,29.58-30.58Z"/></g></g></g></svg>