<svg xmlns="http://www.w3.org/2000/svg" xmlns:xlink="http://www.w3.org/1999/xlink" viewBox="0 0 368.99 341.4"><defs><style>.cls-1{isolation:isolate;}.cls-2{fill:#e6e6e5;}.cls-14,.cls-16,.cls-3{fill:none;}.cls-4{fill:#00799f;}.cls-5{fill:#045176;}.cls-6{fill:#03405d;}.cls-7{fill:#1d2a3e;}.cls-8{fill:#151f30;}.cls-12,.cls-17,.cls-9{fill:#293b55;}.cls-10{fill:url(#Degradado_sin_nombre_2);}.cls-11,.cls-15{fill:#fff;}.cls-11{opacity:0.14;}.cls-12{opacity:0.2;}.cls-12,.cls-17{mix-blend-mode:multiply;}.cls-13{fill:url(#Degradado_sin_nombre_59);}.cls-14,.cls-16{stroke:#fff;stroke-miterlimit:10;}.cls-14{stroke-width:0.46px;}.cls-16{stroke-width:1.01px;}.cls-17{opacity:0.5;}</style><linearGradient id="Degradado_sin_nombre_2" x1="75.59" y1="273.07" x2="308.74" y2="147.64" gradientUnits="userSpaceOnUse"><stop offset="0" stop-color="#07d9f4"/><stop offset="1" stop-color="#5affff"/></linearGradient><linearGradient id="Degradado_sin_nombre_59" x1="140.24" y1="185.15" x2="273.91" y2="9.41" gradientUnits="userSpaceOnUse"><stop offset="0" stop-color="#293b55"/><stop offset="1" stop-color="#0091ed"/></linearGradient></defs><title>Asset 2</title><g class="cls-1"><g id="Layer_2" data-name="Layer 2"><g id="OBJECTS"><path class="cls-2" d="M36.61,250.89c17.84-43.53-13.82-67.9-25.14-105s.66-64.82,50.81-57C132.47,99.74,139,65.42,165.87,58.17c22-5.93,60.51,38.72,130.55,9.11,33.86-14.31,66.83,7.24,42.24,54.46-17.45,33.51-35.61,55.51-34.91,71.91,1.29,30.21,42.46,65.94,33.46,98.69-6.08,22.16-40.69,32.23-81,17.76-44.69-16.06-58.41-3.6-98.05,9.61-49,16.35-25.37-39.44-69.85-32.77"/><circle class="cls-2" cx="75.23" cy="83.05" r="24.19" transform="translate(-33.62 56.46) rotate(-34.1)"/><path class="cls-2" d="M35.37,75.55A3.41,3.41,0,1,1,32,72.14,3.41,3.41,0,0,1,35.37,75.55Z"/><path class="cls-2" d="M357,91.22a7.16,7.16,0,1,1-7.15-7.15A7.15,7.15,0,0,1,357,91.22Z"/><path class="cls-2" d="M347.13,62.6a2,2,0,1,1-2-2A2,2,0,0,1,347.13,62.6Z"/><circle class="cls-2" cx="119.87" cy="313.38" r="11.93"/><path class="cls-2" d="M18.33,270.45a10.57,10.57,0,1,1,21.13,0"/><path class="cls-3" d="M315,148.3a2,2,0,0,0,1.26-.15l.1,0a1.25,1.25,0,0,0,1.06-1,1.88,1.88,0,0,0-1.29-1.86,1.84,1.84,0,0,0-2.37,1.51A1.39,1.39,0,0,0,315,148.3Z"/><path class="cls-3" d="M302.18,145.43c.47,1,1.57,2.23,2.78,2.22a.67.67,0,0,0,.68-.55c.59-.69,0-1.93-.33-2.62s-1.1-1.95-2.14-1.82C301.86,142.83,301.74,144.47,302.18,145.43Z"/><path class="cls-3" d="M308.11,155.31c-.68.92,0,2.05.83,2.6a3.75,3.75,0,0,0,3.63.05l.09-.05a3.17,3.17,0,0,0,1.42-1.41.9.9,0,0,0-.27-1.09,2.37,2.37,0,0,0-1.34-.47,5.65,5.65,0,0,0-1.81-.4A2.87,2.87,0,0,0,308.11,155.31Z"/><path class="cls-3" d="M304.92,161.63a1,1,0,0,0-.41,1.52,4.67,4.67,0,0,0,4.39,1.49.92.92,0,0,0,.89-1.26C309.11,161.63,306.51,161.17,304.92,161.63Z"/><path class="cls-3" d="M295.64,150.36c.52.93,1.41,2.49,2.56,2.84a3.67,3.67,0,0,0,.72.42,1,1,0,0,0,1.36-.53c1.4-3.05-1.91-7.06-4.8-7.76-.68-.16-1.18.52-1.15,1.12A9.31,9.31,0,0,0,295.64,150.36Z"/><path class="cls-3" d="M296.06,157.28c-.73-1.23-3.48-3.87-4.64-2.24-.69,1,.29,2.34,1.08,2.89a6.35,6.35,0,0,0,1.69.79,4.84,4.84,0,0,0,.93.22,2.36,2.36,0,0,0,.46,0c.08,0,.5-.11.23-.06C296.61,158.74,296.8,157.54,296.06,157.28Z"/><path class="cls-3" d="M337,173.23a41.85,41.85,0,0,1-7.39-1.77,50.07,50.07,0,0,0-8.54-1.87,11.39,11.39,0,0,0-3.95,0c-1.41.36-.77,1.44-.07,2.26,2.68,3.11,7.53,4.83,11.56,4.75a13,13,0,0,0,4.66-1.11,11.48,11.48,0,0,0,3.26-1.7A2.37,2.37,0,0,0,337,173.23Z"/><path class="cls-4" d="M349.66,162.2c.17-.58.65-3.53.16-3.17a11.85,11.85,0,0,1-6.18,2.24c-2.14.17-4.88.42-7,.4a117,117,0,0,1-12.34-.67c-1.8-.18-4-.64-5.29-2-.74-.77.24-1.22.91-1.47a25,25,0,0,1,7.69-1.12c5.5-.25,11.17.28,16.56-1,3-.73,6-2.08,6.89-5.12.65-2.31,1-9.53,1-9.53a3.22,3.22,0,0,0-1,.66l0,0a34.82,34.82,0,0,1-4.51,2.16c-2.26,1.16-6.48,2-8,2.43-4.62,1.22-6,.79-10.79,1.26-2,.2-3.53-.3-5.55-.69a4,4,0,0,1-2.46-1.22c-.69-.9.28-1.84,1-2.31a15.5,15.5,0,0,1,4.67-1.75,43,43,0,0,1,7.13-1.13,48.93,48.93,0,0,0,6.93-1.06,25.29,25.29,0,0,0,6.24-2.55c3.54-2,6.7-5.15,6.32-9.5,0-.12-.19-.55-.24-.7s-1.09-2.48-1.58-3.43c-.09-.16-.18-.32-.26-.48l-.43.41a32.89,32.89,0,0,1-3.07,2.57,46.83,46.83,0,0,1-7.29,4.68,12.4,12.4,0,0,1-4.58,1.56c-1.19.07-2.79-.37-2.86-1.82s1.19-2.37,2.14-3.09a31.65,31.65,0,0,1,3.9-2.47c3.19-1.76,8.24-2.73,8.81-6.33.32-2.07-.95-3-1.54-5.67a39.69,39.69,0,0,1-.93-5.85,26.05,26.05,0,0,1-5.3-.2c-2-.33-3.8-1.49-5.14-.24a8.84,8.84,0,0,0-1.36,1.69,14.94,14.94,0,0,0-1.62,4,19.18,19.18,0,0,1-2.18,6.48c-.22.39-1.27,1.15-1.62.9-2.25-1.63-.95-5.53-.24-7.62a30.85,30.85,0,0,1,3.23-6.66c.11-.18.22-.35.34-.52a10,10,0,0,0-4,.11c-3.16.84-4.84,4.6-5.71,7.43-1.34,4.31-.69,8.93-1.66,13.32a13.41,13.41,0,0,1-1,3.09,1.76,1.76,0,0,1-1.1,1.05c-.58.11-1.15-.5-1.39-1-1-1.85-.25-4.43-.16-6.41.23-5-.42-10,.26-15,.09-.69.22-1.38.37-2.07a4.72,4.72,0,0,1,.4-1.29c.61-1.11-.61-.39-1.21-.25a12.16,12.16,0,0,1-1.33.19c-1.12.17-2.25.31-3.36.57a8.13,8.13,0,0,0-4.54,2.59c-2.71,3.18-2.36,8-1.83,11.83.39,2.83,1.07,5.52,1.73,8.29s1.45,6,1.17,9c-.07.75-.26,1.92-1.15,2.12a2.66,2.66,0,0,1-2.62-1.4c-1.68-2.37-2.09-5.73-2.44-8.53s-.41-5.79-.55-8.68c-.22-4.43-.22-9,1.9-13a.36.36,0,0,0,.11-.13c0-.09.07-.19.11-.28a8.45,8.45,0,0,1,1-1.82c.16-.22-9.22.51-13,2.85a10.44,10.44,0,0,0-4.94,10c.29,3.93,2.08,7.65,3.59,11.24.73,1.75,1.33,3.54,2,5.32a16.9,16.9,0,0,1,1.47,6.15,2.75,2.75,0,0,1-.45,2s0,0,0,.06a.7.7,0,0,1-.79-.11,3.42,3.42,0,0,1-.5-.55,11.88,11.88,0,0,1-1.17-2.27c-.9-2.08-1.86-4.12-2.94-6.12a56,56,0,0,1-3.6-7.44c-.87-2.38-1.59-5.36-.19-7.68.07-.12-8.5,1.47-10.83,4.79s-2.05,7.36-.4,10.87c1.54,3.27,4,5.55,6.77,7.79a41.08,41.08,0,0,1,4.25,3.88c1,1.14,2.12,2.56,2.08,4.18-.08,3.63-7.74-.8-9-1.54a26.75,26.75,0,0,1-5.92-4.37,17.66,17.66,0,0,1-4.35-9.23c0-.19-3.73,6.6-3.66,10.4a12.43,12.43,0,0,0,3.09,8.54c2.16,2.24,5.11,2.92,8.06,3.45,2.48.44,6.17.88,8,3a2.56,2.56,0,0,1,.2.26c.83,1.76-.91,2.58-2.44,2.45a13.2,13.2,0,0,1-4-1.15,16.64,16.64,0,0,1-3.53-1.89c-1.46-1.09-2.58-2.57-4-3.71-.24-.19.36,7.45,3.16,10.14s5.87,5.25,9.56,6.62c2.36.88,4,1.27,6.34.61a14.87,14.87,0,0,0,4.23-1.86c2.79-2.07,4.4.85,2.46,5.36-1.32,3.09.88,6.57,3.07,9,2.33,2.62,6.9,5.34,10.36,5.79,3.23.43,11.82-1,13.94-2.84-3-.87-9.47-2.82-12.19-6.55a10.88,10.88,0,0,1-2.06-7.71c2.4,3.74,6.14,6.39,9.6,9.09,2.62,2.05,5.58,4.08,9,4.22s6.38-2.06,8.58-4.53a23.9,23.9,0,0,0,3.34-4.87,10.31,10.31,0,0,0,1.34-4.29,13.1,13.1,0,0,0,5.25-.57C347.45,171.13,348.43,166.35,349.66,162.2ZM295.58,159a2.36,2.36,0,0,1-.46,0,4.84,4.84,0,0,1-.93-.22,6.35,6.35,0,0,1-1.69-.79c-.79-.55-1.77-1.93-1.08-2.89,1.16-1.63,3.91,1,4.64,2.24.37.36.55,1.46-.25,1.61C296.08,158.84,295.66,158.94,295.58,159Zm3.34-5.33a3.67,3.67,0,0,1-.72-.42,10,10,0,0,1-2.56-2.84,9.31,9.31,0,0,1-1.31-3.91c0-.6.47-1.28,1.15-1.12,2.89.7,6.2,4.71,4.8,7.76A1,1,0,0,1,298.92,153.62Zm6-6c-1.21,0-2.31-1.18-2.78-2.22s-.32-2.6,1-2.77c1-.13,1.75,1.05,2.14,1.82a3.13,3.13,0,0,1,.33,2.62C305.5,147.38,305.36,147.64,305,147.65Zm11.14-2.4a1.88,1.88,0,0,1,1.29,1.86,1.25,1.25,0,0,1-1.06,1l-.1,0a2.58,2.58,0,0,1-1.26.15,1.39,1.39,0,0,1-1.24-1.54A1.84,1.84,0,0,1,316.1,145.25Zm-8,10.06a2.87,2.87,0,0,1,2.55-.77,12.74,12.74,0,0,1,1.81.4,3.36,3.36,0,0,1,1.34.47.9.9,0,0,1,.27,1.09,3.17,3.17,0,0,1-1.42,1.41l-.09.05a3.75,3.75,0,0,1-3.63-.05C308.15,157.36,307.43,156.23,308.11,155.31Zm.79,9.33a4.67,4.67,0,0,1-4.39-1.49,1,1,0,0,1,.41-1.52c1.59-.46,4.19,0,4.87,1.75A.92.92,0,0,1,308.9,164.64Zm27.65,9.13a11.48,11.48,0,0,1-3.26,1.7,13,13,0,0,1-4.66,1.11c-4,.08-8.88-1.64-11.56-4.75-.7-.82-1.34-1.9.07-2.26a11.39,11.39,0,0,1,3.95,0,50.07,50.07,0,0,1,8.54,1.87,41.85,41.85,0,0,0,7.39,1.77A2.37,2.37,0,0,1,336.55,173.77Z"/><path class="cls-5" d="M294.28,169.52l1.51-2.21c2.16,2.47,4.12,9.79,4.45,10.43.16.32.33.66.51,1-.12-1.39-.89-8.48-4-12.68.42-.59.54-.91,1-1.5a11.05,11.05,0,0,1,3.86.93,25.35,25.35,0,0,1,5,3.42c2.66,2.14,8.21,6.68,8.55,6.15-1.13-1.29-2.22-2.62-3.38-3.86a33.24,33.24,0,0,0-7.35-5.91,13.91,13.91,0,0,0-5.71-2.12q1.35-1.83,2.71-3.63c6.6.25,18.83,4.45,19,3.93l-1.15-.4c-5.09-1.79-11.19-5.08-16.89-4.85l4.67-6.08h.09c5.72-1.2,17.82-1.37,18.73-1.72l-.52,0c-3.63-.14-7.26-.57-10.88-.85a18.06,18.06,0,0,0-5.55.17c2.67-3.47,6.48-7.66,9.29-11,3.61-1.29,11.32-3.42,11.85-3.87-3.15.17-6.9.3-10.11,1.32,1.19-1.39,2.37-2.77,3.57-4.14,2.65-3,5.23-6.06,7.72-9.22,2.09-2.65,4.75-4.76,6.05-8a.2.2,0,0,0-.36-.17c-1.61,3.24-4.26,5.44-7,7.75a58.9,58.9,0,0,0-5.71,5.79c-.05-.66-.15-1.33-.2-2-.16-1.8-.33-3.6-.49-5.41,0-.16,0-.32,0-.48-.54.2-1.48,8-1.33,10.22l-.17.19c-2.74,3.09-5.48,6.21-8.15,9.4a33.72,33.72,0,0,0-.93-5.67c-.52-2.58-1.22-5.12-1.8-7.69-.3-1.32-.57-2.62-.79-3.9-.09.6-.16,1.21-.2,1.83a58.08,58.08,0,0,0,.73,8.56c.67,3,.12,6.28,1.11,9.16-1.78,2.18-3.51,4.39-5.16,6.64-.76,1-1.54,2.06-2.33,3.07-.81-2.7-2.82-5.29-3.74-7.84-1.31-3.64-2.4-7.36-3.46-11.09-.54-1.93-1.17-3.84-1.74-5.77.06.95.13,1.88.2,2.78s3.51,17,7.3,23.77l-2.9,3.69c-1.26-2.49-3.78-4.54-5.76-6.35-3.15-2.88-6.25-5.81-9.1-9a60.74,60.74,0,0,1-4.4-5.4,56.76,56.76,0,0,0,2.56,5.24c.19.31,2.45,3.12,2.5,3.42,1.49,1.59,2.55,2.62,4.12,4.12s3.37,3.1,5,4.68c1.48,1.41,2.67,3.06,4.08,4.51-.85,1.1-1.7,2.21-2.53,3.33-1.64-1.76-4.22-2.84-6.3-3.8a66.93,66.93,0,0,0-8.51-3.08l-2.06-.63.43.37a42.42,42.42,0,0,0,7.29,4.28c1.6.62,3.16,1.33,4.69,2.1,1.21.61,2.34,1.4,3.57,2q-.72,1-1.41,2c-3.56-.56-7.46.36-11,.58-.86,0-1.76.1-2.66.09.73.6,4.81,1.17,6.36.95,2-.28,4.4,0,6.34-.17-4.05,6.2-11.55,14.88-17.35,19.52a1,1,0,0,0,1.19,1.72C283.11,184.16,290.42,175.29,294.28,169.52Z"/><path class="cls-3" d="M55.29,169.39a2,2,0,0,0-.62-1.12l-.05-.08a1.26,1.26,0,0,0-1.36-.59,1.88,1.88,0,0,0-1.21,1.91,1.84,1.84,0,0,0,2.3,1.61A1.38,1.38,0,0,0,55.29,169.39Z"/><path class="cls-3" d="M57.58,182.29c.77-.83,1.45-2.31,1-3.42a.67.67,0,0,0-.76-.42c-.87-.28-1.8.72-2.3,1.32s-1.38,1.77-.85,2.67C55.3,183.58,56.86,183.07,57.58,182.29Z"/><path class="cls-3" d="M64.41,173c1.1.28,1.87-.82,2.08-1.77a3.75,3.75,0,0,0-1.35-3.37l-.09-.06a3.2,3.2,0,0,0-1.84-.77.91.91,0,0,0-.91.67,2.37,2.37,0,0,0,.09,1.42,5.37,5.37,0,0,0,.32,1.82C63,171.77,63.49,172.78,64.41,173Z"/><path class="cls-3" d="M71.47,173.52a1,1,0,0,0,1.56-.21,4.66,4.66,0,0,0-.32-4.62.91.91,0,0,0-1.5-.34C69.85,169.65,70.43,172.23,71.47,173.52Z"/><path class="cls-3" d="M64.64,186.42c.66-.83,1.76-2.26,1.63-3.45a3.87,3.87,0,0,0,.12-.83,1,1,0,0,0-1-1c-3.36-.11-5.79,4.48-5.31,7.42a1,1,0,0,0,1.47.63A9.3,9.3,0,0,0,64.64,186.42Z"/><path class="cls-3" d="M70.87,183.37c-.86,1.15-2.23,4.7-.28,5.15,1.15.26,2-1.17,2.25-2.12a6.44,6.44,0,0,0,.08-1.86,5.13,5.13,0,0,0-.16-.94,2.26,2.26,0,0,0-.17-.43c0-.07-.29-.42-.14-.19C72,182.3,70.82,182.59,70.87,183.37Z"/><path class="cls-3" d="M69.8,139.43a41.31,41.31,0,0,1,1.22,7.5,50,50,0,0,0,1.56,8.6,11.6,11.6,0,0,0,1.51,3.65c.87,1.17,1.62.16,2.11-.81,1.84-3.66,1.56-8.8-.07-12.5A13,13,0,0,0,73.3,142a11.71,11.71,0,0,0-2.81-2.35A3.07,3.07,0,0,0,69.8,139.43Z"/><path class="cls-4" d="M54.75,132c-.59.07-3.5.76-3,1.08a11.93,11.93,0,0,1,4.45,4.84c1,1.91,2.26,4.34,3.06,6.31a115.48,115.48,0,0,1,4.14,11.65c.54,1.73.94,3.91.2,5.64-.41,1-1.21.25-1.7-.26a25,25,0,0,1-4-6.67c-2.35-5-4.05-10.42-7.34-14.88-1.82-2.47-4.25-4.78-7.38-4.39-2.38.3-9.2,2.71-9.2,2.71a3.2,3.2,0,0,0,1,.67l0,0a32.89,32.89,0,0,1,3.73,3.33c1.95,1.64,4.36,5.19,5.33,6.45,2.91,3.79,3,5.25,5.32,9.47,1,1.8,1.08,3.38,1.5,5.39a4,4,0,0,1-.17,2.74c-.57,1-1.81.45-2.51,0a16,16,0,0,1-3.42-3.63A42.64,42.64,0,0,1,41,156.34a51.42,51.42,0,0,0-3.66-6,25,25,0,0,0-4.75-4.77c-3.19-2.51-7.33-4.2-11.2-2.17a5.73,5.73,0,0,0-.55.49c-.15.14-1.87,2-2.56,2.78l-.35.42.55.23A35.35,35.35,0,0,1,22,149.19a48.33,48.33,0,0,1,7.13,4.92,12.63,12.63,0,0,1,3.2,3.63c.52,1.07.73,2.72-.59,3.34s-2.64-.19-3.67-.78a30.9,30.9,0,0,1-3.78-2.65c-2.85-2.27-5.69-6.56-9.24-5.69-2,.5-2.39,2-4.63,3.61a40.49,40.49,0,0,1-5,3.11,25.4,25.4,0,0,1,1.85,5c.49,2,.09,4.08,1.77,4.84a9.07,9.07,0,0,0,2.08.61,15.24,15.24,0,0,0,4.32-.05,19.34,19.34,0,0,1,6.82-.5c.45.06,1.55.74,1.45,1.15-.63,2.71-4.73,3-6.93,3.16a31,31,0,0,1-7.4-.41l-.61-.11A10.14,10.14,0,0,0,10.4,176c2,2.6,6.11,2.69,9.06,2.41,4.5-.43,8.51-2.81,12.93-3.6a13.2,13.2,0,0,1,3.26-.23,1.8,1.8,0,0,1,1.39.61c.32.49,0,1.26-.34,1.65-1.34,1.6-4,1.94-5.85,2.62-4.7,1.71-9.07,4.25-13.92,5.54-.68.18-1.37.33-2.06.45a4.76,4.76,0,0,1-1.35.13c-1.25-.14-.12.71.24,1.21s.46.77.69,1.15c.58,1,1.15,2,1.82,2.88A8,8,0,0,0,20.41,194c4,1.28,8.27-.89,11.62-2.86,2.46-1.45,4.68-3.12,7-4.79s5-3.65,7.85-4.55c.72-.22,1.87-.5,2.4.24a2.66,2.66,0,0,1-.29,3c-1.54,2.46-4.47,4.14-6.93,5.55s-5.18,2.6-7.79,3.85c-4,1.91-8.25,3.67-12.78,3.27a.25.25,0,0,0-.16-.05H21a8.51,8.51,0,0,1-2.07-.21c-.25-.06,4,8.31,7.65,10.91a10.4,10.4,0,0,0,11.1.71c3.52-1.78,6.27-4.87,9-7.63,1.33-1.36,2.75-2.59,4.14-3.87a17,17,0,0,1,5.11-3.73,2.81,2.81,0,0,1,2-.36H58a.68.68,0,0,1,.2.77,2.64,2.64,0,0,1-.32.66,11,11,0,0,1-1.63,2c-1.58,1.64-3.09,3.31-4.52,5.08a57.47,57.47,0,0,1-5.48,6.19c-1.86,1.71-4.33,3.53-7,3.13-.14,0,4.63,7.27,8.59,8.14s7.59-.94,10.19-3.81c2.42-2.68,3.56-5.87,4.58-9.26a40.07,40.07,0,0,1,1.94-5.41c.65-1.4,1.55-2.94,3-3.53,3.39-1.32,2.25,7.45,2.06,8.93a25.81,25.81,0,0,1-1.75,7.15A17.54,17.54,0,0,1,61.08,221c-.17.11,7.52.9,11-.62a12.48,12.48,0,0,0,6.69-6.15c1.24-2.86.73-5.84.08-8.76-.55-2.46-1.56-6-.31-8.51a2.69,2.69,0,0,1,.16-.29c1.31-1.44,2.73-.15,3.2,1.31a13.2,13.2,0,0,1,.47,4.1,16.62,16.62,0,0,1-.38,4c-.45,1.77-1.38,3.37-1.89,5.11-.09.3,6.73-3.2,8.14-6.82S90.82,197,90.67,193c-.1-2.52-.38-4.18-1.88-6.09a15,15,0,0,0-3.35-3.19c-3-1.77-.92-4.38,4-4.34,3.36,0,5.72-3.33,7.15-6.31,1.51-3.15,2.27-8.42,1.35-11.78-.86-3.15-5.53-10.51-8-11.77.33,3.07,1,9.82-1.35,13.77a10.89,10.89,0,0,1-6.32,4.87c2.52-3.66,3.53-8.13,4.69-12.36.87-3.21,1.61-6.72.42-9.94s-4.36-5.09-7.49-6.17a23.7,23.7,0,0,0-5.78-1.21,10.42,10.42,0,0,0-4.47.42,13,13,0,0,0-2.55-4.62C63.85,130.61,59.06,131.55,54.75,132Zm17.84,51.16a2.26,2.26,0,0,1,.17.43,5.13,5.13,0,0,1,.16.94,6.44,6.44,0,0,1-.08,1.86c-.2.95-1.1,2.38-2.25,2.12-2-.45-.58-4,.28-5.15.18-.48,1.13-1.07,1.58-.39C72.3,182.75,72.56,183.1,72.59,183.17Zm-6.2-1a3.87,3.87,0,0,1-.12.83,9.54,9.54,0,0,1-1.63,3.45,9.3,9.3,0,0,1-3.1,2.72,1,1,0,0,1-1.47-.63c-.48-2.94,2-7.53,5.31-7.42A1,1,0,0,1,66.39,182.14Zm-7.84-3.27c.48,1.11-.2,2.59-1,3.42s-2.28,1.29-2.94.15c-.53-.9.29-2,.85-2.67a3.11,3.11,0,0,1,2.3-1.32A.76.76,0,0,1,58.55,178.87Zm-6.5-9.36a1.88,1.88,0,0,1,1.21-1.91,1.26,1.26,0,0,1,1.36.59.35.35,0,0,0,.05.08,2.59,2.59,0,0,1,.62,1.12,1.38,1.38,0,0,1-.94,1.73A1.84,1.84,0,0,1,52.05,169.51ZM64.41,173c-.92-.23-1.41-1.24-1.7-2.06a12.15,12.15,0,0,1-.32-1.82,3.25,3.25,0,0,1-.09-1.42.91.91,0,0,1,.91-.67,3.2,3.2,0,0,1,1.84.77l.09.06a3.75,3.75,0,0,1,1.35,3.37C66.28,172.19,65.51,173.29,64.41,173Zm8.3-4.32a4.66,4.66,0,0,1,.32,4.62,1,1,0,0,1-1.56.21c-1-1.29-1.62-3.87-.26-5.17A.91.91,0,0,1,72.71,168.69Zm-2.22-29A11.71,11.71,0,0,1,73.3,142a13,13,0,0,1,2.83,3.87c1.63,3.7,1.91,8.84.07,12.5-.49,1-1.24,2-2.11.81a11.6,11.6,0,0,1-1.51-3.65,50,50,0,0,1-1.56-8.6,41.31,41.31,0,0,0-1.22-7.5A3.07,3.07,0,0,1,70.49,139.65Z"/><path class="cls-5" d="M82.85,180.29c-.88-.17-1.75-.35-2.62-.54,1.44-2.94,7.44-7.57,7.91-8.12l.73-.86c-1.24.65-7.49,4.09-10.18,8.55-.71-.16-1-.15-1.75-.31a10.83,10.83,0,0,1-.63-3.92,24.62,24.62,0,0,1,1.21-6c1-3.27,3-10.14,2.38-10.25-.75,1.54-1.56,3-2.26,4.6A33.38,33.38,0,0,0,75,172.52a14,14,0,0,0,.24,6.08c-1.47-.35-2.93-.72-4.39-1.09-2.31-6.19-3.15-19.1-3.71-19.08,0,.4,0,.81.08,1.21.3,5.39-.38,12.28,2,17.45-2.47-.64-4.93-1.31-7.41-2a.56.56,0,0,0,0-.08c-3.31-4.82-8.13-15.92-8.8-16.62l.18.48c1.27,3.41,2.27,6.92,3.41,10.37a18.14,18.14,0,0,0,2.29,5.06c-4.23-1.13-9.56-3-13.75-4.33-2.58-2.84-7.51-9.13-8.13-9.44,1.37,2.84,2.94,6.25,5.1,8.82-1.73-.56-3.46-1.12-5.19-1.7-3.82-1.28-7.6-2.49-11.48-3.57-3.25-.91-6.22-2.55-9.67-2.52a.2.2,0,0,0,0,.4c3.61.24,6.66,1.83,9.83,3.43a60,60,0,0,0,7.54,3c-.59.31-1.17.65-1.75,1-1.61.83-3.2,1.69-4.81,2.53l-.43.22c.39.43,8-1.72,10-2.71l.24.09c3.9,1.33,7.84,2.66,11.81,3.89a34.65,34.65,0,0,0-4.87,3.05c-2.18,1.47-4.26,3.09-6.4,4.62-1.11.79-2.2,1.54-3.3,2.23.59-.15,1.18-.32,1.77-.52a57,57,0,0,0,7.61-4c2.53-1.78,5.75-2.53,8-4.55,2.7.79,5.4,1.54,8.12,2.2,1.25.3,2.49.63,3.73,1-2.18,1.79-3.8,4.64-5.8,6.47-2.86,2.62-5.87,5.05-8.9,7.47-1.57,1.25-3.09,2.57-4.65,3.83.85-.42,1.68-.85,2.49-1.26s14.3-9.77,19.12-15.89l4.52,1.26c-1.81,2.12-2.74,5.23-3.64,7.75A125.58,125.58,0,0,1,61.18,199a57.26,57.26,0,0,1-3.29,6.15,56.52,56.52,0,0,0,3.85-4.39c.21-.28,1.94-3.45,2.19-3.61.89-2,1.44-3.37,2.22-5.4s1.57-4.3,2.38-6.44c.73-1.91,1.79-3.64,2.59-5.51,1.34.37,2.69.73,4,1.06-1,2.19-1,5-1.08,7.27a66.59,66.59,0,0,0,.43,9c.08.72.15,1.43.22,2.15.06-.18.11-.36.17-.54a43.41,43.41,0,0,0,1.15-8.38,48.82,48.82,0,0,1,.13-5.13c.09-1.36.39-2.7.43-4.06.8.19,1.6.36,2.4.53.85,3.5,3.2,6.75,4.77,9.94.38.78.77,1.59,1.12,2.42.27-.9-.79-4.89-1.59-6.24-1-1.69-1.7-4-2.6-5.78,7.29,1.34,18.19,4.92,24.71,8.48a1,1,0,0,0,1.12-1.76C100.66,185,89.66,181.64,82.85,180.29Z"/><path class="cls-3" d="M321.44,272a1.55,1.55,0,0,0,.44.86l0,.06a.93.93,0,0,0,1,.48,1.41,1.41,0,0,0,1-1.4,1.4,1.4,0,0,0-1.7-1.29A1.05,1.05,0,0,0,321.44,272Z"/><path class="cls-3" d="M320.08,262.17a2.65,2.65,0,0,0-.83,2.56.49.49,0,0,0,.56.34c.65.23,1.38-.49,1.78-.93s1.09-1.3.72-2C321.84,261.26,320.64,261.6,320.08,262.17Z"/><path class="cls-3" d="M314.64,269c-.82-.23-1.44.58-1.62,1.28a2.84,2.84,0,0,0,.93,2.59l.06.05a2.43,2.43,0,0,0,1.38.64.7.7,0,0,0,.7-.49,1.78,1.78,0,0,0,0-1.07,4.33,4.33,0,0,0-.19-1.39C315.68,270,315.34,269.19,314.64,269Z"/><path class="cls-3" d="M309.32,268.41a.75.75,0,0,0-1.18.11,3.52,3.52,0,0,0,.1,3.51.7.7,0,0,0,1.13.3C310.43,271.38,310.07,269.42,309.32,268.41Z"/><path class="cls-3" d="M314.85,258.84c-.52.61-1.39,1.67-1.33,2.57a2.6,2.6,0,0,0-.11.63.77.77,0,0,0,.73.81c2.54.19,4.5-3.22,4.23-5.46a.77.77,0,0,0-1.1-.51A7.06,7.06,0,0,0,314.85,258.84Z"/><path class="cls-3" d="M310.05,261c.68-.85,1.82-3.5.36-3.89-.86-.23-1.58.83-1.76,1.54a4.68,4.68,0,0,0-.11,1.4,3.55,3.55,0,0,0,.09.72,2.13,2.13,0,0,0,.11.33l.1.15C309.16,261.76,310.07,261.57,310.05,261Z"/><path class="cls-3" d="M309.61,294.25a32.3,32.3,0,0,1-.71-5.71A37.06,37.06,0,0,0,308,282a8.71,8.71,0,0,0-1-2.81c-.63-.91-1.23-.17-1.62.56a11.81,11.81,0,0,0-.3,9.45,10,10,0,0,0,2,3,8.79,8.79,0,0,0,2.07,1.86A2.11,2.11,0,0,0,309.61,294.25Z"/><path class="cls-5" d="M320.79,300.29c.45,0,2.67-.48,2.28-.74a9,9,0,0,1-3.23-3.78c-.68-1.47-1.58-3.35-2.13-4.87A86.29,86.29,0,0,1,314.9,282a6.54,6.54,0,0,1,0-4.28c.35-.73.93-.15,1.29.25a19.2,19.2,0,0,1,2.83,5.16c1.63,3.83,2.77,8,5.13,11.47,1.31,1.92,3.08,3.73,5.46,3.52a56.29,56.29,0,0,0,7-1.79,2.55,2.55,0,0,0-.73-.53l0,0a26.28,26.28,0,0,1-2.73-2.62,34.44,34.44,0,0,1-3.84-5c-2.09-2.94-2.16-4-3.76-7.31a13.64,13.64,0,0,1-1-4.12,3,3,0,0,1,.21-2.07c.45-.73,1.38-.29,1.89.08a11.93,11.93,0,0,1,2.49,2.85,32.16,32.16,0,0,1,2.68,4.75,38.14,38.14,0,0,0,2.6,4.63,19,19,0,0,0,3.46,3.75c2.34,2,5.43,3.38,8.41,2a4.32,4.32,0,0,0,.43-.36c.12-.1,1.47-1.43,2-2a4.12,4.12,0,0,0,.28-.31l-.4-.19a24.55,24.55,0,0,1-2.64-1.5,35.94,35.94,0,0,1-5.26-3.92,9.63,9.63,0,0,1-2.32-2.84c-.36-.82-.47-2.07.54-2.51s2,.22,2.76.69a23.72,23.72,0,0,1,2.78,2.12c2.1,1.8,4.12,5.12,6.83,4.56,1.55-.32,1.87-1.46,3.6-2.59a29.83,29.83,0,0,1,3.91-2.21,20,20,0,0,1-1.27-3.81c-.3-1.55.06-3.09-1.19-3.71a7,7,0,0,0-1.56-.52,11.22,11.22,0,0,0-3.27-.08,14.49,14.49,0,0,1-5.17.17c-.34-.05-1.16-.59-1.07-.91.56-2,3.66-2.14,5.33-2.19a23.66,23.66,0,0,1,5.59.52l.46.1a7.62,7.62,0,0,0-1.15-2.83c-1.44-2-4.55-2.21-6.79-2.08-3.41.2-6.51,1.89-9.88,2.36a10.22,10.22,0,0,1-2.47.08,1.35,1.35,0,0,1-1-.5c-.23-.38,0-.95.31-1.24,1-1.17,3.07-1.36,4.5-1.82,3.6-1.15,7-2.95,10.69-3.79.51-.11,1-.21,1.56-.28a3.57,3.57,0,0,1,1-.06c.94.14.11-.54-.15-.93s-.32-.59-.49-.89c-.41-.75-.81-1.51-1.29-2.23a6.17,6.17,0,0,0-3-2.53c-3-1.08-6.29.44-8.87,1.84a63.35,63.35,0,0,0-5.42,3.42,21.87,21.87,0,0,1-6.07,3.22c-.55.15-1.43.32-1.8-.25a2,2,0,0,1,.29-2.23c1.24-1.82,3.51-3,5.4-4s4-1.82,6-2.69c3.09-1.33,6.35-2.55,9.76-2.12a.17.17,0,0,0,.12.05h.23a5.85,5.85,0,0,1,1.55.21c.2.06-2.81-6.4-5.47-8.46a7.87,7.87,0,0,0-8.38-.86c-2.71,1.25-4.88,3.5-7,5.52-1.05,1-2.15,1.88-3.25,2.81a12.51,12.51,0,0,1-4,2.67,2.1,2.1,0,0,1-1.53.22s0,0,0,0a.53.53,0,0,1-.13-.59,2,2,0,0,1,.26-.49,8.41,8.41,0,0,1,1.29-1.44c1.24-1.19,2.43-2.41,3.56-3.71a44,44,0,0,1,4.32-4.53c1.46-1.24,3.38-2.54,5.4-2.16.1,0-3.3-5.64-6.28-6.41a8.08,8.08,0,0,0-7.81,2.6,17.46,17.46,0,0,0-3.73,6.87,31.24,31.24,0,0,1-1.62,4,4.8,4.8,0,0,1-2.41,2.58c-2.6.9-1.49-5.7-1.3-6.81a20,20,0,0,1,1.52-5.37,13.27,13.27,0,0,1,5.39-5.52c.13-.08-5.67-.9-8.34.15a9.46,9.46,0,0,0-5.24,4.46c-1,2.13-.71,4.4-.31,6.63.35,1.88,1,4.61,0,6.45l-.13.21c-1,1.05-2.07,0-2.39-1.08a9.91,9.91,0,0,1-.23-3.12,12.25,12.25,0,0,1,.4-3c.38-1.32,1.14-2.5,1.57-3.81.07-.22-5.18,2.23-6.35,4.93a21.68,21.68,0,0,0-2.16,8.53,6.88,6.88,0,0,0,1.25,4.66,11.37,11.37,0,0,0,2.44,2.51c2.21,1.43.57,3.34-3.15,3.17-2.54-.12-4.42,2.36-5.59,4.57A14.92,14.92,0,0,0,289,276.9c.55,2.4,3.88,8.1,5.71,9.13-.17-2.33-.51-7.47,1.41-10.39a8.31,8.31,0,0,1,4.92-3.5c-2,2.7-2.9,6.05-3.9,9.22-.75,2.4-1.41,5-.6,7.51s3.15,4,5.49,4.88a18.08,18.08,0,0,0,4.33,1.08,8,8,0,0,0,3.4-.19,10,10,0,0,0,1.8,3.57C313.87,301.09,317.51,300.52,320.79,300.29Zm-12.05-39.21a2.13,2.13,0,0,1-.11-.33,3.55,3.55,0,0,1-.09-.72,4.68,4.68,0,0,1,.11-1.4c.18-.71.9-1.77,1.76-1.54,1.46.39.32,3-.36,3.89-.15.35-.89.78-1.21.25Zm4.67,1a2.6,2.6,0,0,1,.11-.63,7.4,7.4,0,0,1,1.33-2.57,7.06,7.06,0,0,1,2.42-2,.77.77,0,0,1,1.1.51c.27,2.24-1.69,5.65-4.23,5.46A.77.77,0,0,1,313.41,262Zm5.84,2.69a2.65,2.65,0,0,1,.83-2.56c.56-.57,1.76-.91,2.23,0,.37.7-.28,1.51-.72,2a2.37,2.37,0,0,1-1.78.93C319.58,265,319.35,265,319.25,264.73ZM323.9,272a1.41,1.41,0,0,1-1,1.4.93.93,0,0,1-1-.48l0-.06a1.91,1.91,0,0,1-.44-.86,1.05,1.05,0,0,1,.76-1.29A1.4,1.4,0,0,1,323.9,272Zm-9.26-3c.7.2,1,1,1.23,1.61a9.12,9.12,0,0,1,.19,1.39,2.58,2.58,0,0,1,0,1.07.7.7,0,0,1-.7.49,2.43,2.43,0,0,1-1.38-.64l-.06-.05a2.84,2.84,0,0,1-.93-2.59C313.2,269.57,313.82,268.76,314.64,269Zm-6.4,3a3.52,3.52,0,0,1-.1-3.51.75.75,0,0,1,1.18-.11c.75,1,1.11,3,.05,3.92A.7.7,0,0,1,308.24,272Zm.86,22A8.79,8.79,0,0,1,307,292.2a10,10,0,0,1-2-3,11.81,11.81,0,0,1,.3-9.45c.39-.73,1-1.47,1.62-.56a8.71,8.71,0,0,1,1,2.81,37.06,37.06,0,0,1,.94,6.55,32.3,32.3,0,0,0,.71,5.71A2.11,2.11,0,0,1,309.1,294.06Z"/><path class="cls-6" d="M300.9,263l2,.49c-1.18,2.18-5.85,5.52-6.22,5.92l-.57.62c1-.45,5.78-2.88,7.94-6.17.53.14.79.14,1.32.28a8.28,8.28,0,0,1,.36,3,18.74,18.74,0,0,1-1.08,4.49c-.82,2.45-2.57,7.59-2.1,7.69.62-1.14,1.27-2.26,1.84-3.42a25.26,25.26,0,0,0,2.25-6.78,10.5,10.5,0,0,0,0-4.6l3.3,1c1.57,4.74,1.83,14.53,2.26,14.54,0-.31,0-.61,0-.92-.08-4.08.63-9.28-1.05-13.26l5.56,1.7,0,.06c2.37,3.74,5.7,12.27,6.19,12.82l-.13-.37c-.86-2.62-1.52-5.3-2.28-7.94a13.61,13.61,0,0,0-1.59-3.89c3.16,1,7.15,2.57,10.28,3.66,1.87,2.22,5.42,7.12,5.88,7.38a32.41,32.41,0,0,0-3.61-6.82l3.88,1.43c2.85,1.08,5.68,2.1,8.59,3,2.43.78,4.63,2.1,7.23,2.18a.15.15,0,0,0,0-.3c-2.73-.28-5-1.58-7.35-2.88a45.47,45.47,0,0,0-5.61-2.51c.45-.21.9-.46,1.35-.67l3.71-1.78.33-.16c-.28-.33-6.07,1.08-7.6,1.77l-.18-.07c-2.91-1.12-5.86-2.24-8.83-3.28a26.06,26.06,0,0,0,3.78-2.17c1.69-1,3.31-2.22,5-3.32.86-.56,1.71-1.1,2.56-1.59a13.4,13.4,0,0,0-1.35.35,41.92,41.92,0,0,0-5.88,2.78c-2,1.27-4.42,1.75-6.2,3.22-2-.68-4-1.32-6.08-1.9-.93-.26-1.86-.54-2.79-.83,1.7-1.3,3-3.41,4.57-4.73,2.23-1.9,4.58-3.66,6.94-5.4,1.22-.9,2.41-1.85,3.63-2.77l-1.92.89c-.63.29-11.09,7-14.91,11.48l-3.39-1.08c1.43-1.56,2.22-3.89,3-5.77,1.2-3,2.46-6,3.95-8.83a44.34,44.34,0,0,1,2.67-4.56,43,43,0,0,0-3,3.21c-.17.21-1.56,2.56-1.76,2.67-.73,1.48-1.18,2.51-1.83,4s-1.31,3.21-2,4.8c-.61,1.43-1.46,2.71-2.12,4.1-1-.32-2-.63-3-.92a15.12,15.12,0,0,0,1-5.47,50.52,50.52,0,0,0-.07-6.85c0-.54-.07-1.08-.1-1.63l-.15.4a32.65,32.65,0,0,0-1.1,6.31,38.87,38.87,0,0,1-.25,3.88c-.11,1-.37,2-.44,3.05l-1.8-.46c-.54-2.68-2.23-5.2-3.33-7.66-.26-.6-.53-1.22-.77-1.86-.23.68.45,3.72,1,4.77.71,1.3,1.17,3.11,1.8,4.44a73.46,73.46,0,0,1-18.45-7.12c-.86-.51-1.74.71-.9,1.3C287.56,258.92,295.79,261.75,300.9,263Z"/><path class="cls-5" d="M277,193.75c18.81-19.19,49-22.5,84.32,1.29C321.51,224.25,286,205.74,277,193.75Z"/><path class="cls-6" d="M277,193.75c5.95-2.52,34.52-2.16,73.37.48C310.34,195.75,283.46,196.21,277,193.75Z"/><path class="cls-6" d="M287.31,194.22c2.28,1.7,3.24,5.41,1.68,7.6,3.54-2.95-.14-7.28-.14-7.28Z"/><path class="cls-6" d="M296.93,194.34c3,4.24,3.21,9.08,1.84,11.82,4.52-5.83.47-11.85.47-11.85Z"/><path class="cls-6" d="M309.2,194.35a12.85,12.85,0,0,1,2.25,13.49c3.26-5.16,1.78-11.19-.6-13.63A5.78,5.78,0,0,0,309.2,194.35Z"/><path class="cls-6" d="M323.26,194.44c3.29,4.71,4.08,7.18,2.38,12.57,3-4,1.59-10.88-.18-12.66A4.88,4.88,0,0,0,323.26,194.44Z"/><path class="cls-6" d="M334.74,194.11a10.41,10.41,0,0,1,2,8.76c1.82-3.47-.4-8.52-.4-8.52Z"/><path class="cls-6" d="M344.53,194.23a8.8,8.8,0,0,1,.76,6.84c1.62-2.44.17-6.88.17-6.88Z"/><path class="cls-6" d="M287.23,193.08c2.31-1.66,3.33-5.36,1.81-7.57,3.49,3-.26,7.28-.26,7.28Z"/><path class="cls-6" d="M296.86,193.11c3.06-4.19,3.35-9,2-11.78,4.42,5.9.27,11.85.27,11.85Z"/><path class="cls-6" d="M309.12,193.31a12.83,12.83,0,0,0,2.47-13.45c3.18,5.21,1.6,11.21-.82,13.61A5.81,5.81,0,0,1,309.12,193.31Z"/><path class="cls-6" d="M323.19,193.44c3.36-4.65,4.19-7.11,2.58-12.53,2.94,4.08,1.41,10.9-.39,12.66A4.93,4.93,0,0,1,323.19,193.44Z"/><path class="cls-6" d="M334.65,194a10.46,10.46,0,0,0,2.12-8.73c1.76,3.5-.55,8.51-.55,8.51Z"/><path class="cls-6" d="M344.44,194a8.81,8.81,0,0,0,.88-6.83c1.58,2.46.06,6.88.06,6.88Z"/><path class="cls-5" d="M117.74,195.4c-35.46-7.52-61.07-39.48-59.56-96.95C120.29,122.69,124.94,176.56,117.74,195.4Z"/><path class="cls-6" d="M117.74,195.4c-7.18-5-27.44-37.74-52.56-83.9C95.92,156,115.89,186.32,117.74,195.4Z"/><path class="cls-6" d="M110.85,183.37c.28-3.82,3.81-7.6,7.43-7.41-5.92-1.9-8.19,5.43-8.19,5.43Z"/><path class="cls-6" d="M104,172.32c2.66-6.48,8-10.22,12.12-10.64-9.9-.94-13.83,8-13.83,8Z"/><path class="cls-6" d="M95.15,158.35A17.3,17.3,0,0,1,108.88,146c-8.24,0-14,6.07-15.09,10.54A8,8,0,0,0,95.15,158.35Z"/><path class="cls-6" d="M85.07,142.26c3-7.14,5.22-9.83,12.59-11.8-6.76-.51-13.54,6.06-14.29,9.37A6.66,6.66,0,0,0,85.07,142.26Z"/><path class="cls-6" d="M76.39,129.44a14.09,14.09,0,0,1,8.54-8.59c-5.26.45-9.4,6.63-9.4,6.63Z"/><path class="cls-6" d="M69.44,118.21c1.09-2.5,4.14-5,7.24-5.82-4-.08-8,4.78-8,4.78Z"/><path class="cls-6" d="M109.6,184.29c-3.56-1.43-8.51.09-9.92,3.42.88-6.15,8.47-5,8.47-5Z"/><path class="cls-6" d="M102.67,173.3c-7-.46-12.7,2.71-14.88,6.22,3.51-9.31,13.3-8.89,13.3-8.89Z"/><path class="cls-6" d="M94,159.2a17.32,17.32,0,0,0-17.11,6.92c3.63-7.39,11.62-9.94,16.1-8.93A8.31,8.31,0,0,1,94,159.2Z"/><path class="cls-6" d="M84,143.08c-7.72-.46-11.12.38-16.13,6.13,2.51-6.3,11.39-9.5,14.69-8.72A6.62,6.62,0,0,1,84,143.08Z"/><path class="cls-6" d="M76.27,129.65a14,14,0,0,0-11.46,3.91C67.52,129,74.9,128,74.9,128Z"/><path class="cls-6" d="M69.24,118.47a11.88,11.88,0,0,0-8.42,4c1.67-3.59,7.8-5,7.8-5Z"/><path class="cls-5" d="M116.42,258.77c-4.48,30.15-30,53.31-78.3,55C55.25,260.39,100.23,253.7,116.42,258.77Z"/><path class="cls-6" d="M116.42,258.77c-3.79,6.28-30.26,25-67.71,48.46C84.5,279.12,108.89,260.79,116.42,258.77Z"/><path class="cls-6" d="M106.68,265.17c-3.23,0-6.59-2.8-6.61-5.85-1.29,5.06,5,6.59,5,6.59Z"/><path class="cls-6" d="M97.76,271.48c-5.58-1.9-9-6.2-9.57-9.62-.27,8.36,7.47,11.18,7.47,11.18Z"/><path class="cls-6" d="M86.49,279.65a14.57,14.57,0,0,1-11.06-10.89c.44,6.92,5.82,11.47,9.63,12.12A6.85,6.85,0,0,0,86.49,279.65Z"/><path class="cls-6" d="M73.5,288.94c-6.15-2.13-8.52-3.87-10.56-10-.08,5.71,5.79,11,8.61,11.51A5.47,5.47,0,0,0,73.5,288.94Z"/><path class="cls-6" d="M63.19,296.89a11.81,11.81,0,0,1-7.65-6.72c.64,4.39,6.05,7.55,6.05,7.55Z"/><path class="cls-6" d="M54.12,303.31a10,10,0,0,1-5.26-5.78c.14,3.33,4.43,6.44,4.43,6.44Z"/><path class="cls-6" d="M107.51,266.17c-1,3.06.51,7.14,3.39,8.16-5.21-.43-4.62-6.86-4.62-6.86Z"/><path class="cls-6" d="M98.65,272.56c0,5.89,2.93,10.52,6,12.17-8-2.46-8.16-10.7-8.16-10.7Z"/><path class="cls-6" d="M87.25,280.56a14.59,14.59,0,0,0,6.7,14c-6.39-2.67-9-9.24-8.33-13.06A6.79,6.79,0,0,1,87.25,280.56Z"/><path class="cls-6" d="M74.25,289.81c0,6.51.89,9.32,6,13.23-5.42-1.78-8.57-9.07-8.09-11.88A5.57,5.57,0,0,1,74.25,289.81Z"/><path class="cls-6" d="M63.37,297a11.82,11.82,0,0,0,3.87,9.42c-3.94-2-5.17-8.18-5.17-8.18Z"/><path class="cls-6" d="M54.35,303.47a10,10,0,0,0,3.75,6.85C55,309.11,53.46,304,53.46,304Z"/><path class="cls-4" d="M129.52,259.7c-30.21,23.06-73.13,21.6-117.81-18.85C73.43,208,119.45,241.1,129.52,259.7Z"/><path class="cls-5" d="M129.52,259.7c-8.84,2.33-48.76-4-102.64-15.51C83.3,250.16,121,255,129.52,259.7Z"/><path class="cls-5" d="M115.25,257c-2.85-2.83-3.45-8.23-.82-11-5.56,3.41-1.28,10.23-1.28,10.23Z"/><path class="cls-5" d="M101.79,254.85c-3.34-6.55-2.66-13.36-.18-16.92-7.52,7.24-3,16.5-3,16.5Z"/><path class="cls-5" d="M84.62,252.36A18.15,18.15,0,0,1,84.19,233c-5.61,6.56-4.75,15.31-1.92,19.2A8.38,8.38,0,0,0,84.62,252.36Z"/><path class="cls-5" d="M64.94,249.38c-3.66-7.25-4.26-10.87-.79-18.08-5,5-4.43,14.91-2.31,17.77A7,7,0,0,0,64.94,249.38Z"/><path class="cls-5" d="M48.81,247.53a14.7,14.7,0,0,1-1-12.66c-3.24,4.49-1.15,12-1.15,12Z"/><path class="cls-5" d="M35.12,245.39c-1.23-2.58-1.11-6.69.32-9.74-2.77,3.09-1.64,9.6-1.64,9.6Z"/><path class="cls-5" d="M115.12,258.58c-3.56,1.86-5.74,6.83-4.06,10.23-4.28-4.9,1.84-10.14,1.84-10.14Z"/><path class="cls-5" d="M101.65,256.59c-5.14,5.24-6.52,12-5.22,16.08-5-9.15,2-16.65,2-16.65Z"/><path class="cls-5" d="M84.51,253.84a18.15,18.15,0,0,0-6.17,18.33c-3.4-7.94,0-16,3.89-18.9A8.26,8.26,0,0,1,84.51,253.84Z"/><path class="cls-5" d="M64.84,250.81c-5.65,5.83-7.3,9.1-6.15,17-3.29-6.3.23-15.55,3.1-17.65A6.87,6.87,0,0,1,64.84,250.81Z"/><path class="cls-5" d="M48.89,247.76a14.79,14.79,0,0,0-4.73,11.79c-1.75-5.25,2.49-11.81,2.49-11.81Z"/><path class="cls-5" d="M35.19,245.72c-1.95,2.1-3,6.06-2.6,9.4-1.72-3.78,1.3-9.66,1.3-9.66Z"/><path class="cls-4" d="M276.84,270.53c5.56-27.4,30-47.38,74.37-46.61C332.94,272,291.42,276,276.84,270.53Z"/><path class="cls-5" d="M276.84,270.53c3.77-5.57,28.92-21.42,64.35-41.12C307.05,253.43,283.83,269,276.84,270.53Z"/><path class="cls-5" d="M286.07,265.13c2.95.19,5.89,2.89,5.77,5.68,1.43-4.57-4.25-6.28-4.25-6.28Z"/><path class="cls-5" d="M294.54,259.79c5,2,7.94,6.11,8.3,9.27.65-7.64-6.3-10.61-6.3-10.61Z"/><path class="cls-5" d="M305.26,252.85a13.35,13.35,0,0,1,9.6,10.5c-.07-6.35-4.78-10.78-8.24-11.56A5.94,5.94,0,0,0,305.26,252.85Z"/><path class="cls-5" d="M317.6,245c5.53,2.24,7.62,4,9.19,9.63.35-5.22-4.77-10.4-7.33-11A5.11,5.11,0,0,0,317.6,245Z"/><path class="cls-5" d="M327.43,238.18a10.84,10.84,0,0,1,6.68,6.53c-.38-4.05-5.18-7.21-5.18-7.21Z"/><path class="cls-5" d="M336,232.74a9.2,9.2,0,0,1,4.55,5.55c0-3-3.75-6.11-3.75-6.11Z"/><path class="cls-5" d="M285.35,264.18c1.08-2.76-.12-6.57-2.71-7.64,4.76.65,3.9,6.51,3.9,6.51Z"/><path class="cls-5" d="M293.78,258.76c.31-5.4-2.18-9.78-4.9-11.44,7.21,2.64,6.95,10.19,6.95,10.19Z"/><path class="cls-5" d="M304.6,252a13.35,13.35,0,0,0-5.46-13.14c5.73,2.75,7.75,8.89,7,12.35A6.26,6.26,0,0,1,304.6,252Z"/><path class="cls-5" d="M317,244.13c.31-6-.37-8.58-4.84-12.4,4.88,1.89,7.41,8.72,6.83,11.27A5,5,0,0,1,317,244.13Z"/><path class="cls-5" d="M327.27,238.09a10.85,10.85,0,0,0-3.1-8.81c3.52,2.05,4.35,7.74,4.35,7.74Z"/><path class="cls-5" d="M335.84,232.59a9.13,9.13,0,0,0-3.11-6.46c2.78,1.26,4,6,4,6Z"/><path class="cls-4" d="M286.9,282.79c17.36-1.06,33.29,10.44,40,37.2C295,316.74,286,292.42,286.9,282.79Z"/><path class="cls-5" d="M286.9,282.79c4,1.37,17.52,13.94,35.05,32.07C302,298.2,288.91,286.75,286.9,282.79Z"/><path class="cls-5" d="M291.62,287.47c.36,1.8-.79,4-2.48,4.38,3,.12,3.09-3.56,3.09-3.56Z"/><path class="cls-5" d="M296.2,291.7c-.4,3.34-2.4,5.76-4.24,6.48a6.75,6.75,0,0,0,5.36-5.49Z"/><path class="cls-5" d="M302.09,297a8.33,8.33,0,0,1-4.77,7.46c3.81-1.07,5.71-4.61,5.63-6.81A3.82,3.82,0,0,0,302.09,297Z"/><path class="cls-5" d="M308.81,303.18c-.46,3.68-1.16,5.21-4.31,7.07,3.19-.63,5.48-4.54,5.41-6.16A3.12,3.12,0,0,0,308.81,303.18Z"/><path class="cls-5" d="M314.47,308a6.77,6.77,0,0,1-2.85,5.06c2.37-.88,3.5-4.27,3.5-4.27Z"/><path class="cls-5" d="M319.12,312.3a5.72,5.72,0,0,1-2.6,3.62c1.84-.47,3.07-3.23,3.07-3.23Z"/><path class="cls-5" d="M292.08,286.88c1.83.21,3.93-1.12,4.15-2.85.38,3-3.28,3.39-3.28,3.39Z"/><path class="cls-5" d="M296.69,291.08c3.3-.68,5.53-2.88,6.09-4.78a6.73,6.73,0,0,1-5,5.81Z"/><path class="cls-5" d="M302.5,296.49a8.33,8.33,0,0,0,7-5.39c-.73,3.88-4.1,6.09-6.3,6.19A3.88,3.88,0,0,1,302.5,296.49Z"/><path class="cls-5" d="M309.21,302.66c3.63-.77,5.1-1.6,6.67-4.9-.35,3.24-4.05,5.85-5.67,5.92A3.25,3.25,0,0,1,309.21,302.66Z"/><path class="cls-5" d="M314.49,307.88a6.73,6.73,0,0,0,4.81-3.27c-.68,2.44-4,3.85-4,3.85Z"/><path class="cls-5" d="M319.18,312.15a5.71,5.71,0,0,0,3.38-2.9c-.31,1.87-3,3.33-3,3.33Z"/><ellipse class="cls-2" cx="190.32" cy="334.39" rx="150.2" ry="6.1"/><polygon class="cls-7" points="214.17 301.59 166.48 301.59 158.49 330.5 222.17 330.5 214.17 301.59"/><polygon class="cls-8" points="214.17 301.59 166.48 301.59 164.37 309.22 216.28 309.22 214.17 301.59"/><polygon class="cls-8" points="158.49 330.5 222.17 330.5 220.61 324.86 160.05 324.86 158.49 330.5"/><path class="cls-9" d="M152.39,328.59H228a3,3,0,0,1,3,3V333a0,0,0,0,1,0,0H149.39a0,0,0,0,1,0,0v-1.4A3,3,0,0,1,152.39,328.59Z"/><path class="cls-7" d="M71,282.56v14.71a6.35,6.35,0,0,0,6.35,6.35H303.28a6.36,6.36,0,0,0,6.35-6.35V282.56Z"/><path class="cls-9" d="M309.63,146.83a6.36,6.36,0,0,0-6.35-6.35H77.36A6.35,6.35,0,0,0,71,146.83V282.56H309.63Z"/><rect class="cls-10" x="79.39" y="148.95" width="221.57" height="124.95"/><path class="cls-9" d="M194.56,292.55a3.8,3.8,0,1,1-3.79-3.8A3.79,3.79,0,0,1,194.56,292.55Z"/><path class="cls-11" d="M309.63,146.83a6.36,6.36,0,0,0-6.35-6.35H77.36a6.3,6.3,0,0,0-4.55,1.93L309.63,272.1Z"/><path class="cls-12" d="M190.3,243.83a180.58,180.58,0,0,0,38.47-32.53c19.06-21.29,31.52-45,37.28-70.82H114.56c5.75,25.89,18.21,49.64,37.29,70.92A179.75,179.75,0,0,0,190.3,243.83Z"/><path class="cls-13" d="M228.77,195.28a180,180,0,0,1-38.47,32.53,179.6,179.6,0,0,1-38.45-32.42C126,166.56,112.27,133.19,111,96.13c41.63-5.26,68.56-28.62,79.25-39.76,10.12,10.68,35.38,32.28,79.43,39.51C268.41,132.93,254.67,166.35,228.77,195.28Z"/><path class="cls-14" d="M226.71,191.71a170.25,170.25,0,0,1-36.4,30.34,169.08,169.08,0,0,1-36.4-30.25c-24.47-26.89-37.46-58-38.69-92.58a128.25,128.25,0,0,0,75-37.09c9.57,10,33.48,30.11,75.17,36.86C264.24,133.55,251.23,164.72,226.71,191.71Z"/><path class="cls-15" d="M163.51,138.16h11.94l8.92,15s9.1-16.69,27.5-33.95h7S201.63,134.74,188,163.76h-5.5Z"/><circle class="cls-16" cx="192.16" cy="138.03" r="36.37" transform="translate(13.67 293.33) rotate(-76.72)"/><path class="cls-17" d="M190.3,227.81a179.6,179.6,0,0,1-38.45-32.42C126,166.56,112.27,133.19,111,96.13c41.63-5.26,68.56-28.62,79.25-39.76C190.23,86.93,190.3,206.32,190.3,227.81Z"/><circle class="cls-9" cx="122.24" cy="13.99" r="0.98"/><circle class="cls-9" cx="257.87" cy="13.99" r="0.98"/><path class="cls-4" d="M93,93.56a3.25,3.25,0,1,1-3.25-3.26A3.26,3.26,0,0,1,93,93.56Z"/><path class="cls-4" d="M73,87.41a.83.83,0,1,1-.82-.82A.83.83,0,0,1,73,87.41Z"/><path class="cls-4" d="M46.79,114.84a2,2,0,1,1-2-2A2,2,0,0,1,46.79,114.84Z"/><circle class="cls-4" cx="31.83" cy="124.29" r="1.19"/><path class="cls-4" d="M12.48,217.22a2,2,0,1,1-2-2A2,2,0,0,1,12.48,217.22Z"/><circle class="cls-4" cx="0.73" cy="202.55" r="0.73"/><path class="cls-4" d="M369,216.32a1.25,1.25,0,1,1-1.25-1.25A1.24,1.24,0,0,1,369,216.32Z"/><path class="cls-4" d="M369,90.35a1.25,1.25,0,1,1-1.25-1.24A1.25,1.25,0,0,1,369,90.35Z"/><path class="cls-4" d="M296.66,85a2.5,2.5,0,1,1-2.5-2.49A2.49,2.49,0,0,1,296.66,85Z"/><circle class="cls-4" cx="334.9" cy="46.7" r="2.08"/><rect class="cls-4" x="344.36" y="333.77" width="1.49" height="7.63"/><rect class="cls-4" x="344.36" y="333.77" width="1.49" height="7.63" transform="translate(682.69 -7.51) rotate(90)"/><rect class="cls-4" x="33.13" width="1.49" height="7.63"/><rect class="cls-4" x="33.13" width="1.49" height="7.63" transform="translate(37.69 -30.06) rotate(90)"/><rect class="cls-4" x="347.25" y="70.86" width="2.67" height="13.69"/><rect class="cls-4" x="347.25" y="70.86" width="2.67" height="13.69" transform="translate(426.3 -270.88) rotate(90)"/><rect class="cls-4" x="14.04" y="47.36" width="2.67" height="13.69"/><rect class="cls-4" x="14.04" y="47.36" width="2.67" height="13.69" transform="translate(69.58 38.82) rotate(90)"/></g></g></g></svg>